<svg width="19" height="18" viewBox="0 0 19 18" fill="none" xmlns="http://www.w3.org/2000/svg">
<path d="M11.75 17.0625H7.25C3.1775 17.0625 1.4375 15.3225 1.4375 11.25V6.75C1.4375 2.6775 3.1775 0.9375 7.25 0.9375H11C11.3075 0.9375 11.5625 1.1925 11.5625 1.5C11.5625 1.8075 11.3075 2.0625 11 2.0625H7.25C3.7925 2.0625 2.5625 3.2925 2.5625 6.75V11.25C2.5625 14.7075 3.7925 15.9375 7.25 15.9375H11.75C15.2075 15.9375 16.4375 14.7075 16.4375 11.25V7.5C16.4375 7.1925 16.6925 6.9375 17 6.9375C17.3075 6.9375 17.5625 7.1925 17.5625 7.5V11.25C17.5625 15.3225 15.8225 17.0625 11.75 17.0625Z" fill="#292D32"/>
<path d="M17 8.06249H14C11.435 8.06249 10.4375 7.06499 10.4375 4.49999V1.49999C10.4375 1.27499 10.5725 1.06499 10.7825 0.982492C10.9925 0.892492 11.2325 0.944992 11.3975 1.10249L17.3975 7.10249C17.555 7.25999 17.6075 7.50749 17.5175 7.71749C17.4275 7.92749 17.225 8.06249 17 8.06249ZM11.5625 2.85749V4.49999C11.5625 6.43499 12.065 6.93749 14 6.93749H15.6425L11.5625 2.85749Z" fill="#292D32"/>
<path d="M10.25 10.3125H5.75C5.4425 10.3125 5.1875 10.0575 5.1875 9.75C5.1875 9.4425 5.4425 9.1875 5.75 9.1875H10.25C10.5575 9.1875 10.8125 9.4425 10.8125 9.75C10.8125 10.0575 10.5575 10.3125 10.25 10.3125Z" fill="#292D32"/>
<path d="M8.75 13.3125H5.75C5.4425 13.3125 5.1875 13.0575 5.1875 12.75C5.1875 12.4425 5.4425 12.1875 5.75 12.1875H8.75C9.0575 12.1875 9.3125 12.4425 9.3125 12.75C9.3125 13.0575 9.0575 13.3125 8.75 13.3125Z" fill="#292D32"/>
</svg>
