<svg width="16" height="17" viewBox="0 0 16 17" fill="none" xmlns="http://www.w3.org/2000/svg">
<mask id="mask0_118_5182" style="mask-type:luminance" maskUnits="userSpaceOnUse" x="0" y="0" width="16" height="17">
<path d="M0 8.5C0 4.08172 3.58172 0.5 8 0.5C12.4183 0.5 16 4.08172 16 8.5C16 12.9183 12.4183 16.5 8 16.5C3.58172 16.5 0 12.9183 0 8.5Z" fill="white"/>
</mask>
<g mask="url(#mask0_118_5182)">
<path fill-rule="evenodd" clip-rule="evenodd" d="M-1 8.5C-1 4.08172 2.58172 0.5 7 0.5H9.00177C13.42 0.5 17.0018 4.08172 17.0018 8.5C17.0018 12.9183 13.42 16.5 9.00176 16.5H7C2.58172 16.5 -1 12.9183 -1 8.5Z" fill="#165D31"/>
<path fill-rule="evenodd" clip-rule="evenodd" d="M3.5368 5.03436C3.53597 5.03436 3.53529 5.03498 3.53525 5.03581C3.51859 5.36918 3.49483 5.9231 3.65882 6.0907C3.69812 6.13087 3.76291 6.1486 3.81184 6.12096C3.94861 6.04369 3.90641 5.684 3.92814 5.4808C3.93714 5.39668 4.01799 5.29042 4.02052 5.37498V5.95936C4.02052 6.05132 4.04308 6.11171 4.07436 6.1538C4.1295 6.22799 4.24595 6.20208 4.30733 6.27121C4.33442 6.30172 4.34007 6.355 4.34159 6.39577L4.35303 6.70366C4.36748 7.09263 4.55389 7.16731 4.55964 6.77811C4.56417 6.53622 4.53945 6.32164 4.5314 6.18049C4.52539 6.07536 4.57317 5.91897 4.65809 5.98123C4.73309 6.04998 4.76591 6.13748 4.88311 6.10623C5.06125 6.03748 5.16907 5.92186 5.17142 5.74061C5.168 5.56771 5.14171 5.39702 5.09378 5.23638C5.09095 5.2269 5.0912 5.2167 5.09062 5.20683C5.09058 5.20613 5.09054 5.20543 5.09048 5.20472C5.08672 5.15923 5.14111 5.13076 5.15265 5.08661C5.15422 5.08061 5.1543 5.07188 5.15286 5.06585C5.13647 4.99708 5.11549 4.92963 5.08822 4.87388C5.04682 4.78924 4.95494 4.67777 4.87826 4.73252C4.85087 4.75208 4.82765 4.79202 4.81513 4.85623C4.79803 5.01868 4.85111 5.20712 4.93348 5.37177C4.94927 5.40332 4.96401 5.4355 4.97293 5.46963C4.97921 5.49368 4.9852 5.52049 4.98979 5.54865C5.00511 5.64266 4.93479 5.75056 4.86791 5.68274C4.856 5.67066 4.84194 5.65338 4.83015 5.64118C4.79231 5.60203 4.70731 5.51108 4.70731 5.48436C4.74481 5.16561 4.71434 5.12811 4.69325 5.03748C4.68713 4.98452 4.67527 4.9469 4.66092 4.91462C4.62427 4.8322 4.53229 4.71206 4.49401 4.79373C4.43072 4.93748 4.46119 5.24686 4.50573 5.38748C4.5129 5.41551 4.52087 5.44129 4.52868 5.46447C4.55559 5.54426 4.51795 5.66415 4.48385 5.58715C4.47996 5.57836 4.47433 5.56087 4.47256 5.55143C4.44008 5.37831 4.42444 5.20033 4.42603 5.02186C4.41657 4.90586 4.40559 4.68403 4.36352 4.56002C4.34671 4.51049 4.3177 4.44235 4.26594 4.44985C4.19815 4.45968 4.19662 4.55659 4.19565 4.62508C4.19415 4.7304 4.19751 4.83577 4.2057 4.94061C4.25258 5.17186 4.26899 5.37811 4.29242 5.61248C4.29946 5.92811 4.15647 5.74998 4.16351 5.59061C4.19426 5.39025 4.19186 5.18336 4.15647 4.98436C4.12696 4.88207 3.99538 4.92032 3.94779 5.01555C3.92252 5.06612 3.89791 5.13193 3.8794 5.2112C3.85902 5.29848 3.84723 5.38766 3.8339 5.4763C3.82739 5.5196 3.82089 5.56866 3.8166 5.61561C3.80019 5.75936 3.72987 5.86561 3.6783 5.59686C3.63621 5.40047 3.60812 4.92421 3.53818 5.03354C3.53789 5.03399 3.53734 5.03436 3.5368 5.03436Z" fill="white"/>
<path fill-rule="evenodd" clip-rule="evenodd" d="M4.3184 6.5688C4.31898 6.5688 4.31921 6.56956 4.31872 6.56987L3.83856 6.87794C3.72487 6.95088 3.61371 6.87019 3.69032 6.75894C3.81437 6.57878 4.0108 6.41142 4.16334 6.40942C4.31549 6.41254 4.2783 6.48735 4.31788 6.56847C4.31798 6.56867 4.31818 6.5688 4.3184 6.5688Z" fill="white"/>
<path fill-rule="evenodd" clip-rule="evenodd" d="M4.31863 7.42814C4.17151 7.04441 4.06601 7.09631 4.12505 7.50301C4.23412 8.25434 5.14005 8.16007 5.26091 6.93752C5.27497 6.87502 5.33122 6.81564 5.3406 6.91564C5.31013 8.26877 4.31863 8.35939 4.14986 7.93439C4.11016 7.78816 4.09031 7.63366 4.09126 7.47814C4.06782 7.21252 3.96234 7.31564 3.94593 7.57814C3.92953 7.72502 3.93421 7.76564 3.93421 7.90627C3.98578 8.97502 5.26325 8.51564 5.47186 7.63439C5.50874 7.47122 5.51883 7.32239 5.51813 7.1966C5.51667 6.93517 5.71573 6.97045 5.85628 6.75002C5.88979 6.68619 5.96755 6.77403 6.03891 6.7843C6.12807 6.79713 6.22543 6.74105 6.25241 6.62189C6.26585 6.51632 6.2774 6.40949 6.28521 6.30138C6.2916 6.21298 6.16008 6.12799 6.14693 6.21564L6.13052 6.35939C6.12349 6.40627 6.05551 6.40627 6.05083 6.34689C6.02646 6.19694 5.94062 6.15292 5.86766 6.28836C5.82207 6.37297 5.76095 6.51798 5.68674 6.45691C5.67765 6.44944 5.67063 6.43858 5.66673 6.42389C5.66421 6.41441 5.66494 6.39388 5.66523 6.38407C5.66929 6.24903 5.48264 6.10679 5.46927 5.97236L5.39889 5.26475C5.39278 5.20331 5.43414 5.18594 5.48973 5.15907C5.51392 5.14738 5.52244 5.10728 5.51624 5.08114C5.47921 4.92493 5.41762 4.68732 5.36576 4.56035C5.34089 4.49945 5.29049 4.45109 5.22809 4.47189C5.16715 4.49689 5.11089 4.56564 5.12964 4.70314C5.19996 5.29064 5.24684 5.73752 5.3195 6.32814C5.34166 6.45222 5.19353 6.42144 5.12046 6.31875C5.08201 6.26473 5.03494 6.22184 4.9515 6.22502C4.8343 6.22502 4.70304 6.39689 4.68663 6.55939C4.67608 6.62501 4.66905 6.69298 4.66817 6.7586C4.66651 6.88221 4.70897 7.03469 4.8315 7.0511C4.84789 7.0533 4.86432 7.05313 4.88062 7.05134C4.93038 7.04588 4.99209 7.00896 5.02801 6.9741C5.08602 6.91779 5.11944 6.96367 5.10157 7.04251C5.07456 7.16164 4.99154 7.3465 4.77336 7.50002C4.56943 7.62502 4.40535 7.65002 4.31863 7.42814Z" fill="white"/>
<path fill-rule="evenodd" clip-rule="evenodd" d="M5.86728 5.49989C5.86766 5.49989 5.86797 5.49984 5.86831 5.49967C5.92958 5.46879 6.17146 5.11168 6.27396 4.95753C6.30141 4.91624 6.29716 4.86174 6.26399 4.82489C6.22856 4.78814 6.28968 4.74237 6.30951 4.69533C6.32817 4.65106 6.32843 4.59854 6.31879 4.55059C6.30472 4.48064 6.2495 4.41816 6.17816 4.41926C6.10612 4.42036 6.04812 4.48053 6.02865 4.5499C6.02495 4.56309 6.02211 4.57653 6.02017 4.59001C6.00434 4.70004 6.18718 4.80686 6.11398 4.89051C6.00384 5.04625 5.75943 5.28279 5.64554 5.41063C5.59839 5.46356 5.6277 5.51215 5.69856 5.51364C5.77079 5.51516 5.85387 5.51103 5.86452 5.50126C5.8653 5.50054 5.86622 5.49989 5.86728 5.49989ZM3.5942 7.53114C3.45357 7.83114 3.44185 8.27801 3.5192 8.41239C3.56139 8.47489 3.62936 8.50301 3.67859 8.48114C3.75052 8.44076 3.79035 8.27607 3.7919 8.16974C3.79253 8.12717 3.78475 8.0631 3.74344 8.0528C3.70369 8.04289 3.69738 8.10504 3.67756 8.14089C3.63396 8.21975 3.61427 8.12371 3.60827 8.04364C3.60155 7.88486 3.60784 7.72559 3.62702 7.56864C3.64343 7.43739 3.62702 7.47489 3.5942 7.53114ZM9.62663 7.06884C9.62013 7.04676 9.61683 7.04207 9.60917 7.02036C9.47422 6.63801 9.29314 6.2677 9.23616 6.12489C9.05349 5.7399 8.85958 5.36461 8.65485 4.99989C8.58175 4.88356 8.64269 4.90878 8.68492 4.9037C8.89221 4.8788 8.53817 4.55584 8.39936 4.39989C8.35248 4.35614 8.23997 4.27489 8.22122 4.40614C8.21184 4.52489 8.21653 4.58739 8.23059 4.68426C8.24231 4.74676 8.31263 4.85614 8.34779 4.91864C8.74211 5.61496 9.09706 6.34908 9.40979 7.11491C9.5151 7.37278 9.70537 7.33603 9.62663 7.06884Z" fill="white"/>
<path fill-rule="evenodd" clip-rule="evenodd" d="M9.21407 8.2279C9.09368 8.32254 8.99582 8.45569 9.12221 8.54216C9.16722 8.57296 9.23793 8.56991 9.28966 8.55263C9.45904 8.49604 9.61176 8.33715 9.75392 7.99057C9.8206 7.85751 9.86313 7.70559 9.87815 7.54682C9.89801 6.7882 9.85239 6.02905 9.7422 5.28432C9.73862 5.25248 9.73869 5.2174 9.74024 5.18816C9.74235 5.14814 9.75529 5.12427 9.793 5.11066C9.81931 5.10116 9.8362 5.06194 9.83452 5.03402C9.82755 4.91879 9.72486 4.61592 9.66485 4.49057C9.64141 4.42182 9.62969 4.37807 9.5875 4.49682C9.53659 4.62785 9.51234 4.7744 9.51718 4.92182C9.61328 5.81245 9.64376 6.59057 9.7047 7.4812C9.71173 7.5687 9.70235 7.6937 9.65782 7.7437C9.52906 7.93482 9.37932 8.09799 9.21407 8.2279ZM11.8931 8.25986C11.7965 8.31894 11.6476 8.40759 11.6407 8.52059C11.634 8.63118 11.7812 8.596 11.8893 8.5716C12.0469 8.53603 12.2088 8.46008 12.33 8.21557C12.3879 8.05955 12.4214 7.88943 12.4284 7.71557C12.4579 6.96863 12.4209 6.21966 12.3182 5.48432C12.3135 5.42182 12.2925 5.27495 12.2995 5.2562C12.3244 5.1787 12.4072 5.16761 12.3756 5.09263C12.3212 4.96395 12.2089 4.76576 12.1588 4.66245C12.1354 4.5937 12.126 4.54995 12.0815 4.6687C12.0343 4.80093 12.0195 4.94964 12.0393 5.0937C12.1471 6.06245 12.2268 6.78745 12.2432 7.6437C12.2256 7.79658 12.1681 7.94168 12.0861 8.07188C12.0585 8.11562 12.0309 8.1544 12.0041 8.1812C11.9763 8.20774 11.9349 8.23428 11.8931 8.25986Z" fill="white"/>
<path fill-rule="evenodd" clip-rule="evenodd" d="M11.8611 7.49058C11.8611 7.26245 11.8634 7.0687 11.8587 6.89683C11.8572 6.75126 11.8333 6.60767 11.7884 6.47495C11.7462 6.34683 11.772 6.2437 11.7509 6.1062C11.7322 5.9687 11.7368 5.76245 11.7087 5.60308C11.6993 5.54058 11.6759 5.33745 11.6829 5.31558C11.7005 5.25001 11.7705 5.23188 11.7587 5.16504C11.7288 4.99583 11.6277 4.66841 11.5704 4.5562C11.5215 4.43168 11.3906 4.67862 11.3978 4.81222C11.401 4.87221 11.4105 4.9382 11.4204 5.00308C11.5634 6.01245 11.6736 6.92808 11.6501 7.88745C11.6407 7.9687 11.8611 7.6437 11.8611 7.49058ZM10.7899 6.23745C10.7899 6.23914 10.7885 6.24049 10.7868 6.24029C10.6943 6.22922 10.508 5.99848 10.4523 5.86558C10.4431 5.83273 10.4392 5.79768 10.4408 5.76268C10.4413 5.75351 10.4421 5.74439 10.4432 5.73537C10.4496 5.68621 10.4782 5.63821 10.5252 5.62271C10.5421 5.61715 10.5593 5.6162 10.5752 5.62329C10.5845 5.62738 10.5866 5.62785 10.5912 5.63681C10.6102 5.67366 10.666 5.75475 10.6895 5.7206C10.6928 5.71578 10.695 5.70978 10.6961 5.70308C10.7003 5.61923 10.671 5.51949 10.7373 5.46802C10.7817 5.43356 10.8401 5.44602 10.8696 5.50308C10.9024 5.55933 10.9165 5.67495 10.9188 5.75308C10.9188 5.81408 10.8128 5.77378 10.8072 5.83452C10.8068 5.83867 10.8065 5.84278 10.8063 5.84683C10.8016 5.94995 10.7922 6.11558 10.7899 6.23745ZM9.1069 7.74058C9.13034 7.43433 9.09753 6.88745 9.09518 6.7062C9.08265 6.24006 9.0537 5.77497 9.00846 5.31245C8.98033 5.04995 9.08815 5.34057 9.07409 5.18745C9.03893 4.92807 8.9311 4.74995 8.80219 4.51557C8.74761 4.40857 8.67058 4.59126 8.6664 4.71131C8.66208 4.83535 8.69541 4.94126 8.70843 5.0562C8.79984 5.5937 8.85375 6.08745 8.87954 6.57808C8.8986 6.93801 8.90576 7.29881 8.90101 7.65944C8.89774 7.90826 9.06292 7.98549 9.1069 7.74058Z" fill="white"/>
<path fill-rule="evenodd" clip-rule="evenodd" d="M12.1728 7.24999C12.1733 7.24999 12.1736 7.24947 12.1734 7.24901C12.0117 6.88679 11.7706 6.49986 11.705 6.35311C11.4877 5.94845 11.2594 5.55444 11.0206 5.17186C10.8214 4.89061 11.1144 5.12499 10.9831 4.90624C10.8729 4.74686 10.8425 4.69374 10.7464 4.59686C10.6995 4.55624 10.6713 4.47811 10.6526 4.61249C10.6451 4.72888 10.6436 4.84581 10.6479 4.96249C10.6479 5.01561 10.6901 5.11874 10.7276 5.18124C11.179 5.92259 11.671 6.67746 12.0808 7.60186C12.129 7.71047 12.2088 7.70928 12.2097 7.59047C12.2106 7.44977 12.1944 7.28832 12.1721 7.25096C12.1718 7.25049 12.1722 7.24999 12.1728 7.24999Z" fill="white"/>
<path fill-rule="evenodd" clip-rule="evenodd" d="M4.87389 6.58445C4.87091 6.59159 4.86703 6.59913 4.86305 6.60697C4.83952 6.65331 4.85473 6.72195 4.90671 6.72195C4.95638 6.72195 4.99551 6.69067 4.99485 6.64099C4.99471 6.6307 4.99354 6.62007 4.99109 6.60945C4.96296 6.5157 4.88795 6.5532 4.87389 6.58445Z" fill="#165D31"/>
<path fill-rule="evenodd" clip-rule="evenodd" d="M10.2626 11.5905C10.393 11.5799 10.4565 11.8352 10.5869 11.8441C10.6586 11.849 10.7281 11.8553 10.8045 11.8655C10.8338 11.8694 10.8635 11.8697 10.8928 11.8656L11.0737 11.8405C11.213 11.823 11.2772 11.9736 11.3066 12.1092C11.3356 12.2427 11.3494 12.385 11.3086 12.5154C11.2758 12.6204 11.2108 12.6345 11.1346 12.6561C11.1226 12.6585 11.1117 12.6582 11.1018 12.6556C11.0183 12.6343 10.942 12.5765 10.8574 12.5598C10.8469 12.5577 10.8362 12.5557 10.8255 12.5551C10.7397 12.5498 10.6559 12.5493 10.5721 12.5405C10.5349 12.5368 10.5044 12.5385 10.4751 12.5411C10.3893 12.5487 10.3106 12.6479 10.2275 12.6249C10.1819 12.6157 10.1252 12.447 10.1372 12.3084C10.1379 12.3006 10.1453 12.2771 10.1479 12.2698C10.1667 12.2162 10.1169 12.1858 10.0602 12.1837C9.21224 12.1521 8.35899 12.1036 7.52957 12.1186C6.85451 12.1217 6.18882 12.1592 5.52078 12.1967C5.06873 12.1888 5.24144 11.7942 5.69354 11.7979C5.76735 11.7985 5.83025 11.7974 5.87472 11.7936C6.35524 11.7874 6.79591 11.7342 7.2858 11.7155C8.12946 11.7346 8.96775 11.737 9.81006 11.7977C9.92678 11.8062 10.0928 11.5694 10.1938 11.5102C10.2105 11.5004 10.2302 11.5015 10.2347 11.5204C10.2415 11.5491 10.2493 11.5925 10.2626 11.5905ZM6.51896 5.04599C6.48941 4.80182 6.37534 4.85066 6.37466 5.09662C6.37434 5.21433 6.3869 5.32718 6.40787 5.42785C6.47535 5.7519 6.82117 5.74177 6.87845 5.41576C6.8828 5.39103 6.88697 5.36583 6.89098 5.34035C6.89652 5.30518 6.91189 5.24385 6.93514 5.21689C6.97128 5.17498 6.97356 5.26269 6.97355 5.31803C6.97354 5.47305 6.97919 5.57793 6.99193 5.65684C7.01798 5.8182 7.13846 6.00284 7.29855 5.96987C7.37134 5.95487 7.42001 5.90218 7.42644 5.89362L7.56707 5.70299C7.62046 5.62674 7.70288 5.73722 7.7461 5.81966C7.76099 5.84806 7.7821 5.87601 7.81788 5.89987C7.89758 5.94362 8.064 5.91237 8.10385 5.82174C8.15541 5.69987 8.16948 5.65924 8.19292 5.61549C8.21353 5.57942 8.24194 5.57167 8.26334 5.57564C8.29049 5.58068 8.29034 5.61338 8.27953 5.63879C8.27428 5.65115 8.26918 5.66445 8.26705 5.67981C8.26148 5.7201 8.29887 5.77908 8.33435 5.7592C8.3527 5.74892 8.36643 5.7414 8.38086 5.7261C8.42 5.6846 8.45385 5.61143 8.47849 5.54653C8.51099 5.46089 8.52156 5.28589 8.4531 5.34674C8.40554 5.38969 8.3484 5.43253 8.2844 5.42941C8.25339 5.4279 8.2232 5.41427 8.20229 5.37174C8.16807 5.2901 8.16015 5.18079 8.14342 5.08491C8.13385 5.03001 8.11456 4.97641 8.10316 4.92186C8.10053 4.90927 8.09838 4.89642 8.09725 4.88431C8.09279 4.83615 8.13999 4.84261 8.18603 4.82777C8.21753 4.81762 8.22428 4.76799 8.22064 4.7351C8.2114 4.65149 8.14332 4.51633 8.09213 4.44049C8.03821 4.36237 7.96321 4.35299 7.89054 4.43424C7.83898 4.49674 7.84601 4.56549 7.83663 4.63112C7.82774 4.67814 7.82735 4.72732 7.8355 4.77458C7.8511 4.86502 7.90242 4.94514 7.93548 5.03075C7.96138 5.09785 7.98586 5.17395 7.99651 5.26143C8.01164 5.38563 7.97176 5.56731 7.84835 5.54674C7.8085 5.53737 7.74522 5.51549 7.7124 5.17799C7.69628 5.02168 7.70215 4.82382 7.68933 4.657C7.6762 4.48609 7.58042 4.21934 7.51551 4.37799C7.49676 4.44674 7.41472 4.54987 7.47332 4.75924C7.51234 4.89204 7.53193 5.03299 7.53147 5.17455C7.53108 5.2929 7.49993 5.41131 7.43347 5.50924C7.37252 5.60299 7.30455 5.57799 7.25298 5.54362C7.13374 5.44028 7.14772 5.26111 7.14961 5.10334C7.15178 4.92229 7.14955 4.73857 7.12875 4.68737C7.08422 4.56862 7.01155 4.61237 6.98108 4.64987C6.84165 4.85638 6.74828 5.11074 6.71152 5.38424C6.6763 5.53556 6.56098 5.36828 6.53998 5.21434C6.53266 5.16071 6.52584 5.10277 6.51896 5.04599Z" fill="white"/>
<path fill-rule="evenodd" clip-rule="evenodd" d="M6.82099 6.03556C6.834 5.96789 6.84991 5.88548 6.91862 5.88027C6.98374 5.87533 7.0104 5.99574 7.03357 6.05679C7.13822 6.33253 7.19927 6.63442 7.21259 6.94369C7.2072 7.03719 7.27117 6.99886 7.32425 6.9217C7.41834 6.78495 7.62406 6.64489 7.83522 6.5892C7.90492 6.57081 7.97076 6.55468 7.97181 6.4826C7.9728 6.41473 7.96646 6.33435 7.97235 6.26673C7.97628 6.22154 7.98521 6.1783 7.99839 6.13844C8.07133 5.91794 8.41134 5.89597 8.49851 6.11124C8.52539 6.17761 8.53749 6.25782 8.53928 6.34994C8.5148 6.79505 8.18386 6.88794 7.97594 6.92828C7.95466 6.93241 7.92958 6.93566 7.9182 6.9541C7.90063 6.98256 7.96128 6.99069 7.99472 6.99093L8.7789 6.99665C8.79382 6.99675 8.80835 7.0014 8.82056 7.00997C8.83702 7.02152 8.84928 7.041 8.83441 7.05454C8.82619 7.06202 8.81425 7.07551 8.79946 7.10931C8.70966 7.31963 8.58285 7.53085 8.36087 7.58582C8.28572 7.60442 8.21006 7.62006 8.13406 7.63442C7.99654 7.66039 7.82708 7.70001 7.80225 7.83775C7.79792 7.86177 7.79813 7.88675 7.80327 7.91244C7.81938 7.96306 7.87728 8.01443 7.93207 8.05399C7.99923 8.10249 8.07014 8.11634 8.08557 8.19773C8.10425 8.29626 7.96724 8.39266 7.86897 8.37264C7.57626 8.31301 7.34398 8.14275 7.22339 7.91049C7.18587 7.83823 7.11978 7.76879 7.08133 7.84056C6.91725 8.12181 6.75786 8.37181 6.47893 8.50931C6.31485 8.56556 6.14374 8.47494 6.06404 8.33119C5.99819 8.22812 5.92023 8.18018 5.81253 8.23815C5.62955 8.33664 5.36574 8.46928 5.26243 8.47641C5.20321 8.4805 5.24365 8.39677 5.28157 8.3511C5.43035 8.17188 5.64051 8.01939 5.84843 7.84903C5.96843 7.75072 6.03911 7.61092 6.07794 7.46073C6.08086 7.44944 6.08393 7.43811 6.08716 7.42684C6.1317 7.27121 6.18087 7.29439 6.18593 7.45619C6.18593 7.50946 6.21069 7.50644 6.24734 7.46777C6.32611 7.38468 6.466 7.22929 6.54078 7.12017C6.57899 7.0644 6.60706 6.98159 6.6056 6.914C6.6037 6.82634 6.58796 6.75513 6.54913 6.67651C6.49251 6.56185 6.43173 6.53101 6.40626 6.44369C6.39531 6.39088 6.39011 6.33523 6.39088 6.2833C6.39308 6.1368 6.54383 5.98171 6.63832 6.09369C6.70394 6.17243 6.7614 6.32195 6.78402 6.44062C6.78715 6.45704 6.79096 6.47702 6.77458 6.48036C6.71472 6.49257 6.69687 6.49321 6.71947 6.54997C6.73808 6.59671 6.75109 6.6473 6.75786 6.69994C6.80474 6.95619 6.79067 7.05619 6.74379 7.22181C6.62162 7.56484 6.47314 7.71688 6.33067 7.84569C6.25877 7.91069 6.19835 7.99548 6.24677 8.07945C6.25781 8.09861 6.28146 8.12597 6.30194 8.13434C6.31923 8.1414 6.34257 8.14556 6.37002 8.14512C6.45614 8.14372 6.53166 8.09124 6.59536 8.03326C6.66135 7.9732 6.72279 7.90518 6.77895 7.83021C6.97982 7.5621 7.05225 7.21508 7.00076 6.88405C6.99075 6.81974 6.97775 6.75616 6.96178 6.69369C6.89381 6.48431 6.81411 6.18744 6.81411 6.18119C6.81293 6.11513 6.81413 6.07124 6.82099 6.03556ZM4.61546 4.73431C4.71391 4.79681 4.90143 4.76869 4.89205 4.55619C4.88894 4.49184 4.85674 4.38641 4.8168 4.43696C4.80944 4.44627 4.80361 4.4591 4.80064 4.47494C4.79123 4.51883 4.7596 4.54812 4.7546 4.50351C4.75406 4.49865 4.75376 4.4933 4.75376 4.48744C4.75376 4.46869 4.74438 4.44994 4.73735 4.43744C4.73266 4.43119 4.72797 4.43119 4.71625 4.43119C4.6955 4.43119 4.69262 4.46018 4.68963 4.48072C4.68874 4.48682 4.68813 4.49317 4.68813 4.49994C4.68813 4.51579 4.6832 4.52343 4.67693 4.52763C4.67232 4.53072 4.66509 4.53155 4.65957 4.53095C4.64894 4.52978 4.64183 4.52065 4.63736 4.51093C4.63551 4.50691 4.63422 4.50174 4.63422 4.49369L4.62933 4.45898C4.62791 4.44885 4.62532 4.43812 4.61718 4.43194C4.60909 4.42579 4.59824 4.42402 4.58867 4.42745C4.5808 4.43027 4.57436 4.43532 4.56912 4.44181C4.5278 4.49307 4.54158 4.57863 4.55753 4.6425C4.56681 4.67967 4.58419 4.71683 4.61546 4.73431Z" fill="white"/>
<path fill-rule="evenodd" clip-rule="evenodd" d="M7.51222 6.3656C7.51192 6.3656 7.51179 6.36599 7.51205 6.36615C7.60871 6.42645 7.8353 6.39469 7.79138 6.20448C7.78925 6.19528 7.78754 6.18583 7.7871 6.1764L7.78563 6.145C7.78393 6.10891 7.78409 6.05841 7.74861 6.05158C7.72687 6.0474 7.70358 6.06886 7.69635 6.10935C7.68595 6.15094 7.65307 6.17916 7.64969 6.13642C7.64934 6.13199 7.64925 6.12714 7.64947 6.12185C7.64947 6.11186 7.64681 6.10098 7.64325 6.0911C7.63784 6.07606 7.62561 6.06247 7.60962 6.06247C7.5979 6.06247 7.5979 6.06872 7.59087 6.08435C7.58618 6.09997 7.58384 6.1156 7.58384 6.13435C7.58262 6.14406 7.58015 6.15042 7.57642 6.15516C7.56938 6.16411 7.55665 6.16939 7.54877 6.16117C7.5465 6.1588 7.54303 6.15488 7.54088 6.1524C7.53502 6.14564 7.52993 6.1414 7.52993 6.1281L7.52505 6.09339C7.52362 6.08326 7.52103 6.07253 7.51289 6.06635C7.5048 6.0602 7.49397 6.05846 7.48436 6.06177C7.44905 6.07398 7.44233 6.12936 7.44275 6.16119C7.44284 6.16823 7.44256 6.17537 7.44242 6.18241C7.44174 6.21807 7.44903 6.33202 7.51236 6.36501C7.51265 6.36516 7.51255 6.3656 7.51222 6.3656ZM9.19993 5.6906C9.19961 5.6906 9.19949 5.69101 9.19976 5.69118C9.29843 5.75292 9.48244 5.72432 9.47543 5.5156C9.47232 5.44926 9.43582 5.34126 9.39795 5.39582C9.39167 5.40486 9.38672 5.41679 9.38401 5.43122C9.37409 5.47753 9.33898 5.50222 9.33712 5.4549C9.33698 5.4514 9.33698 5.44768 9.33713 5.44372C9.33713 5.43434 9.33479 5.42497 9.33156 5.41637C9.32572 5.40079 9.31392 5.38747 9.29729 5.38747C9.2765 5.38747 9.27697 5.41977 9.27389 5.44033L9.2715 5.45622C9.26916 5.4781 9.26213 5.48747 9.25041 5.48747C9.23687 5.48747 9.22451 5.47746 9.21952 5.46488C9.21831 5.46182 9.21759 5.4581 9.21759 5.4531C9.21759 5.43747 9.21525 5.41247 9.21056 5.39997C9.20196 5.38279 9.17528 5.38152 9.16006 5.39326C9.13535 5.41232 9.13013 5.45757 9.13041 5.48548C9.13048 5.49299 9.13018 5.50064 9.13007 5.50815C9.12954 5.54421 9.13724 5.65473 9.20008 5.68999C9.20037 5.69015 9.20026 5.6906 9.19993 5.6906ZM10.0979 7.90568C10.0088 7.54544 9.93943 7.56071 9.97041 7.93053C9.97972 8.04163 10.0011 8.13151 10.0169 8.16872C10.0326 8.21053 10.0473 8.2482 10.0629 8.28243C10.1369 8.44567 10.3568 8.61213 10.4505 8.45935C10.5061 8.38183 10.5317 8.23785 10.5514 8.11272C10.5749 7.9634 10.6734 7.71509 10.7576 7.8406C10.8266 7.9712 10.9478 8.11717 11.0946 8.10055C11.1363 8.09583 11.179 8.07543 11.2217 8.03747C11.2967 7.9781 11.3459 7.90622 11.3905 7.75935C11.4373 7.58435 11.4139 6.77185 11.4022 6.2906L11.3306 5.80215C11.3127 5.68003 11.302 5.55679 11.2957 5.43352C11.2917 5.35619 11.2867 5.27545 11.2816 5.2368C11.2808 5.23094 11.2802 5.21984 11.2799 5.21394C11.2784 5.18631 11.3036 5.20584 11.3262 5.22176C11.3281 5.22308 11.33 5.22423 11.332 5.22536C11.3396 5.22952 11.3487 5.23351 11.3559 5.22875C11.3741 5.21664 11.3875 5.1692 11.3741 5.1281L11.1613 4.60049C11.1469 4.56488 11.1394 4.51686 11.101 4.51915C11.0723 4.52088 11.0542 4.56367 11.0406 4.58903C11.0335 4.60209 11.0275 4.61615 11.0227 4.63097C11.013 4.6606 11.0081 4.69265 11.0084 4.72497C11.0154 4.86247 11.0318 5.0031 11.0389 5.1406L11.1326 5.84685C11.1631 6.34685 11.1701 6.75935 11.2006 7.26247C11.1965 7.44709 11.1588 7.61049 11.1183 7.66862C11.1081 7.68317 11.1071 7.68357 11.0919 7.69266C11.0328 7.72795 10.9576 7.65577 10.9238 7.5958C10.9056 7.5636 10.8861 7.52643 10.8684 7.49175C10.8281 7.41264 10.7758 7.28427 10.696 7.32327C10.6778 7.3322 10.6604 7.34941 10.6427 7.37185C10.5021 7.5531 10.4411 7.88435 10.345 8.1156C10.2878 8.24536 10.1352 8.05141 10.1 7.91401C10.0993 7.91124 10.0986 7.90846 10.0979 7.90568ZM9.24337 4.45796C9.24337 4.45881 9.24383 4.45958 9.24458 4.45999C9.33299 4.50839 9.39331 4.74738 9.37464 4.8656C9.35589 5.00622 9.30901 5.16247 9.27619 5.14372C9.23869 5.12497 9.29963 4.99997 9.26447 4.86872C9.2505 4.80353 9.17928 4.70018 9.14969 4.63363C9.13517 4.60096 9.129 4.56221 9.1351 4.52698C9.14509 4.46927 9.19942 4.44455 9.24171 4.45576C9.2427 4.45602 9.24337 4.45693 9.24337 4.45796Z" fill="white"/>
<path fill-rule="evenodd" clip-rule="evenodd" d="M10.359 7.53118C10.3754 7.24368 10.3449 7.06868 10.3403 6.89993C10.3356 6.73118 10.1973 5.44368 10.1691 5.31868C10.1433 5.13937 10.2544 5.05719 10.179 4.89248C10.1226 4.76943 10.0637 4.64495 10.0379 4.55618C9.99419 4.4591 9.94389 4.59204 9.92576 4.69695C9.90072 4.84194 9.89415 4.99192 9.90662 5.14056C10.0277 5.98185 10.1505 6.70374 10.1744 7.47632C10.1824 7.73417 10.3157 7.78549 10.359 7.53118ZM11.819 4.86659C11.8583 4.85049 11.8883 4.87713 11.9087 4.91438C11.9654 5.0181 11.9958 5.23361 11.9881 5.30306C11.9717 5.45931 11.9295 5.62806 11.899 5.60618C11.8638 5.58743 11.906 5.37493 11.8896 5.30931C11.8797 5.25966 11.8441 5.18897 11.8146 5.12602C11.7762 5.04413 11.7353 4.90088 11.819 4.86659ZM5.87579 6.98743C5.87558 6.98743 5.87549 6.98771 5.87568 6.98781C5.95261 7.02939 5.99918 7.247 5.99217 7.30931C5.98353 7.36261 5.9704 7.4179 5.95578 7.46018C5.93484 7.52071 5.88812 7.50253 5.8932 7.43869C5.89336 7.43669 5.89353 7.43468 5.89369 7.43266C5.90031 7.35271 5.89948 7.26731 5.85528 7.20036C5.82339 7.15206 5.78445 7.11717 5.78354 7.087C5.78348 7.08521 5.78336 7.08336 5.78303 7.0816C5.76626 6.99122 5.82953 6.97538 5.87584 6.98705C5.87607 6.98711 5.87602 6.98743 5.87579 6.98743Z" fill="white"/>
<path fill-rule="evenodd" clip-rule="evenodd" d="M7.74077 7.31861C7.83921 7.32486 7.88844 7.43111 7.79702 7.47486C7.72904 7.50432 7.66476 7.53049 7.63365 7.60936C7.6049 7.68226 7.6672 7.84324 7.60591 7.89207C7.52687 7.95504 7.47868 7.82509 7.41673 7.74525C7.35703 7.66832 7.29526 7.55425 7.28135 7.38736C7.2771 7.26849 7.43996 7.28361 7.55811 7.29729C7.61813 7.30424 7.68133 7.30964 7.74077 7.31861Z" fill="#165D31"/>
<path fill-rule="evenodd" clip-rule="evenodd" d="M3.81412 4.38753C3.92664 4.43128 3.93367 4.65628 3.92663 4.7219C3.91023 4.84065 3.87038 4.96878 3.84225 4.95315C3.80944 4.93753 3.84225 4.77503 3.82584 4.72503C3.8203 4.70179 3.80565 4.67142 3.78905 4.63994C3.73769 4.54255 3.71024 4.35108 3.81412 4.38753ZM6.062 5.43753C5.97293 5.50003 5.94011 5.68753 5.99402 5.80003C6.00307 5.81647 6.01298 5.82897 6.02322 5.83841C6.08149 5.89209 6.18404 5.85824 6.22116 5.78824C6.24223 5.74852 6.25734 5.70136 6.26562 5.672C6.27089 5.65331 6.27297 5.62286 6.25454 5.62894C6.2468 5.63149 6.23581 5.63851 6.22021 5.65318C6.18828 5.68321 6.13795 5.71828 6.1224 5.6773C6.11826 5.6664 6.11473 5.65365 6.11322 5.64209C6.10611 5.58789 6.11107 5.53196 6.12763 5.48128C6.14404 5.42503 6.11122 5.40003 6.062 5.43753ZM6.71721 4.30003C6.71759 4.30003 6.7178 4.30048 6.71751 4.30073C6.67045 4.34204 6.58469 4.46331 6.58236 4.60003C6.57972 4.68821 6.64035 4.79226 6.71258 4.74161C6.71446 4.7403 6.71637 4.73894 6.71831 4.73753C6.73233 4.72576 6.74436 4.71024 6.75364 4.69195C6.76292 4.67366 6.76925 4.653 6.77223 4.63128C6.78629 4.54378 6.70191 4.67503 6.69253 4.57503C6.67447 4.48473 6.72382 4.44662 6.77356 4.36574C6.77734 4.35959 6.77927 4.35246 6.77924 4.34524C6.77903 4.28953 6.77549 4.25636 6.71701 4.29927C6.71669 4.2995 6.71682 4.30003 6.71721 4.30003ZM7.24337 4.42503C7.2227 4.53882 7.21014 4.65496 7.20586 4.7719C7.1918 4.8594 7.27618 4.8969 7.31134 4.7844C7.32333 4.74111 7.33277 4.70307 7.34024 4.66919C7.3778 4.49882 7.29399 4.25808 7.24337 4.42503ZM10.5705 6.6844C10.5713 6.6844 10.5718 6.68431 10.5723 6.68369C10.5884 6.66315 10.894 6.37324 11.0027 6.27032C11.0279 6.2464 11.0522 6.21987 11.0634 6.25284C11.1008 6.36377 11.0117 6.51488 10.9318 6.6005C10.8301 6.70958 10.7197 6.80388 10.6026 6.88168C10.5807 6.89622 10.5562 6.90042 10.5505 6.87476C10.5394 6.82387 10.5385 6.72284 10.5688 6.6852C10.5692 6.68468 10.5699 6.6844 10.5705 6.6844ZM10.9876 6.67815C10.9873 6.67815 10.9872 6.67848 10.9874 6.67862C11.0689 6.7331 11.1015 7.04715 11.0922 7.13128C11.0922 7.30003 11.0148 7.43128 10.982 7.41253C10.9492 7.39065 10.9867 7.20315 10.9703 7.13753C10.9524 7.04821 10.8899 6.88796 10.8941 6.82978C10.8945 6.8245 10.8946 6.8192 10.8937 6.81399C10.8753 6.71381 10.9376 6.66086 10.9877 6.67767C10.9879 6.67776 10.9879 6.67815 10.9876 6.67815ZM8.25596 8.10315C8.24514 8.05506 8.28023 8.01261 8.31078 7.97392C8.33794 7.93953 8.36744 7.90851 8.39895 7.88128C8.42179 7.86605 8.47977 7.97412 8.47439 8.00104C8.46872 8.02944 8.46414 8.05999 8.46873 8.0961C8.46906 8.0987 8.46965 8.10128 8.47038 8.1038C8.47189 8.10897 8.47338 8.11425 8.47503 8.11939C8.49026 8.167 8.54612 8.13365 8.58852 8.10715C8.63997 8.07499 8.68995 8.07105 8.74117 8.06878C8.85031 8.0746 8.70866 8.21008 8.61185 8.26082C8.59468 8.26982 8.57832 8.27901 8.56192 8.28828C8.50564 8.32009 8.39192 8.38656 8.39192 8.3219C8.39192 8.31878 8.36613 8.28753 8.38254 8.20628C8.38348 8.19379 8.38348 8.1823 8.38254 8.17196C8.37702 8.11087 8.27359 8.16191 8.25596 8.10315ZM11.4696 8.20206C11.4696 8.20278 11.4698 8.20348 11.4701 8.20409C11.4857 8.23013 11.4976 8.25635 11.4803 8.2972C11.473 8.31434 11.4611 8.32897 11.4489 8.34304L11.4371 8.35661C11.3996 8.39991 11.3469 8.45671 11.3775 8.50516C11.383 8.51384 11.3915 8.52087 11.4039 8.52503C11.4667 8.54826 11.5916 8.4592 11.6516 8.41071C11.6738 8.39272 11.7049 8.35772 11.7081 8.32929C11.712 8.29457 11.6881 8.26966 11.6532 8.27199C11.6457 8.27249 11.6381 8.2732 11.6309 8.27327C11.6202 8.27338 11.6093 8.27257 11.599 8.26976C11.5886 8.2669 11.5771 8.2605 11.5732 8.24668C11.5663 8.22228 11.5842 8.19858 11.5945 8.1754C11.6026 8.15738 11.6094 8.13844 11.6149 8.11878C11.6364 8.04985 11.532 8.02328 11.4604 8.03238C11.4552 8.03303 11.4497 8.03372 11.4438 8.0344C11.4197 8.03975 11.4094 8.05423 11.4025 8.08761C11.4 8.09995 11.399 8.11268 11.4008 8.12516C11.4078 8.17688 11.4368 8.17745 11.4679 8.19885C11.4689 8.19958 11.4696 8.20079 11.4696 8.20206Z" fill="white"/>
<path fill-rule="evenodd" clip-rule="evenodd" d="M8.28379 6.42804C8.27207 6.45929 8.22988 6.45929 8.19003 6.42804C8.15019 6.39679 8.12675 6.34679 8.14081 6.31866C8.15487 6.29054 8.19472 6.29054 8.23457 6.31866C8.27442 6.34679 8.29551 6.39991 8.28379 6.42804ZM6.19645 4.75464C6.19679 4.75419 6.1963 4.75354 6.19576 4.75371C6.17247 4.7609 6.14102 4.73312 6.12733 4.69054C6.11327 4.64679 6.1203 4.60929 6.14374 4.59991C6.16718 4.59054 6.19765 4.62179 6.21406 4.66241C6.23009 4.7021 6.22151 4.74477 6.19707 4.75546C6.19656 4.75568 6.19611 4.75509 6.19645 4.75464Z" fill="#165D31"/>
<path fill-rule="evenodd" clip-rule="evenodd" d="M10.3014 12.2598C10.3098 12.2228 10.3459 12.22 10.3838 12.2215C10.5365 12.2275 10.6835 12.2235 10.8335 12.2277C10.9211 12.2302 11.0145 12.286 10.9774 12.3653C10.9752 12.37 10.9728 12.374 10.9704 12.3771C10.9634 12.3858 10.9506 12.3841 10.9395 12.3835L10.8976 12.3814C10.8275 12.3778 10.751 12.3064 10.681 12.311C10.6125 12.3156 10.5456 12.3869 10.477 12.3829C10.4577 12.3818 10.4385 12.3801 10.419 12.3782C10.3548 12.3718 10.2871 12.3228 10.3014 12.2598Z" fill="#165D31"/>
</g>
</svg>
