<svg width="12" height="13" viewBox="0 0 12 13" fill="none" xmlns="http://www.w3.org/2000/svg">
<path d="M1.65012 11.8751C1.47012 11.8751 1.29511 11.8301 1.14511 11.7401C0.810111 11.5451 0.620117 11.1551 0.620117 10.6701V4.99007C0.620117 3.92507 1.48511 3.06006 2.55011 3.06006H6.44012C7.50512 3.06006 8.37012 3.92507 8.37012 4.99007V10.6701C8.37012 11.1551 8.18012 11.5401 7.84512 11.7401C7.51012 11.9351 7.08012 11.9151 6.65512 11.6801L4.69012 10.5851C4.59512 10.5301 4.39511 10.5301 4.30011 10.5851L2.33511 11.6801C2.10511 11.8101 1.87012 11.8751 1.65012 11.8751ZM2.55511 3.81506C1.90511 3.81506 1.37512 4.34506 1.37512 4.99506V10.6751C1.37512 10.8801 1.43512 11.0401 1.53012 11.0951C1.62512 11.1501 1.79513 11.1251 1.97513 11.0251L3.94012 9.93005C4.26012 9.75505 4.74012 9.75505 5.06012 9.93005L7.02512 11.0251C7.20512 11.1251 7.37012 11.1501 7.47012 11.0951C7.56512 11.0401 7.62512 10.8801 7.62512 10.6751V4.99506C7.62512 4.34506 7.09513 3.81506 6.44513 3.81506H2.55511Z" fill="#292D32"/>
<path d="M7.345 11.8751C7.125 11.8751 6.895 11.8101 6.66 11.6851L4.69501 10.5901C4.60001 10.5401 4.39499 10.5401 4.29999 10.5901L2.34 11.6851C1.915 11.9201 1.47999 11.9401 1.14999 11.7451C0.814994 11.5501 0.625 11.1601 0.625 10.6801V5.00006C0.625 3.93506 1.48999 3.07007 2.55499 3.07007H6.44501C7.51001 3.07007 8.375 3.93506 8.375 5.00006V10.6801C8.375 11.1601 8.18501 11.5501 7.85001 11.7451C7.70001 11.8301 7.53 11.8751 7.345 11.8751ZM4.5 9.80006C4.7 9.80006 4.895 9.84506 5.06 9.93506L7.02499 11.0301C7.20499 11.1301 7.375 11.1551 7.47 11.0951C7.565 11.0401 7.625 10.8801 7.625 10.6751V4.99506C7.625 4.34506 7.09501 3.81506 6.44501 3.81506H2.55499C1.90499 3.81506 1.375 4.34506 1.375 4.99506V10.6751C1.375 10.8801 1.435 11.0401 1.53 11.0951C1.625 11.1501 1.79501 11.1251 1.97501 11.0251L3.94 9.93005C4.1 9.84505 4.3 9.80006 4.5 9.80006Z" fill="#292D32"/>
<path d="M10.345 9.93488C10.125 9.93488 9.895 9.86987 9.66 9.74487L7.815 8.71487C7.695 8.64987 7.625 8.52488 7.625 8.38988V4.99988C7.625 4.34988 7.09501 3.81989 6.44501 3.81989H4C3.795 3.81989 3.625 3.64989 3.625 3.44489V3.05988C3.625 1.99488 4.48999 1.12988 5.55499 1.12988H9.44501C10.51 1.12988 11.375 1.99488 11.375 3.05988V8.73988C11.375 9.21988 11.185 9.60987 10.85 9.80487C10.7 9.88987 10.53 9.93488 10.345 9.93488ZM8.375 8.16487L10.025 9.08987C10.205 9.18987 10.37 9.21488 10.47 9.15488C10.57 9.09488 10.625 8.93988 10.625 8.73488V3.05487C10.625 2.40487 10.095 1.87488 9.44501 1.87488H5.55499C4.90499 1.87488 4.375 2.40487 4.375 3.05487V3.06488H6.44501C7.51001 3.06488 8.375 3.92987 8.375 4.99487V8.16487Z" fill="#292D32"/>
</svg>
