<svg width="12" height="13" viewBox="0 0 12 13" fill="none" xmlns="http://www.w3.org/2000/svg">
<path d="M3.73062 10.1699H2.7706C1.3006 10.0649 0.640625 8.93492 0.640625 7.92992C0.640625 6.92492 1.30061 5.78992 2.74561 5.68992C2.95061 5.66992 3.1306 5.82992 3.1456 6.03992C3.1606 6.24492 3.00562 6.42492 2.79562 6.43992C1.82562 6.50992 1.39062 7.23992 1.39062 7.93492C1.39062 8.62992 1.82562 9.35992 2.79562 9.42992H3.73062C3.93562 9.42992 4.10562 9.59992 4.10562 9.80492C4.10562 10.0099 3.93562 10.1699 3.73062 10.1699Z" fill="#292D32"/>
<path d="M8.33544 10.17C8.32544 10.17 8.32044 10.17 8.31044 10.17C8.10544 10.17 7.91545 10 7.91545 9.795C7.91545 9.58 8.07545 9.42 8.28545 9.42C8.90045 9.42 9.45045 9.205 9.88045 8.82C10.6604 8.14 10.7104 7.16 10.5004 6.47C10.2904 5.785 9.70544 5 8.68544 4.875C8.52044 4.855 8.39043 4.73 8.36043 4.565C8.16043 3.365 7.51545 2.535 6.53545 2.235C5.52545 1.92 4.34543 2.23 3.61043 3C2.89543 3.745 2.73043 4.79 3.14543 5.94C3.21543 6.135 3.11546 6.35 2.92046 6.42C2.72546 6.49 2.51045 6.39 2.44045 6.195C1.93545 4.785 2.16545 3.435 3.07045 2.485C3.99545 1.515 5.48045 1.13 6.75545 1.52C7.92545 1.88 8.75043 2.845 9.05043 4.185C10.0704 4.415 10.8904 5.19 11.2154 6.26C11.5704 7.425 11.2504 8.625 10.3754 9.385C9.82045 9.885 9.09544 10.17 8.33544 10.17Z" fill="#292D32"/>
<path d="M6 11.6401C4.995 11.6401 4.05501 11.1051 3.54001 10.2401C3.48501 10.1551 3.43001 10.0551 3.38501 9.94514C3.21501 9.59014 3.125 9.18514 3.125 8.76514C3.125 7.18014 4.415 5.89014 6 5.89014C7.585 5.89014 8.875 7.18014 8.875 8.76514C8.875 9.19014 8.78501 9.59014 8.60501 9.96014C8.56501 10.0551 8.51001 10.1551 8.45001 10.2501C7.94501 11.1051 7.005 11.6401 6 11.6401ZM6 6.64014C4.83 6.64014 3.875 7.59514 3.875 8.76514C3.875 9.07514 3.94 9.36513 4.065 9.63013C4.105 9.71513 4.13999 9.78514 4.17999 9.85014C4.55999 10.4951 5.255 10.8901 5.995 10.8901C6.735 10.8901 7.42999 10.4951 7.80499 9.86014C7.84999 9.78514 7.89001 9.71513 7.92001 9.64513C8.05501 9.37013 8.12 9.08013 8.12 8.77013C8.125 7.59513 7.17 6.64014 6 6.64014Z" fill="#292D32"/>
<path d="M5.71446 9.63492C5.61946 9.63492 5.52448 9.59992 5.44948 9.52492L4.95445 9.02992C4.80945 8.88492 4.80945 8.64492 4.95445 8.49992C5.09945 8.35492 5.33945 8.35492 5.48445 8.49992L5.72447 8.73992L6.52446 7.99992C6.67946 7.85992 6.91446 7.86992 7.05446 8.01992C7.19446 8.16992 7.18447 8.40992 7.03447 8.54992L5.96947 9.53492C5.89447 9.59992 5.80446 9.63492 5.71446 9.63492Z" fill="#292D32"/>
</svg>
