<svg width="12" height="13" viewBox="0 0 12 13" fill="none" xmlns="http://www.w3.org/2000/svg">
<path d="M10.4998 3.86499C10.4898 3.86499 10.4748 3.86499 10.4598 3.86499C7.81484 3.59999 5.17484 3.49999 2.55984 3.76499L1.53984 3.86499C1.32984 3.88499 1.14484 3.73499 1.12484 3.52499C1.10484 3.31499 1.25484 3.13499 1.45984 3.11499L2.47984 3.01499C5.13984 2.74499 7.83484 2.84999 10.5348 3.11499C10.7398 3.13499 10.8898 3.31999 10.8698 3.52499C10.8548 3.71999 10.6898 3.86499 10.4998 3.86499Z" fill="#F00101"/>
<path d="M4.25037 3.36C4.23037 3.36 4.21037 3.36 4.18537 3.355C3.98537 3.32 3.84537 3.125 3.88037 2.925L3.99037 2.27C4.07037 1.79 4.18037 1.125 5.34537 1.125H6.65537C7.82537 1.125 7.93537 1.815 8.01037 2.275L8.12037 2.925C8.15537 3.13 8.01537 3.325 7.81537 3.355C7.61037 3.39 7.41537 3.25 7.38537 3.05L7.27537 2.4C7.20537 1.965 7.19037 1.88 6.66037 1.88H5.35037C4.82037 1.88 4.81037 1.95 4.73537 2.395L4.62037 3.045C4.59037 3.23 4.43037 3.36 4.25037 3.36Z" fill="#F00101"/>
<path d="M7.60519 11.875H4.39519C2.65019 11.875 2.58019 10.91 2.52519 10.13L2.20019 5.09504C2.18519 4.89004 2.34519 4.71004 2.55019 4.69504C2.76019 4.68504 2.93519 4.84004 2.95019 5.04504L3.27519 10.08C3.33019 10.84 3.35019 11.125 4.39519 11.125H7.60519C8.65519 11.125 8.67519 10.84 8.72519 10.08L9.05019 5.04504C9.06519 4.84004 9.24519 4.68504 9.45019 4.69504C9.65519 4.71004 9.81519 4.88504 9.80019 5.09504L9.47519 10.13C9.42019 10.91 9.35019 11.875 7.60519 11.875Z" fill="#F00101"/>
<path d="M6.83004 9.125H5.16504C4.96004 9.125 4.79004 8.955 4.79004 8.75C4.79004 8.545 4.96004 8.375 5.16504 8.375H6.83004C7.03504 8.375 7.20504 8.545 7.20504 8.75C7.20504 8.955 7.03504 9.125 6.83004 9.125Z" fill="#F00101"/>
<path d="M7.25 7.125H4.75C4.545 7.125 4.375 6.955 4.375 6.75C4.375 6.545 4.545 6.375 4.75 6.375H7.25C7.455 6.375 7.625 6.545 7.625 6.75C7.625 6.955 7.455 7.125 7.25 7.125Z" fill="#F00101"/>
</svg>
