<svg width="12" height="13" viewBox="0 0 12 13" fill="none" xmlns="http://www.w3.org/2000/svg">
<path d="M7.5 11.875H4.5C1.785 11.875 0.625 10.715 0.625 8V5C0.625 2.285 1.785 1.125 4.5 1.125H5.5C5.705 1.125 5.875 1.295 5.875 1.5C5.875 1.705 5.705 1.875 5.5 1.875H4.5C2.195 1.875 1.375 2.695 1.375 5V8C1.375 10.305 2.195 11.125 4.5 11.125H7.5C9.805 11.125 10.625 10.305 10.625 8V7C10.625 6.795 10.795 6.625 11 6.625C11.205 6.625 11.375 6.795 11.375 7V8C11.375 10.715 10.215 11.875 7.5 11.875Z" fill="#292D32"/>
<path d="M4.24967 9.34503C3.94467 9.34503 3.66467 9.23503 3.45967 9.03503C3.21467 8.79003 3.10967 8.43503 3.16467 8.06003L3.37967 6.55503C3.41967 6.26503 3.60967 5.89003 3.81467 5.68503L7.75467 1.74503C8.74967 0.750029 9.75967 0.750029 10.7547 1.74503C11.2997 2.29003 11.5447 2.84503 11.4947 3.40003C11.4497 3.85003 11.2097 4.29003 10.7547 4.74003L6.81467 8.68003C6.60967 8.88503 6.23467 9.07503 5.94467 9.11503L4.43967 9.33003C4.37467 9.34503 4.30967 9.34503 4.24967 9.34503ZM8.28467 2.27503L4.34467 6.21503C4.24967 6.31003 4.13967 6.53003 4.11967 6.66003L3.90467 8.16503C3.88467 8.31003 3.91467 8.43003 3.98967 8.50503C4.06467 8.58003 4.18467 8.61003 4.32967 8.59003L5.83467 8.37503C5.96467 8.35503 6.18967 8.24503 6.27967 8.15003L10.2197 4.21003C10.5447 3.88503 10.7147 3.59503 10.7397 3.32503C10.7697 3.00003 10.5997 2.65503 10.2197 2.27003C9.41967 1.47003 8.86967 1.69503 8.28467 2.27503Z" fill="#292D32"/>
<path d="M9.92478 5.41489C9.88978 5.41489 9.85478 5.40989 9.82478 5.39989C8.50978 5.02989 7.46478 3.98489 7.09478 2.66989C7.03978 2.46989 7.15478 2.26489 7.35478 2.20489C7.55478 2.14989 7.75978 2.26489 7.81478 2.46489C8.11478 3.52989 8.95978 4.37489 10.0248 4.67489C10.2248 4.72989 10.3398 4.93989 10.2848 5.13989C10.2398 5.30989 10.0898 5.41489 9.92478 5.41489Z" fill="#292D32"/>
</svg>
