<svg width="12" height="13" viewBox="0 0 12 13" fill="none" xmlns="http://www.w3.org/2000/svg">
<path d="M5.55 11.875H3.45C1.495 11.875 0.625 11.005 0.625 9.05V6.95C0.625 4.995 1.495 4.125 3.45 4.125H5.55C7.505 4.125 8.375 4.995 8.375 6.95V9.05C8.375 11.005 7.505 11.875 5.55 11.875ZM3.45 4.875C1.9 4.875 1.375 5.4 1.375 6.95V9.05C1.375 10.6 1.9 11.125 3.45 11.125H5.55C7.1 11.125 7.625 10.6 7.625 9.05V6.95C7.625 5.4 7.1 4.875 5.55 4.875H3.45Z" fill="#292D32"/>
<path d="M8.55 8.875H8C7.795 8.875 7.625 8.705 7.625 8.5V6.95C7.625 5.4 7.1 4.875 5.55 4.875H4C3.795 4.875 3.625 4.705 3.625 4.5V3.95C3.625 1.995 4.495 1.125 6.45 1.125H8.55C10.505 1.125 11.375 1.995 11.375 3.95V6.05C11.375 8.005 10.505 8.875 8.55 8.875ZM8.375 8.125H8.55C10.1 8.125 10.625 7.6 10.625 6.05V3.95C10.625 2.4 10.1 1.875 8.55 1.875H6.45C4.9 1.875 4.375 2.4 4.375 3.95V4.125H5.55C7.505 4.125 8.375 4.995 8.375 6.95V8.125Z" fill="#292D32"/>
</svg>
