<svg width="12" height="13" viewBox="0 0 12 13" fill="none" xmlns="http://www.w3.org/2000/svg">
<path d="M5.99996 8.66496C4.80496 8.66496 3.83496 7.69496 3.83496 6.49996C3.83496 5.30496 4.80496 4.33496 5.99996 4.33496C7.19496 4.33496 8.16496 5.30496 8.16496 6.49996C8.16496 7.69496 7.19496 8.66496 5.99996 8.66496ZM5.99996 5.08496C5.21996 5.08496 4.58496 5.71996 4.58496 6.49996C4.58496 7.27996 5.21996 7.91496 5.99996 7.91496C6.77996 7.91496 7.41496 7.27996 7.41496 6.49996C7.41496 5.71996 6.77996 5.08496 5.99996 5.08496Z" fill="#292D32"/>
<path d="M6.00004 11.01C4.12004 11.01 2.34504 9.90999 1.12504 7.99999C0.595039 7.17499 0.595039 5.82999 1.12504 4.99999C2.35004 3.08999 4.12504 1.98999 6.00004 1.98999C7.87504 1.98999 9.65004 3.08999 10.87 4.99999C11.4 5.82499 11.4 7.16999 10.87 7.99999C9.65004 9.90999 7.87504 11.01 6.00004 11.01ZM6.00004 2.73999C4.38504 2.73999 2.84004 3.70999 1.76004 5.40499C1.38504 5.98999 1.38504 7.00999 1.76004 7.59499C2.84004 9.28999 4.38504 10.26 6.00004 10.26C7.61504 10.26 9.16004 9.28999 10.24 7.59499C10.615 7.00999 10.615 5.98999 10.24 5.40499C9.16004 3.70999 7.61504 2.73999 6.00004 2.73999Z" fill="#292D32"/>
</svg>
