<svg width="20" height="20" viewBox="0 0 20 20" fill="none" xmlns="http://www.w3.org/2000/svg">
<path d="M10.0003 18.9584C5.05866 18.9584 1.04199 14.9417 1.04199 10.0001C1.04199 5.05841 5.05866 1.04175 10.0003 1.04175C14.942 1.04175 18.9587 5.05841 18.9587 10.0001C18.9587 14.9417 14.942 18.9584 10.0003 18.9584ZM10.0003 2.29175C5.75033 2.29175 2.29199 5.75008 2.29199 10.0001C2.29199 14.2501 5.75033 17.7084 10.0003 17.7084C14.2503 17.7084 17.7087 14.2501 17.7087 10.0001C17.7087 5.75008 14.2503 2.29175 10.0003 2.29175Z" fill="#292D32"/>
<path d="M10.0003 10.8334C9.53366 10.8334 9.16699 10.4584 9.16699 10.0001C9.16699 9.54175 9.54199 9.16675 10.0003 9.16675C10.4587 9.16675 10.8337 9.54175 10.8337 10.0001C10.8337 10.4584 10.467 10.8334 10.0003 10.8334Z" fill="#292D32"/>
<path d="M13.3333 10.8334C12.8667 10.8334 12.5 10.4584 12.5 10.0001C12.5 9.54175 12.875 9.16675 13.3333 9.16675C13.7917 9.16675 14.1667 9.54175 14.1667 10.0001C14.1667 10.4584 13.8 10.8334 13.3333 10.8334Z" fill="#292D32"/>
<path d="M6.66634 10.8334C6.19967 10.8334 5.83301 10.4584 5.83301 10.0001C5.83301 9.54175 6.20801 9.16675 6.66634 9.16675C7.12467 9.16675 7.49967 9.54175 7.49967 10.0001C7.49967 10.4584 7.13301 10.8334 6.66634 10.8334Z" fill="#292D32"/>
</svg>
