<svg width="18" height="19" viewBox="0 0 18 19" fill="none" xmlns="http://www.w3.org/2000/svg">
<path d="M9.26597 5.2345C9.23114 5.19958 9.18976 5.17187 9.1442 5.15296C9.09864 5.13406 9.0498 5.12433 9.00047 5.12433C8.95115 5.12433 8.90231 5.13406 8.85675 5.15296C8.81119 5.17187 8.76981 5.19958 8.73497 5.2345L7.23497 6.7345C7.16456 6.80491 7.125 6.90042 7.125 7C7.125 7.09958 7.16456 7.19508 7.23497 7.2655C7.30539 7.33591 7.40089 7.37547 7.50047 7.37547C7.60006 7.37547 7.69556 7.33591 7.76597 7.2655L8.62547 6.40525V10C8.62547 10.0995 8.66498 10.1948 8.73531 10.2652C8.80563 10.3355 8.90102 10.375 9.00047 10.375C9.09993 10.375 9.19531 10.3355 9.26564 10.2652C9.33596 10.1948 9.37547 10.0995 9.37547 10V6.40525L10.235 7.2655C10.2698 7.30036 10.3112 7.32802 10.3568 7.34689C10.4023 7.36576 10.4512 7.37547 10.5005 7.37547C10.5498 7.37547 10.5986 7.36576 10.6442 7.34689C10.6897 7.32802 10.7311 7.30036 10.766 7.2655C10.8008 7.23063 10.8285 7.18924 10.8474 7.14369C10.8662 7.09813 10.8759 7.04931 10.8759 7C10.8759 6.95069 10.8662 6.90187 10.8474 6.85631C10.8285 6.81076 10.8008 6.76936 10.766 6.7345L9.26597 5.2345Z" fill="#3E4784"/>
<path d="M2.76887 7.94275C2.64135 8.4012 2.59265 8.87799 2.62487 9.35275C2.62487 9.9925 2.62637 11.0095 2.65562 11.9403C2.67062 12.43 2.69462 12.9017 2.73062 13.285C2.74787 13.4755 2.76887 13.6503 2.79512 13.7958C2.81912 13.9308 2.85362 14.0785 2.91062 14.1918C3.16232 14.6859 3.56402 15.0876 4.05812 15.3392C4.36037 15.493 4.69337 15.5605 5.09162 15.5928C5.48162 15.625 5.96687 15.625 6.58337 15.625H11.4164C12.0321 15.625 12.5181 15.625 12.9089 15.5928C13.3064 15.5605 13.6394 15.493 13.9416 15.3392C14.4357 15.0876 14.8374 14.6859 15.0891 14.1918C15.1457 14.0657 15.1845 13.9324 15.2046 13.7958C15.2309 13.6503 15.2519 13.4755 15.2699 13.285C15.3051 12.9025 15.3284 12.43 15.3441 11.9395C15.3734 11.0058 15.3741 9.98425 15.3749 9.3445C15.4062 8.87248 15.3575 8.39856 15.2309 7.94275L14.6061 5.758L14.5649 5.61325C14.3024 4.68325 13.9836 3.55525 12.7949 3.07C12.3171 2.875 11.7606 2.875 10.8726 2.875H7.12637C6.23837 2.875 5.68262 2.875 5.20412 3.07C4.01537 3.55525 3.69662 4.6825 3.43412 5.6125L3.39287 5.758L2.76887 7.94275ZM7.21487 3.625H10.7841C11.7914 3.625 12.1866 3.63175 12.5114 3.7645C13.3551 4.1095 13.5794 4.89325 13.8741 5.92525L14.5094 8.149C14.6084 8.49625 14.6466 8.87725 14.6294 9.25H14.6249V9.32125C14.6224 9.35825 14.6194 9.395 14.6159 9.4315C14.5738 9.86397 14.3828 10.2684 14.0755 10.5756C13.7683 10.8829 13.3638 11.0739 12.9314 11.116C12.7768 11.1303 12.6216 11.1365 12.4664 11.1347H12.4364C12.2961 11.1347 12.1739 11.1348 12.0614 11.1573C11.9057 11.1892 11.7586 11.2538 11.6297 11.3468C11.5008 11.4397 11.3931 11.5589 11.3136 11.6965C11.2566 11.8041 11.2106 11.9171 11.1764 12.034L11.1674 12.061C11.0736 12.3407 10.9889 12.457 10.9079 12.5162C10.8269 12.5755 10.6904 12.625 10.3851 12.625H7.61462C7.31912 12.625 7.18262 12.5808 7.10012 12.523C7.01912 12.466 6.92837 12.3505 6.83162 12.061L6.82337 12.0347C6.7892 11.9176 6.74322 11.8043 6.68612 11.6965C6.60656 11.559 6.49879 11.44 6.36991 11.3472C6.24103 11.2544 6.09396 11.1899 5.93837 11.158C5.81444 11.138 5.68881 11.1304 5.56337 11.1355H5.53337C5.37187 11.1365 5.21687 11.13 5.06837 11.116C4.61795 11.0726 4.19841 10.8678 3.88716 10.5393C3.57592 10.2108 3.39397 9.78086 3.37487 9.32875V9.25H3.37037C3.35082 8.87893 3.39134 8.50714 3.49037 8.149L4.12487 5.92525C4.41962 4.89325 4.64387 4.10875 5.48762 3.7645C5.81237 3.63175 6.20762 3.625 7.21487 3.625ZM3.40487 11.9163C3.39708 11.6438 3.39083 11.3713 3.38612 11.0988C3.81723 11.5331 4.38653 11.8031 4.99562 11.8622C5.17787 11.8802 5.35937 11.8847 5.53412 11.8847C5.72087 11.8847 5.75912 11.887 5.78762 11.8923C5.83949 11.903 5.88849 11.9246 5.93141 11.9556C5.97432 11.9866 6.01018 12.0264 6.03662 12.0722C6.05162 12.097 6.06437 12.13 6.12062 12.298C6.23687 12.6467 6.39362 12.943 6.66812 13.1357C6.94037 13.3278 7.26662 13.375 7.61462 13.375H10.3851C10.7526 13.375 11.0826 13.3195 11.3526 13.12C11.6211 12.9227 11.7689 12.628 11.8791 12.298C11.9346 12.13 11.9474 12.097 11.9624 12.0722C11.9888 12.0264 12.0247 11.9866 12.0676 11.9556C12.1105 11.9246 12.1595 11.903 12.2114 11.8923C12.2399 11.887 12.2789 11.8847 12.4656 11.8847C12.6404 11.8847 12.8211 11.8802 13.0041 11.8622C13.6132 11.8031 14.1825 11.5331 14.6136 11.0988C14.6091 11.371 14.6031 11.647 14.5941 11.9163C14.5833 12.3499 14.5596 12.7831 14.5229 13.2153C14.5064 13.3953 14.4876 13.5475 14.4666 13.6637C14.4561 13.7222 14.4461 13.7685 14.4366 13.8025L14.4209 13.8512C14.241 14.204 13.954 14.4907 13.6011 14.6702C13.4219 14.7617 13.1991 14.8165 12.8474 14.8458C12.4904 14.875 12.0359 14.875 11.3999 14.875H6.59987C5.96387 14.875 5.50862 14.875 5.15237 14.845C4.80062 14.8165 4.57787 14.7625 4.39862 14.6702C4.04575 14.4907 3.7588 14.204 3.57887 13.8512C3.57787 13.8503 3.57287 13.834 3.56387 13.8025C3.55169 13.7567 3.54168 13.7104 3.53387 13.6637C3.50925 13.515 3.49023 13.3654 3.47687 13.2153C3.44061 12.783 3.4161 12.3498 3.40487 11.9163Z" fill="#3E4784"/>
</svg>
