<svg width="19" height="19" viewBox="0 0 19 19" fill="none" xmlns="http://www.w3.org/2000/svg">
<path d="M9.76597 10.2648C9.73114 10.2998 9.68976 10.3275 9.6442 10.3464C9.59864 10.3653 9.5498 10.375 9.50047 10.375C9.45115 10.375 9.40231 10.3653 9.35675 10.3464C9.31119 10.3275 9.26981 10.2998 9.23497 10.2648L7.73497 8.76483C7.66456 8.69441 7.625 8.59891 7.625 8.49933C7.625 8.39975 7.66456 8.30424 7.73497 8.23383C7.80539 8.16341 7.90089 8.12386 8.00047 8.12386C8.10006 8.12386 8.19556 8.16341 8.26597 8.23383L9.12547 9.09408V5.49933C9.12547 5.39987 9.16498 5.30449 9.23531 5.23416C9.30563 5.16384 9.40102 5.12433 9.50047 5.12433C9.59993 5.12433 9.69531 5.16384 9.76564 5.23416C9.83596 5.30449 9.87547 5.39987 9.87547 5.49933V9.09408L10.735 8.23383C10.7698 8.19896 10.8112 8.17131 10.8568 8.15244C10.9023 8.13357 10.9512 8.12386 11.0005 8.12386C11.0498 8.12386 11.0986 8.13357 11.1442 8.15244C11.1897 8.17131 11.2311 8.19896 11.266 8.23383C11.3008 8.2687 11.3285 8.31009 11.3474 8.35564C11.3662 8.4012 11.3759 8.45002 11.3759 8.49933C11.3759 8.54864 11.3662 8.59746 11.3474 8.64302C11.3285 8.68857 11.3008 8.72996 11.266 8.76483L9.76597 10.2648Z" fill="#D92D20"/>
<path d="M3.26887 7.94275C3.14135 8.4012 3.09265 8.87799 3.12487 9.35275C3.12487 9.9925 3.12637 11.0095 3.15562 11.9403C3.17062 12.43 3.19462 12.9017 3.23062 13.285C3.24787 13.4755 3.26887 13.6503 3.29512 13.7958C3.31912 13.9308 3.35362 14.0785 3.41062 14.1918C3.66232 14.6859 4.06402 15.0876 4.55812 15.3392C4.86037 15.493 5.19337 15.5605 5.59162 15.5928C5.98162 15.625 6.46687 15.625 7.08337 15.625H11.9164C12.5321 15.625 13.0181 15.625 13.4089 15.5928C13.8064 15.5605 14.1394 15.493 14.4416 15.3392C14.9357 15.0876 15.3374 14.6859 15.5891 14.1918C15.6457 14.0657 15.6845 13.9324 15.7046 13.7958C15.7309 13.6503 15.7519 13.4755 15.7699 13.285C15.8051 12.9025 15.8284 12.43 15.8441 11.9395C15.8734 11.0058 15.8741 9.98425 15.8749 9.3445C15.9062 8.87248 15.8575 8.39856 15.7309 7.94275L15.1061 5.758L15.0649 5.61325C14.8024 4.68325 14.4836 3.55525 13.2949 3.07C12.8171 2.875 12.2606 2.875 11.3726 2.875H7.62637C6.73837 2.875 6.18262 2.875 5.70412 3.07C4.51537 3.55525 4.19662 4.6825 3.93412 5.6125L3.89287 5.758L3.26887 7.94275ZM7.71487 3.625H11.2841C12.2914 3.625 12.6866 3.63175 13.0114 3.7645C13.8551 4.1095 14.0794 4.89325 14.3741 5.92525L15.0094 8.149C15.1084 8.49625 15.1466 8.87725 15.1294 9.25H15.1249V9.32125C15.1224 9.35825 15.1194 9.395 15.1159 9.4315C15.0738 9.86397 14.8828 10.2684 14.5755 10.5756C14.2683 10.8829 13.8638 11.0739 13.4314 11.116C13.2768 11.1303 13.1216 11.1365 12.9664 11.1347H12.9364C12.7961 11.1347 12.6739 11.1348 12.5614 11.1573C12.4057 11.1892 12.2586 11.2538 12.1297 11.3468C12.0008 11.4397 11.8931 11.5589 11.8136 11.6965C11.7566 11.8041 11.7106 11.9171 11.6764 12.034L11.6674 12.061C11.5736 12.3407 11.4889 12.457 11.4079 12.5162C11.3269 12.5755 11.1904 12.625 10.8851 12.625H8.11462C7.81912 12.625 7.68262 12.5808 7.60012 12.523C7.51912 12.466 7.42837 12.3505 7.33162 12.061L7.32337 12.0347C7.2892 11.9176 7.24322 11.8043 7.18612 11.6965C7.10656 11.559 6.99879 11.44 6.86991 11.3472C6.74103 11.2544 6.59396 11.1899 6.43837 11.158C6.31444 11.138 6.18881 11.1304 6.06337 11.1355H6.03337C5.87187 11.1365 5.71687 11.13 5.56837 11.116C5.11795 11.0726 4.69841 10.8678 4.38716 10.5393C4.07592 10.2108 3.89397 9.78086 3.87487 9.32875V9.25H3.87037C3.85082 8.87893 3.89134 8.50714 3.99037 8.149L4.62487 5.92525C4.91962 4.89325 5.14387 4.10875 5.98762 3.7645C6.31237 3.63175 6.70762 3.625 7.71487 3.625ZM3.90487 11.9163C3.89708 11.6438 3.89083 11.3713 3.88612 11.0988C4.31723 11.5331 4.88653 11.8031 5.49562 11.8622C5.67787 11.8802 5.85937 11.8847 6.03412 11.8847C6.22087 11.8847 6.25912 11.887 6.28762 11.8923C6.33949 11.903 6.38849 11.9246 6.43141 11.9556C6.47432 11.9866 6.51018 12.0264 6.53662 12.0722C6.55162 12.097 6.56437 12.13 6.62062 12.298C6.73687 12.6467 6.89362 12.943 7.16812 13.1357C7.44037 13.3278 7.76662 13.375 8.11462 13.375H10.8851C11.2526 13.375 11.5826 13.3195 11.8526 13.12C12.1211 12.9227 12.2689 12.628 12.3791 12.298C12.4346 12.13 12.4474 12.097 12.4624 12.0722C12.4888 12.0264 12.5247 11.9866 12.5676 11.9556C12.6105 11.9246 12.6595 11.903 12.7114 11.8923C12.7399 11.887 12.7789 11.8847 12.9656 11.8847C13.1404 11.8847 13.3211 11.8802 13.5041 11.8622C14.1132 11.8031 14.6825 11.5331 15.1136 11.0988C15.1091 11.371 15.1031 11.647 15.0941 11.9163C15.0833 12.3499 15.0596 12.7831 15.0229 13.2153C15.0064 13.3953 14.9876 13.5475 14.9666 13.6637C14.9561 13.7222 14.9461 13.7685 14.9366 13.8025L14.9209 13.8512C14.741 14.204 14.454 14.4907 14.1011 14.6702C13.9219 14.7617 13.6991 14.8165 13.3474 14.8458C12.9904 14.875 12.5359 14.875 11.8999 14.875H7.09987C6.46387 14.875 6.00862 14.875 5.65237 14.845C5.30062 14.8165 5.07787 14.7625 4.89862 14.6702C4.54575 14.4907 4.2588 14.204 4.07887 13.8512C4.07787 13.8503 4.07287 13.834 4.06387 13.8025C4.05169 13.7567 4.04168 13.7104 4.03387 13.6637C4.00925 13.515 3.99023 13.3654 3.97687 13.2153C3.94061 12.783 3.9161 12.3498 3.90487 11.9163Z" fill="#D92D20"/>
</svg>
