<svg width="18" height="19" viewBox="0 0 18 19" fill="none" xmlns="http://www.w3.org/2000/svg">
<path d="M11.25 17.5625H6.75C2.6775 17.5625 0.9375 15.8225 0.9375 11.75V7.25C0.9375 3.1775 2.6775 1.4375 6.75 1.4375H10.5C10.8075 1.4375 11.0625 1.6925 11.0625 2C11.0625 2.3075 10.8075 2.5625 10.5 2.5625H6.75C3.2925 2.5625 2.0625 3.7925 2.0625 7.25V11.75C2.0625 15.2075 3.2925 16.4375 6.75 16.4375H11.25C14.7075 16.4375 15.9375 15.2075 15.9375 11.75V8C15.9375 7.6925 16.1925 7.4375 16.5 7.4375C16.8075 7.4375 17.0625 7.6925 17.0625 8V11.75C17.0625 15.8225 15.3225 17.5625 11.25 17.5625Z" fill="white"/>
<path d="M16.5 8.56261H13.5C10.935 8.56261 9.9375 7.56511 9.9375 5.00011V2.00011C9.9375 1.77511 10.0725 1.56511 10.2825 1.48261C10.4925 1.39261 10.7325 1.44511 10.8975 1.60261L16.8975 7.60261C17.055 7.76011 17.1075 8.00761 17.0175 8.21761C16.9275 8.42761 16.725 8.56261 16.5 8.56261ZM11.0625 3.35761V5.00011C11.0625 6.93511 11.565 7.43761 13.5 7.43761H15.1425L11.0625 3.35761Z" fill="white"/>
<path d="M9.75 10.8125H5.25C4.9425 10.8125 4.6875 10.5575 4.6875 10.25C4.6875 9.9425 4.9425 9.6875 5.25 9.6875H9.75C10.0575 9.6875 10.3125 9.9425 10.3125 10.25C10.3125 10.5575 10.0575 10.8125 9.75 10.8125Z" fill="white"/>
<path d="M8.25 13.8125H5.25C4.9425 13.8125 4.6875 13.5575 4.6875 13.25C4.6875 12.9425 4.9425 12.6875 5.25 12.6875H8.25C8.5575 12.6875 8.8125 12.9425 8.8125 13.25C8.8125 13.5575 8.5575 13.8125 8.25 13.8125Z" fill="white"/>
</svg>
