<svg width="33" height="32" viewBox="0 0 33 32" fill="none" xmlns="http://www.w3.org/2000/svg">
<rect width="32" height="32" transform="translate(0.5)" fill="white"/>
<path d="M10.3368 15.5062H9.58675H10.3368ZM10.3368 16.7408L9.77527 17.238C9.91056 17.3908 10.1023 17.4818 10.3061 17.4902C10.51 17.4985 10.7085 17.4234 10.8558 17.2822L10.3368 16.7408ZM13.0191 15.2081C13.318 14.9214 13.328 14.4466 13.0414 14.1477C12.7547 13.8487 12.2799 13.8387 11.9809 14.1253L13.0191 15.2081ZM9.06148 14.1695C8.78686 13.8594 8.31286 13.8306 8.00277 14.1052C7.69267 14.3798 7.66391 14.8538 7.93852 15.1639L9.06148 14.1695ZM20.5924 11.8427C20.8737 12.1467 21.3482 12.1652 21.6523 11.8839C21.9563 11.6026 21.9748 11.1281 21.6935 10.8241L20.5924 11.8427ZM16.5583 8.58337C12.7136 8.58337 9.58675 11.6773 9.58675 15.5062H11.0868C11.0868 12.5168 13.5309 10.0834 16.5583 10.0834V8.58337ZM9.58675 15.5062L9.58675 16.7408L11.0868 16.7408L11.0868 15.5062L9.58675 15.5062ZM10.8558 17.2822L13.0191 15.2081L11.9809 14.1253L9.8177 16.1994L10.8558 17.2822ZM10.8982 16.2435L9.06148 14.1695L7.93852 15.1639L9.77527 17.238L10.8982 16.2435ZM21.6935 10.8241C20.4196 9.44693 18.5894 8.58337 16.5583 8.58337V10.0834C18.156 10.0834 19.5919 10.7611 20.5924 11.8427L21.6935 10.8241Z" fill="#5B6B79"/>
<path d="M22.658 15.2593L23.2187 14.7612C23.0833 14.6087 22.8915 14.5179 22.6877 14.5099C22.4839 14.5018 22.2856 14.5771 22.1385 14.7183L22.658 15.2593ZM19.9802 16.7913C19.6814 17.0782 19.6718 17.553 19.9587 17.8517C20.2457 18.1505 20.7204 18.16 21.0192 17.8731L19.9802 16.7913ZM23.939 17.8303C24.2141 18.14 24.6881 18.168 24.9978 17.8929C25.3075 17.6178 25.3355 17.1437 25.0604 16.8341L23.939 17.8303ZM12.3799 20.1775C12.0964 19.8755 11.6218 19.8604 11.3198 20.1439C11.0177 20.4274 11.0027 20.902 11.2861 21.204L12.3799 20.1775ZM16.4127 23.4167C20.2679 23.4167 23.408 20.3255 23.408 16.4938H21.908C21.908 19.4806 19.456 21.9167 16.4127 21.9167V23.4167ZM23.408 16.4938V15.2593H21.908V16.4938H23.408ZM22.1385 14.7183L19.9802 16.7913L21.0192 17.8731L23.1776 15.8002L22.1385 14.7183ZM22.0974 15.7574L23.939 17.8303L25.0604 16.8341L23.2187 14.7612L22.0974 15.7574ZM11.2861 21.204C12.5636 22.5652 14.3891 23.4167 16.4127 23.4167V21.9167C14.8175 21.9167 13.3836 21.247 12.3799 20.1775L11.2861 21.204Z" fill="#5B6B79"/>
<path d="M3.16699 16C3.16699 9.71457 3.16699 6.57187 5.11961 4.61925C7.07223 2.66663 10.2149 2.66663 16.5003 2.66663C22.7857 2.66663 25.9284 2.66663 27.881 4.61925C29.8337 6.57187 29.8337 9.71457 29.8337 16C29.8337 22.2854 29.8337 25.428 27.881 27.3807C25.9284 29.3333 22.7857 29.3333 16.5003 29.3333C10.2149 29.3333 7.07223 29.3333 5.11961 27.3807C3.16699 25.428 3.16699 22.2854 3.16699 16Z" stroke="#5B6B79" stroke-width="1.5"/>
</svg>
