<svg width="33" height="32" viewBox="0 0 33 32" fill="none" xmlns="http://www.w3.org/2000/svg">
<path d="M3.16699 16C3.16699 9.71457 3.16699 6.57187 5.11961 4.61925C7.07223 2.66663 10.2149 2.66663 16.5003 2.66663C22.7857 2.66663 25.9284 2.66663 27.881 4.61925C29.8337 6.57187 29.8337 9.71457 29.8337 16C29.8337 22.2854 29.8337 25.428 27.881 27.3807C25.9284 29.3333 22.7857 29.3333 16.5003 29.3333C10.2149 29.3333 7.07223 29.3333 5.11961 27.3807C3.16699 25.428 3.16699 22.2854 3.16699 16Z" stroke="#E68A00" stroke-width="1.5"/>
<path d="M21.803 11.6194L21.2137 11.0161C18.6102 8.35091 14.3891 8.35091 11.7856 11.0161C9.18213 13.6814 9.18213 18.0025 11.7856 20.6678C14.3891 23.333 18.6102 23.333 21.2137 20.6678C22.7277 19.1178 23.3613 17.0079 23.1144 14.9893M21.803 11.6194H18.2674M21.803 11.6194V8" stroke="#E68A00" stroke-width="1.5" stroke-linecap="round" stroke-linejoin="round"/>
</svg>
