<svg width="18" height="19" viewBox="0 0 18 19" fill="none" xmlns="http://www.w3.org/2000/svg">
<path d="M9.00016 11.1276C7.40266 11.1276 6.09766 9.83008 6.09766 8.22508C6.09766 6.62008 7.40266 5.33008 9.00016 5.33008C10.5977 5.33008 11.9027 6.62758 11.9027 8.23258C11.9027 9.83758 10.5977 11.1276 9.00016 11.1276ZM9.00016 6.45508C8.02516 6.45508 7.22266 7.25008 7.22266 8.23258C7.22266 9.21508 8.01766 10.0101 9.00016 10.0101C9.98266 10.0101 10.7777 9.21508 10.7777 8.23258C10.7777 7.25008 9.97516 6.45508 9.00016 6.45508Z" fill="white"/>
<path d="M9.00025 17.57C7.89025 17.57 6.77275 17.15 5.90275 16.3175C3.69025 14.1875 1.24525 10.79 2.16775 6.7475C3.00025 3.08 6.20275 1.4375 9.00025 1.4375C9.00025 1.4375 9.00025 1.4375 9.00775 1.4375C11.8053 1.4375 15.0078 3.08 15.8403 6.755C16.7553 10.7975 14.3103 14.1875 12.0978 16.3175C11.2278 17.15 10.1103 17.57 9.00025 17.57ZM9.00025 2.5625C6.81775 2.5625 4.01275 3.725 3.27025 6.995C2.46025 10.5275 4.68025 13.5725 6.69025 15.5C7.98775 16.7525 10.0203 16.7525 11.3178 15.5C13.3203 13.5725 15.5403 10.5275 14.7453 6.995C13.9953 3.725 11.1828 2.5625 9.00025 2.5625Z" fill="white"/>
</svg>
