<svg width="33" height="32" viewBox="0 0 33 32" fill="none" xmlns="http://www.w3.org/2000/svg">
<rect width="32" height="32" transform="translate(0.5)" fill="white"/>
<path d="M3.16699 16C3.16699 9.71457 3.16699 6.57187 5.11961 4.61925C7.07223 2.66663 10.2149 2.66663 16.5003 2.66663C22.7857 2.66663 25.9284 2.66663 27.881 4.61925C29.8337 6.57187 29.8337 9.71457 29.8337 16C29.8337 22.2854 29.8337 25.428 27.881 27.3807C25.9284 29.3333 22.7857 29.3333 16.5003 29.3333C10.2149 29.3333 7.07223 29.3333 5.11961 27.3807C3.16699 25.428 3.16699 22.2854 3.16699 16Z" stroke="#DC2626" stroke-width="1.5"/>
<path d="M19.8336 12.6667L13.167 19.3333M13.167 12.6666L19.8336 19.3333" stroke="#DC2626" stroke-width="1.5" stroke-linecap="round"/>
</svg>
