<svg width="16" height="16" viewBox="0 0 16 16" fill="none" xmlns="http://www.w3.org/2000/svg">
<path d="M11.7333 1.60001H14.4V14.4C14.4 14.6829 14.2876 14.9542 14.0876 15.1543C13.8875 15.3543 13.6162 15.4667 13.3333 15.4667H2.66667C2.38378 15.4667 2.11246 15.3543 1.91243 15.1543C1.71239 14.9542 1.60001 14.6829 1.60001 14.4V1.60001H4.26667M5.33334 9.06667L7.46667 11.2L11.2 6.93334M4.80001 0.53334H11.2V2.66667C11.2 2.94957 11.0876 3.22088 10.8876 3.42092C10.6875 3.62096 10.4162 3.73334 10.1333 3.73334H5.86667C5.58377 3.73334 5.31246 3.62096 5.11243 3.42092C4.91239 3.22088 4.80001 2.94957 4.80001 2.66667V0.53334Z" stroke="white"/>
</svg>
