<svg width="12" height="10" viewBox="0 0 12 10" fill="none" xmlns="http://www.w3.org/2000/svg">
<path d="M2.14798 4.6913H1.64798V4.6913L2.14798 4.6913ZM2.14798 5.4629L1.77366 5.79439C1.86385 5.89624 1.99164 5.95694 2.12757 5.96249C2.2635 5.96804 2.39582 5.91797 2.49401 5.82382L2.14798 5.4629ZM3.84605 4.52752C4.04538 4.33641 4.05204 4.01989 3.86093 3.82057C3.66982 3.62124 3.3533 3.61458 3.15398 3.80569L3.84605 4.52752ZM1.37432 3.83511C1.19124 3.62838 0.875242 3.60921 0.668511 3.79228C0.46178 3.97536 0.442604 4.29136 0.62568 4.49809L1.37432 3.83511ZM8.53486 2.42279C8.72238 2.6255 9.03873 2.63781 9.24143 2.45029C9.44414 2.26277 9.45646 1.94643 9.26894 1.74372L8.53486 2.42279ZM6.03645 0.833252V0.333252C3.61647 0.333252 1.64798 2.28072 1.64798 4.6913H2.14798H2.64798C2.64798 2.8404 4.16134 1.33325 6.03645 1.33325V0.833252ZM2.14798 4.6913L1.64798 4.6913L1.64798 5.4629H2.14798L2.64798 5.4629L2.64798 4.6913H2.14798ZM2.14798 5.4629L2.49401 5.82382L3.84605 4.52752L3.50001 4.1666L3.15398 3.80569L1.80194 5.10199L2.14798 5.4629ZM2.14798 5.4629L2.5223 5.13142L1.37432 3.83511L1 4.1666L0.62568 4.49809L1.77366 5.79439L2.14798 5.4629ZM8.9019 2.08326L9.26894 1.74372C8.46702 0.876852 7.31491 0.333252 6.03645 0.333252V0.833252V1.33325C7.02603 1.33325 7.9152 1.75294 8.53486 2.42279L8.9019 2.08326Z" fill="#5B6B79"/>
<path d="M9.84898 4.53687L10.2228 4.20478C10.1325 4.10313 10.0046 4.04264 9.86878 4.03726C9.73291 4.03187 9.60071 4.08206 9.50264 4.17625L9.84898 4.53687ZM8.15365 5.47182C7.95448 5.6631 7.94809 5.97962 8.13937 6.17879C8.33065 6.37795 8.64717 6.38434 8.84633 6.19306L8.15365 5.47182ZM10.6262 6.16453C10.8096 6.37097 11.1257 6.38964 11.3321 6.20624C11.5385 6.02283 11.5572 5.7068 11.3738 5.50036L10.6262 6.16453ZM3.44788 7.58941C3.25891 7.38805 2.94249 7.37801 2.74113 7.56699C2.53978 7.75596 2.52974 8.07238 2.71871 8.27374L3.44788 7.58941ZM5.94564 9.16652V9.66652C8.37202 9.66652 10.349 7.72084 10.349 5.30847H9.84898H9.34898C9.34898 7.15758 7.83077 8.66652 5.94564 8.66652V9.16652ZM9.84898 5.30847H10.349V4.53687H9.84898H9.34898V5.30847H9.84898ZM9.84898 4.53687L9.50264 4.17625L8.15365 5.47182L8.49999 5.83244L8.84633 6.19306L10.1953 4.89749L9.84898 4.53687ZM9.84898 4.53687L9.47519 4.86895L10.6262 6.16453L11 5.83244L11.3738 5.50036L10.2228 4.20478L9.84898 4.53687ZM3.0833 7.93157L2.71871 8.27374C3.52283 9.13055 4.67192 9.66652 5.94564 9.66652V9.16652V8.66652C4.95756 8.66652 4.06951 8.25178 3.44788 7.58941L3.0833 7.93157Z" fill="#5B6B79"/>
</svg>
