<svg width="22" height="24" viewBox="0 0 22 24" fill="none" xmlns="http://www.w3.org/2000/svg">
<path d="M16.5999 2.40005H20.5999V21.6C20.5999 22.0244 20.4313 22.4314 20.1313 22.7314C19.8312 23.0315 19.4242 23.2 18.9999 23.2H2.9999C2.57556 23.2 2.16859 23.0315 1.86853 22.7314C1.56847 22.4314 1.3999 22.0244 1.3999 21.6V2.40005H5.3999M6.9999 13.6L10.1999 16.8L15.7999 10.4M6.1999 0.800049H15.7999V4.00005C15.7999 4.42439 15.6313 4.83136 15.3313 5.13142C15.0312 5.43148 14.6242 5.60005 14.1999 5.60005H7.7999C7.37556 5.60005 6.96859 5.43148 6.66853 5.13142C6.36847 4.83136 6.1999 4.42439 6.1999 4.00005V0.800049Z" stroke="#69798C"/>
</svg>
