<svg width="124" height="74" viewBox="0 0 124 74" fill="none" xmlns="http://www.w3.org/2000/svg">
<rect x="0.5" y="0.5" width="123" height="73" rx="1.5" fill="white"/>
<rect x="0.5" y="0.5" width="123" height="73" rx="1.5" stroke="#D4D4D4" stroke-dasharray="6 6"/>
<path d="M67.2399 37.75H56.7599C53.9599 37.75 52.1799 36.08 52.0199 33.29L51.4999 25.04C51.4199 23.79 51.8499 22.59 52.7099 21.68C53.5599 20.77 54.7599 20.25 55.9999 20.25C56.3199 20.25 56.6299 20.06 56.7799 19.76L57.4999 18.33C58.0899 17.16 59.5699 16.25 60.8599 16.25H63.1499C64.4399 16.25 65.9099 17.16 66.4999 18.32L67.2199 19.78C67.3699 20.06 67.6699 20.25 67.9999 20.25C69.2399 20.25 70.4399 20.77 71.2899 21.68C72.1499 22.6 72.5799 23.79 72.4999 25.04L71.9799 33.3C71.7999 36.13 70.0699 37.75 67.2399 37.75ZM60.8599 17.75C60.1199 17.75 59.1799 18.33 58.8399 19L58.1199 20.44C57.6999 21.25 56.8899 21.75 55.9999 21.75C55.1599 21.75 54.3799 22.09 53.7999 22.7C53.2299 23.31 52.9399 24.11 52.9999 24.94L53.5199 33.2C53.6399 35.22 54.7299 36.25 56.7599 36.25H67.2399C69.2599 36.25 70.3499 35.22 70.4799 33.2L70.9999 24.94C71.0499 24.11 70.7699 23.31 70.1999 22.7C69.6199 22.09 68.8399 21.75 67.9999 21.75C67.1099 21.75 66.2999 21.25 65.8799 20.46L65.1499 19C64.8199 18.34 63.8799 17.76 63.1399 17.76H60.8599V17.75Z" fill="#092343"/>
<path d="M63.5 23.75H60.5C60.09 23.75 59.75 23.41 59.75 23C59.75 22.59 60.09 22.25 60.5 22.25H63.5C63.91 22.25 64.25 22.59 64.25 23C64.25 23.41 63.91 23.75 63.5 23.75Z" fill="#092343"/>
<path d="M62 33.75C59.79 33.75 58 31.96 58 29.75C58 27.54 59.79 25.75 62 25.75C64.21 25.75 66 27.54 66 29.75C66 31.96 64.21 33.75 62 33.75ZM62 27.25C60.62 27.25 59.5 28.37 59.5 29.75C59.5 31.13 60.62 32.25 62 32.25C63.38 32.25 64.5 31.13 64.5 29.75C64.5 28.37 63.38 27.25 62 27.25Z" fill="#092343"/>
<path d="M45.816 59V49.004H47.118V59H45.816ZM54.3735 59V51.986H55.6755V58.37L55.0175 57.838H57.2575V59H54.3735ZM51.3775 54.548V53.372H54.3735V54.548H51.3775ZM48.6755 62.206C48.5542 62.206 48.4282 62.1967 48.2975 62.178C48.1575 62.1687 48.0175 62.1593 47.8775 62.15L47.9895 60.988C48.1295 60.9973 48.2602 61.0067 48.3815 61.016C48.4935 61.0253 48.5868 61.03 48.6615 61.03C49.0815 61.03 49.4175 60.8713 49.6695 60.554C49.9308 60.2367 50.0615 59.7933 50.0615 59.224V51.986H51.3775V59.224C51.3775 59.812 51.2608 60.33 51.0275 60.778C50.7942 61.226 50.4768 61.576 50.0755 61.828C49.6742 62.08 49.2075 62.206 48.6755 62.206ZM57.2575 59V57.838C57.3788 57.838 57.4535 57.8893 57.4815 57.992C57.5188 58.0947 57.5375 58.2347 57.5375 58.412C57.5375 58.5893 57.5188 58.734 57.4815 58.846C57.4535 58.9487 57.3788 59 57.2575 59ZM53.1975 61.632V60.274H54.5135V61.632H53.1975ZM55.1155 61.632V60.274H56.4315V61.632H55.1155ZM57.2559 59V57.838H64.8019L63.9759 58.454V55.556C63.9759 54.94 63.9059 54.4593 63.7659 54.114C63.6352 53.7687 63.4019 53.5213 63.0659 53.372C62.7299 53.2227 62.2725 53.148 61.6939 53.148C61.3019 53.148 60.9145 53.176 60.5319 53.232C60.1492 53.288 59.8505 53.3627 59.6359 53.456L60.4339 52.672C60.3779 52.8867 60.3219 53.162 60.2659 53.498C60.2099 53.834 60.1632 54.198 60.1259 54.59C60.0885 54.9727 60.0699 55.3553 60.0699 55.738C60.0699 56.1207 60.0885 56.4987 60.1259 56.872C60.1632 57.2453 60.2052 57.572 60.2519 57.852C60.2985 58.132 60.3359 58.3233 60.3639 58.426L59.1179 58.776C59.0805 58.6547 59.0339 58.4447 58.9779 58.146C58.9312 57.8473 58.8845 57.488 58.8379 57.068C58.8005 56.648 58.7819 56.2047 58.7819 55.738C58.7819 55.2807 58.8005 54.8373 58.8379 54.408C58.8845 53.9693 58.9359 53.5727 58.9919 53.218C59.0572 52.8633 59.1179 52.5787 59.1739 52.364C59.3885 52.28 59.7199 52.196 60.1679 52.112C60.6252 52.028 61.1339 51.986 61.6939 51.986C62.4872 51.986 63.1499 52.1027 63.6819 52.336C64.2232 52.5693 64.6245 52.9473 64.8859 53.47C65.1565 53.9833 65.2919 54.6787 65.2919 55.556V59H57.2559ZM57.2559 59C57.1345 59 57.0599 58.9487 57.0319 58.846C56.9945 58.734 56.9759 58.5893 56.9759 58.412C56.9759 58.2347 56.9945 58.0947 57.0319 57.992C57.0599 57.8893 57.1345 57.838 57.2559 57.838V59ZM68.9383 59V57.838H70.6183V59H68.9383ZM67.6363 59V49.004H68.9383V59H67.6363ZM70.6183 59V57.838C70.7303 57.838 70.805 57.8893 70.8423 57.992C70.8796 58.0947 70.8983 58.2347 70.8983 58.412C70.8983 58.5893 70.8796 58.734 70.8423 58.846C70.805 58.9487 70.7303 59 70.6183 59ZM70.6133 59V57.838H77.6133L77.1653 58.23V55.892C77.1653 55.3973 77.0999 54.9913 76.9693 54.674C76.8479 54.3473 76.6613 54.1093 76.4093 53.96C76.1573 53.8013 75.8446 53.722 75.4713 53.722H72.4053L71.5093 52.392L72.1533 51.174C72.2559 50.9873 72.3633 50.7913 72.4753 50.586C72.5966 50.3713 72.7413 50.1287 72.9093 49.858C73.0866 49.578 73.3106 49.242 73.5813 48.85L74.6733 49.48C74.4119 49.8813 74.1973 50.2127 74.0293 50.474C73.8706 50.7353 73.7353 50.964 73.6233 51.16C73.5113 51.3467 73.4039 51.5333 73.3013 51.72L72.6433 52.98L72.3633 52.56H75.4713C76.0593 52.56 76.5493 52.6627 76.9413 52.868C77.3333 53.064 77.6366 53.3253 77.8513 53.652C78.0753 53.9787 78.2339 54.3427 78.3273 54.744C78.4299 55.136 78.4813 55.5187 78.4813 55.892V59H70.6133ZM70.6133 59C70.4919 59 70.4173 58.9487 70.3893 58.846C70.3519 58.734 70.3333 58.5893 70.3333 58.412C70.3333 58.2347 70.3519 58.0947 70.3893 57.992C70.4173 57.8893 70.4919 57.838 70.6133 57.838V59Z" fill="#092343"/>
</svg>
