<svg width="330" height="136" viewBox="0 0 330 136" fill="none" xmlns="http://www.w3.org/2000/svg">
<path d="M0.979248 8C0.979248 3.58172 4.56097 0 8.97925 0H321.021C325.439 0 329.021 3.58172 329.021 8V32C329.021 36.4183 325.439 40 321.021 40H8.97926C4.56098 40 0.979248 36.4183 0.979248 32V8Z" fill="white"/>
<path d="M24.9792 16.4867C24.9659 16.4867 24.9459 16.4867 24.9259 16.4867C21.3992 16.1334 17.8792 16 14.3925 16.3534L13.0325 16.4867C12.7525 16.5134 12.5059 16.3134 12.4792 16.0334C12.4525 15.7534 12.6525 15.5134 12.9259 15.4867L14.2859 15.3534C17.8325 14.9934 21.4259 15.1334 25.0259 15.4867C25.2992 15.5134 25.4992 15.76 25.4725 16.0334C25.4525 16.2934 25.2325 16.4867 24.9792 16.4867Z" fill="#E7181B"/>
<path d="M16.646 15.8134C16.6193 15.8134 16.5927 15.8134 16.5593 15.8067C16.2927 15.76 16.106 15.5 16.1527 15.2334L16.2993 14.36C16.406 13.72 16.5527 12.8334 18.106 12.8334H19.8527C21.4127 12.8334 21.5593 13.7534 21.6593 14.3667L21.806 15.2334C21.8527 15.5067 21.666 15.7667 21.3993 15.8067C21.126 15.8534 20.866 15.6667 20.826 15.4L20.6793 14.5334C20.586 13.9534 20.566 13.84 19.8593 13.84H18.1127C17.406 13.84 17.3927 13.9334 17.2927 14.5267L17.1393 15.3934C17.0993 15.64 16.886 15.8134 16.646 15.8134Z" fill="#E7181B"/>
<path d="M21.1193 27.1667H16.8393C14.5127 27.1667 14.4193 25.8801 14.346 24.8401L13.9127 18.1267C13.8927 17.8534 14.106 17.6134 14.3793 17.5934C14.6593 17.5801 14.8927 17.7867 14.9127 18.0601L15.346 24.7734C15.4193 25.7867 15.446 26.1667 16.8393 26.1667H21.1193C22.5193 26.1667 22.546 25.7867 22.6127 24.7734L23.046 18.0601C23.066 17.7867 23.306 17.5801 23.5793 17.5934C23.8527 17.6134 24.066 17.8467 24.046 18.1267L23.6127 24.8401C23.5393 25.8801 23.446 27.1667 21.1193 27.1667Z" fill="#E7181B"/>
<path d="M20.086 23.5H17.866C17.5926 23.5 17.366 23.2733 17.366 23C17.366 22.7267 17.5926 22.5 17.866 22.5H20.086C20.3593 22.5 20.586 22.7267 20.586 23C20.586 23.2733 20.3593 23.5 20.086 23.5Z" fill="#E7181B"/>
<path d="M20.6458 20.8334H17.3125C17.0392 20.8334 16.8125 20.6067 16.8125 20.3334C16.8125 20.06 17.0392 19.8334 17.3125 19.8334H20.6458C20.9192 19.8334 21.1458 20.06 21.1458 20.3334C21.1458 20.6067 20.9192 20.8334 20.6458 20.8334Z" fill="#E7181B"/>
<path d="M50.9792 22.8866C49.3859 22.8866 48.0925 21.5933 48.0925 19.9999C48.0925 18.4066 49.3859 17.1133 50.9792 17.1133C52.5725 17.1133 53.8659 18.4066 53.8659 19.9999C53.8659 21.5933 52.5725 22.8866 50.9792 22.8866ZM50.9792 18.1133C49.9392 18.1133 49.0925 18.9599 49.0925 19.9999C49.0925 21.0399 49.9392 21.8866 50.9792 21.8866C52.0192 21.8866 52.8659 21.0399 52.8659 19.9999C52.8659 18.9599 52.0192 18.1133 50.9792 18.1133Z" fill="#163F70"/>
<path d="M50.9792 26.0134C48.4726 26.0134 46.1059 24.5467 44.4792 22C43.7726 20.9 43.7726 19.1067 44.4792 18C46.1126 15.4534 48.4792 13.9867 50.9792 13.9867C53.4792 13.9867 55.8459 15.4534 57.4726 18C58.1792 19.1 58.1792 20.8934 57.4726 22C55.8459 24.5467 53.4792 26.0134 50.9792 26.0134ZM50.9792 14.9867C48.8259 14.9867 46.7659 16.28 45.3259 18.54C44.8259 19.32 44.8259 20.68 45.3259 21.46C46.7659 23.72 48.8259 25.0134 50.9792 25.0134C53.1326 25.0134 55.1926 23.72 56.6326 21.46C57.1326 20.68 57.1326 19.32 56.6326 18.54C55.1926 16.28 53.1326 14.9867 50.9792 14.9867Z" fill="#163F70"/>
<path d="M168.487 16.95C168.967 16.95 169.38 17.0233 169.727 17.17C170.08 17.3167 170.35 17.5267 170.537 17.8C170.724 18.0667 170.817 18.3867 170.817 18.76C170.817 19.1 170.724 19.4 170.537 19.66C170.357 19.92 170.11 20.12 169.797 20.26C170.217 20.4067 170.55 20.6333 170.797 20.94C171.044 21.2467 171.167 21.6133 171.167 22.04C171.167 22.4533 171.057 22.81 170.837 23.11C170.624 23.41 170.317 23.6433 169.917 23.81C169.517 23.97 169.044 24.05 168.497 24.05C167.95 24.05 167.477 23.97 167.077 23.81C166.677 23.65 166.367 23.42 166.147 23.12C165.934 22.82 165.827 22.4667 165.827 22.06C165.827 21.6267 165.954 21.2567 166.207 20.95C166.467 20.6367 166.814 20.4067 167.247 20.26C166.914 20.1067 166.65 19.9 166.457 19.64C166.264 19.3733 166.167 19.0667 166.167 18.72C166.167 18.3533 166.26 18.04 166.447 17.78C166.64 17.5133 166.91 17.31 167.257 17.17C167.604 17.0233 168.014 16.95 168.487 16.95ZM168.487 20.75C168 20.75 167.62 20.8567 167.347 21.07C167.074 21.2767 166.937 21.5667 166.937 21.94C166.937 22.3267 167.074 22.63 167.347 22.85C167.62 23.0633 168.004 23.17 168.497 23.17C168.99 23.17 169.374 23.0633 169.647 22.85C169.92 22.6367 170.057 22.3367 170.057 21.95C170.057 21.5767 169.917 21.2833 169.637 21.07C169.364 20.8567 168.98 20.75 168.487 20.75ZM168.497 17.76C168.077 17.76 167.75 17.8533 167.517 18.04C167.284 18.2267 167.167 18.4867 167.167 18.82C167.167 19.1533 167.284 19.4133 167.517 19.6C167.75 19.7867 168.077 19.88 168.497 19.88C168.917 19.88 169.24 19.7867 169.467 19.6C169.7 19.4133 169.817 19.1533 169.817 18.82C169.817 18.4867 169.7 18.2267 169.467 18.04C169.24 17.8533 168.917 17.76 168.497 17.76ZM172.785 22.68C172.998 22.82 173.242 22.93 173.515 23.01C173.788 23.0833 174.058 23.12 174.325 23.12C174.778 23.12 175.148 23.01 175.435 22.79C175.728 22.57 175.942 22.2633 176.075 21.87C176.215 21.47 176.278 21.01 176.265 20.49C176.078 20.83 175.825 21.0867 175.505 21.26C175.185 21.4333 174.805 21.52 174.365 21.52C173.905 21.52 173.505 21.43 173.165 21.25C172.832 21.0633 172.575 20.8033 172.395 20.47C172.215 20.1367 172.125 19.7433 172.125 19.29C172.125 18.81 172.225 18.3967 172.425 18.05C172.632 17.6967 172.918 17.4267 173.285 17.24C173.652 17.0467 174.082 16.95 174.575 16.95C175.162 16.95 175.665 17.0867 176.085 17.36C176.512 17.6267 176.838 18.0133 177.065 18.52C177.298 19.0267 177.415 19.6367 177.415 20.35C177.415 21.0967 177.292 21.7467 177.045 22.3C176.798 22.8533 176.448 23.2833 175.995 23.59C175.548 23.8967 175.018 24.05 174.405 24.05C174.058 24.05 173.695 24.0033 173.315 23.91C172.942 23.81 172.612 23.68 172.325 23.52L172.785 22.68ZM174.635 17.91C174.355 17.91 174.108 17.9667 173.895 18.08C173.688 18.1867 173.525 18.3433 173.405 18.55C173.285 18.7567 173.225 19.0067 173.225 19.3C173.225 19.7067 173.345 20.0333 173.585 20.28C173.832 20.52 174.165 20.64 174.585 20.64C174.905 20.64 175.175 20.5767 175.395 20.45C175.622 20.3167 175.792 20.1467 175.905 19.94C176.025 19.7267 176.082 19.4967 176.075 19.25C176.075 19.0967 176.048 18.94 175.995 18.78C175.942 18.62 175.855 18.4767 175.735 18.35C175.622 18.2167 175.472 18.11 175.285 18.03C175.105 17.95 174.888 17.91 174.635 17.91ZM179.103 22.68C179.317 22.82 179.56 22.93 179.833 23.01C180.107 23.0833 180.377 23.12 180.643 23.12C181.097 23.12 181.467 23.01 181.753 22.79C182.047 22.57 182.26 22.2633 182.393 21.87C182.533 21.47 182.597 21.01 182.583 20.49C182.397 20.83 182.143 21.0867 181.823 21.26C181.503 21.4333 181.123 21.52 180.683 21.52C180.223 21.52 179.823 21.43 179.483 21.25C179.15 21.0633 178.893 20.8033 178.713 20.47C178.533 20.1367 178.443 19.7433 178.443 19.29C178.443 18.81 178.543 18.3967 178.743 18.05C178.95 17.6967 179.237 17.4267 179.603 17.24C179.97 17.0467 180.4 16.95 180.893 16.95C181.48 16.95 181.983 17.0867 182.403 17.36C182.83 17.6267 183.157 18.0133 183.383 18.52C183.617 19.0267 183.733 19.6367 183.733 20.35C183.733 21.0967 183.61 21.7467 183.363 22.3C183.117 22.8533 182.767 23.2833 182.313 23.59C181.867 23.8967 181.337 24.05 180.723 24.05C180.377 24.05 180.013 24.0033 179.633 23.91C179.26 23.81 178.93 23.68 178.643 23.52L179.103 22.68ZM180.953 17.91C180.673 17.91 180.427 17.9667 180.213 18.08C180.007 18.1867 179.843 18.3433 179.723 18.55C179.603 18.7567 179.543 19.0067 179.543 19.3C179.543 19.7067 179.663 20.0333 179.903 20.28C180.15 20.52 180.483 20.64 180.903 20.64C181.223 20.64 181.493 20.5767 181.713 20.45C181.94 20.3167 182.11 20.1467 182.223 19.94C182.343 19.7267 182.4 19.4967 182.393 19.25C182.393 19.0967 182.367 18.94 182.313 18.78C182.26 18.62 182.173 18.4767 182.053 18.35C181.94 18.2167 181.79 18.11 181.603 18.03C181.423 17.95 181.207 17.91 180.953 17.91ZM187.482 19.95C188.135 19.9967 188.662 20.1833 189.062 20.51C189.468 20.8367 189.672 21.2767 189.672 21.83C189.672 22.2633 189.558 22.65 189.332 22.99C189.112 23.3233 188.795 23.5833 188.382 23.77C187.975 23.9567 187.488 24.05 186.922 24.05C186.455 24.05 185.995 23.9833 185.542 23.85C185.088 23.71 184.702 23.5267 184.382 23.3L184.872 22.4C185.145 22.6267 185.452 22.8033 185.792 22.93C186.138 23.05 186.488 23.11 186.842 23.11C187.195 23.11 187.495 23.06 187.742 22.96C187.995 22.8533 188.188 22.7067 188.322 22.52C188.455 22.3267 188.522 22.1067 188.522 21.86C188.522 21.4667 188.372 21.17 188.072 20.97C187.772 20.77 187.355 20.67 186.822 20.67H185.802V19.97L188.212 17.6L188.372 18H184.732L184.722 17H189.322V17.7L186.702 20.28L186.552 19.88L187.482 19.95ZM193.34 16.95C193.82 16.95 194.234 17.0233 194.58 17.17C194.934 17.3167 195.204 17.5267 195.39 17.8C195.577 18.0667 195.67 18.3867 195.67 18.76C195.67 19.1 195.577 19.4 195.39 19.66C195.21 19.92 194.964 20.12 194.65 20.26C195.07 20.4067 195.404 20.6333 195.65 20.94C195.897 21.2467 196.02 21.6133 196.02 22.04C196.02 22.4533 195.91 22.81 195.69 23.11C195.477 23.41 195.17 23.6433 194.77 23.81C194.37 23.97 193.897 24.05 193.35 24.05C192.804 24.05 192.33 23.97 191.93 23.81C191.53 23.65 191.22 23.42 191 23.12C190.787 22.82 190.68 22.4667 190.68 22.06C190.68 21.6267 190.807 21.2567 191.06 20.95C191.32 20.6367 191.667 20.4067 192.1 20.26C191.767 20.1067 191.504 19.9 191.31 19.64C191.117 19.3733 191.02 19.0667 191.02 18.72C191.02 18.3533 191.114 18.04 191.3 17.78C191.494 17.5133 191.764 17.31 192.11 17.17C192.457 17.0233 192.867 16.95 193.34 16.95ZM193.34 20.75C192.854 20.75 192.474 20.8567 192.2 21.07C191.927 21.2767 191.79 21.5667 191.79 21.94C191.79 22.3267 191.927 22.63 192.2 22.85C192.474 23.0633 192.857 23.17 193.35 23.17C193.844 23.17 194.227 23.0633 194.5 22.85C194.774 22.6367 194.91 22.3367 194.91 21.95C194.91 21.5767 194.77 21.2833 194.49 21.07C194.217 20.8567 193.834 20.75 193.34 20.75ZM193.35 17.76C192.93 17.76 192.604 17.8533 192.37 18.04C192.137 18.2267 192.02 18.4867 192.02 18.82C192.02 19.1533 192.137 19.4133 192.37 19.6C192.604 19.7867 192.93 19.88 193.35 19.88C193.77 19.88 194.094 19.7867 194.32 19.6C194.554 19.4133 194.67 19.1533 194.67 18.82C194.67 18.4867 194.554 18.2267 194.32 18.04C194.094 17.8533 193.77 17.76 193.35 17.76ZM198.689 22.32C198.689 22.6067 198.739 22.8033 198.839 22.91C198.939 23.01 199.079 23.06 199.259 23.06C199.379 23.06 199.502 23.04 199.629 23C199.762 22.96 199.905 22.9 200.059 22.82L200.349 23.65C200.142 23.7767 199.929 23.8767 199.709 23.95C199.489 24.0167 199.265 24.05 199.039 24.05C198.772 24.05 198.525 24 198.299 23.9C198.072 23.7933 197.889 23.6267 197.749 23.4C197.615 23.1733 197.549 22.88 197.549 22.52V17.43H198.689V22.32ZM196.799 18.88H200.259V19.7H196.799V18.88ZM201.711 22.68C201.924 22.82 202.167 22.93 202.441 23.01C202.714 23.0833 202.984 23.12 203.251 23.12C203.704 23.12 204.074 23.01 204.361 22.79C204.654 22.57 204.867 22.2633 205.001 21.87C205.141 21.47 205.204 21.01 205.191 20.49C205.004 20.83 204.751 21.0867 204.431 21.26C204.111 21.4333 203.731 21.52 203.291 21.52C202.831 21.52 202.431 21.43 202.091 21.25C201.757 21.0633 201.501 20.8033 201.321 20.47C201.141 20.1367 201.051 19.7433 201.051 19.29C201.051 18.81 201.151 18.3967 201.351 18.05C201.557 17.6967 201.844 17.4267 202.211 17.24C202.577 17.0467 203.007 16.95 203.501 16.95C204.087 16.95 204.591 17.0867 205.011 17.36C205.437 17.6267 205.764 18.0133 205.991 18.52C206.224 19.0267 206.341 19.6367 206.341 20.35C206.341 21.0967 206.217 21.7467 205.971 22.3C205.724 22.8533 205.374 23.2833 204.921 23.59C204.474 23.8967 203.944 24.05 203.331 24.05C202.984 24.05 202.621 24.0033 202.241 23.91C201.867 23.81 201.537 23.68 201.251 23.52L201.711 22.68ZM203.561 17.91C203.281 17.91 203.034 17.9667 202.821 18.08C202.614 18.1867 202.451 18.3433 202.331 18.55C202.211 18.7567 202.151 19.0067 202.151 19.3C202.151 19.7067 202.271 20.0333 202.511 20.28C202.757 20.52 203.091 20.64 203.511 20.64C203.831 20.64 204.101 20.5767 204.321 20.45C204.547 20.3167 204.717 20.1467 204.831 19.94C204.951 19.7267 205.007 19.4967 205.001 19.25C205.001 19.0967 204.974 18.94 204.921 18.78C204.867 18.62 204.781 18.4767 204.661 18.35C204.547 18.2167 204.397 18.11 204.211 18.03C204.031 17.95 203.814 17.91 203.561 17.91ZM206.529 24.97C206.609 24.9967 206.689 25.0167 206.769 25.03C206.842 25.05 206.919 25.0633 206.999 25.07C207.479 25.0833 207.719 24.7567 207.719 24.09V18.69H208.869V24.25C208.869 24.8033 208.726 25.23 208.439 25.53C208.152 25.8367 207.752 25.9867 207.239 25.98C206.879 25.9667 206.559 25.9033 206.279 25.79L206.529 24.97ZM208.289 16.5C208.482 16.5 208.642 16.5633 208.769 16.69C208.896 16.8167 208.959 16.9767 208.959 17.17C208.959 17.3567 208.896 17.5167 208.769 17.65C208.642 17.7767 208.482 17.84 208.289 17.84C208.102 17.84 207.942 17.7767 207.809 17.65C207.682 17.5167 207.619 17.3567 207.619 17.17C207.619 16.9767 207.682 16.8167 207.809 16.69C207.942 16.5633 208.102 16.5 208.289 16.5ZM209.743 22.26V21.42L212.123 17H213.263L210.763 21.69L210.493 21.26H215.293V22.26H209.743ZM213.153 19.56H214.253V24H213.153V19.56ZM219.15 16.95C220.103 16.95 220.837 17.2567 221.35 17.87C221.863 18.4833 222.12 19.36 222.12 20.5C222.12 21.64 221.863 22.5167 221.35 23.13C220.837 23.7433 220.103 24.05 219.15 24.05C218.19 24.05 217.453 23.7433 216.94 23.13C216.427 22.5167 216.17 21.64 216.17 20.5C216.17 19.36 216.427 18.4833 216.94 17.87C217.453 17.2567 218.19 16.95 219.15 16.95ZM219.15 17.83C218.563 17.83 218.12 18.05 217.82 18.49C217.527 18.9233 217.38 19.5933 217.38 20.5C217.38 21.4 217.527 22.07 217.82 22.51C218.12 22.95 218.563 23.17 219.15 23.17C219.737 23.17 220.177 22.95 220.47 22.51C220.763 22.07 220.91 21.4 220.91 20.5C220.91 19.5933 220.763 18.9233 220.47 18.49C220.177 18.05 219.737 17.83 219.15 17.83ZM225.88 19.95C226.533 19.9967 227.06 20.1833 227.46 20.51C227.867 20.8367 228.07 21.2767 228.07 21.83C228.07 22.2633 227.957 22.65 227.73 22.99C227.51 23.3233 227.193 23.5833 226.78 23.77C226.373 23.9567 225.887 24.05 225.32 24.05C224.853 24.05 224.393 23.9833 223.94 23.85C223.487 23.71 223.1 23.5267 222.78 23.3L223.27 22.4C223.543 22.6267 223.85 22.8033 224.19 22.93C224.537 23.05 224.887 23.11 225.24 23.11C225.593 23.11 225.893 23.06 226.14 22.96C226.393 22.8533 226.587 22.7067 226.72 22.52C226.853 22.3267 226.92 22.1067 226.92 21.86C226.92 21.4667 226.77 21.17 226.47 20.97C226.17 20.77 225.753 20.67 225.22 20.67H224.2V19.97L226.61 17.6L226.77 18H223.13L223.12 17H227.72V17.7L225.1 20.28L224.95 19.88L225.88 19.95ZM229.709 22.68C229.922 22.82 230.166 22.93 230.439 23.01C230.712 23.0833 230.982 23.12 231.249 23.12C231.702 23.12 232.072 23.01 232.359 22.79C232.652 22.57 232.866 22.2633 232.999 21.87C233.139 21.47 233.202 21.01 233.189 20.49C233.002 20.83 232.749 21.0867 232.429 21.26C232.109 21.4333 231.729 21.52 231.289 21.52C230.829 21.52 230.429 21.43 230.089 21.25C229.756 21.0633 229.499 20.8033 229.319 20.47C229.139 20.1367 229.049 19.7433 229.049 19.29C229.049 18.81 229.149 18.3967 229.349 18.05C229.556 17.6967 229.842 17.4267 230.209 17.24C230.576 17.0467 231.006 16.95 231.499 16.95C232.086 16.95 232.589 17.0867 233.009 17.36C233.436 17.6267 233.762 18.0133 233.989 18.52C234.222 19.0267 234.339 19.6367 234.339 20.35C234.339 21.0967 234.216 21.7467 233.969 22.3C233.722 22.8533 233.372 23.2833 232.919 23.59C232.472 23.8967 231.942 24.05 231.329 24.05C230.982 24.05 230.619 24.0033 230.239 23.91C229.866 23.81 229.536 23.68 229.249 23.52L229.709 22.68ZM231.559 17.91C231.279 17.91 231.032 17.9667 230.819 18.08C230.612 18.1867 230.449 18.3433 230.329 18.55C230.209 18.7567 230.149 19.0067 230.149 19.3C230.149 19.7067 230.269 20.0333 230.509 20.28C230.756 20.52 231.089 20.64 231.509 20.64C231.829 20.64 232.099 20.5767 232.319 20.45C232.546 20.3167 232.716 20.1467 232.829 19.94C232.949 19.7267 233.006 19.4967 232.999 19.25C232.999 19.0967 232.972 18.94 232.919 18.78C232.866 18.62 232.779 18.4767 232.659 18.35C232.546 18.2167 232.396 18.11 232.209 18.03C232.029 17.95 231.812 17.91 231.559 17.91ZM238.087 19.95C238.741 19.9967 239.267 20.1833 239.667 20.51C240.074 20.8367 240.277 21.2767 240.277 21.83C240.277 22.2633 240.164 22.65 239.937 22.99C239.717 23.3233 239.401 23.5833 238.987 23.77C238.581 23.9567 238.094 24.05 237.527 24.05C237.061 24.05 236.601 23.9833 236.147 23.85C235.694 23.71 235.307 23.5267 234.987 23.3L235.477 22.4C235.751 22.6267 236.057 22.8033 236.397 22.93C236.744 23.05 237.094 23.11 237.447 23.11C237.801 23.11 238.101 23.06 238.347 22.96C238.601 22.8533 238.794 22.7067 238.927 22.52C239.061 22.3267 239.127 22.1067 239.127 21.86C239.127 21.4667 238.977 21.17 238.677 20.97C238.377 20.77 237.961 20.67 237.427 20.67H236.407V19.97L238.817 17.6L238.977 18H235.337L235.327 17H239.927V17.7L237.307 20.28L237.157 19.88L238.087 19.95ZM241.916 22.68C242.129 22.82 242.373 22.93 242.646 23.01C242.919 23.0833 243.189 23.12 243.456 23.12C243.909 23.12 244.279 23.01 244.566 22.79C244.859 22.57 245.073 22.2633 245.206 21.87C245.346 21.47 245.409 21.01 245.396 20.49C245.209 20.83 244.956 21.0867 244.636 21.26C244.316 21.4333 243.936 21.52 243.496 21.52C243.036 21.52 242.636 21.43 242.296 21.25C241.963 21.0633 241.706 20.8033 241.526 20.47C241.346 20.1367 241.256 19.7433 241.256 19.29C241.256 18.81 241.356 18.3967 241.556 18.05C241.763 17.6967 242.049 17.4267 242.416 17.24C242.783 17.0467 243.213 16.95 243.706 16.95C244.293 16.95 244.796 17.0867 245.216 17.36C245.643 17.6267 245.969 18.0133 246.196 18.52C246.429 19.0267 246.546 19.6367 246.546 20.35C246.546 21.0967 246.423 21.7467 246.176 22.3C245.929 22.8533 245.579 23.2833 245.126 23.59C244.679 23.8967 244.149 24.05 243.536 24.05C243.189 24.05 242.826 24.0033 242.446 23.91C242.073 23.81 241.743 23.68 241.456 23.52L241.916 22.68ZM243.766 17.91C243.486 17.91 243.239 17.9667 243.026 18.08C242.819 18.1867 242.656 18.3433 242.536 18.55C242.416 18.7567 242.356 19.0067 242.356 19.3C242.356 19.7067 242.476 20.0333 242.716 20.28C242.963 20.52 243.296 20.64 243.716 20.64C244.036 20.64 244.306 20.5767 244.526 20.45C244.753 20.3167 244.923 20.1467 245.036 19.94C245.156 19.7267 245.213 19.4967 245.206 19.25C245.206 19.0967 245.179 18.94 245.126 18.78C245.073 18.62 244.986 18.4767 244.866 18.35C244.753 18.2167 244.603 18.11 244.416 18.03C244.236 17.95 244.019 17.91 243.766 17.91ZM247.694 20.58H250.154V21.34H247.694V20.58ZM254.676 18.65C255.183 18.65 255.626 18.7633 256.006 18.99C256.386 19.2167 256.683 19.5333 256.896 19.94C257.109 20.3467 257.216 20.82 257.216 21.36C257.216 21.8867 257.109 22.3533 256.896 22.76C256.689 23.16 256.396 23.4733 256.016 23.7C255.643 23.9267 255.203 24.04 254.696 24.04C254.209 24.04 253.793 23.9333 253.446 23.72C253.106 23.5067 252.846 23.2 252.666 22.8C252.486 22.3933 252.396 21.9133 252.396 21.36C252.396 20.7867 252.486 20.3 252.666 19.9C252.846 19.4933 253.106 19.1833 253.446 18.97C253.793 18.7567 254.203 18.65 254.676 18.65ZM254.436 19.56C254.123 19.56 253.843 19.6367 253.596 19.79C253.349 19.9433 253.156 20.1533 253.016 20.42C252.883 20.68 252.816 20.9833 252.816 21.33C252.816 21.6767 252.883 21.9867 253.016 22.26C253.156 22.5267 253.349 22.7367 253.596 22.89C253.843 23.0367 254.123 23.11 254.436 23.11C254.756 23.11 255.036 23.0333 255.276 22.88C255.523 22.7267 255.713 22.5167 255.846 22.25C255.986 21.9833 256.056 21.6767 256.056 21.33C256.056 20.99 255.986 20.6867 255.846 20.42C255.713 20.1533 255.523 19.9433 255.276 19.79C255.036 19.6367 254.756 19.56 254.436 19.56ZM251.666 16.58H252.816V24H251.666V16.58ZM261.473 18.65C261.979 18.65 262.423 18.7633 262.803 18.99C263.183 19.2167 263.479 19.5333 263.693 19.94C263.906 20.3467 264.013 20.82 264.013 21.36C264.013 21.8867 263.906 22.3533 263.693 22.76C263.486 23.16 263.193 23.4733 262.813 23.7C262.439 23.9267 261.999 24.04 261.493 24.04C261.006 24.04 260.589 23.9333 260.243 23.72C259.903 23.5067 259.643 23.2 259.463 22.8C259.283 22.3933 259.193 21.9133 259.193 21.36C259.193 20.7867 259.283 20.3 259.463 19.9C259.643 19.4933 259.903 19.1833 260.243 18.97C260.589 18.7567 260.999 18.65 261.473 18.65ZM261.233 19.56C260.919 19.56 260.639 19.6367 260.393 19.79C260.146 19.9433 259.953 20.1533 259.813 20.42C259.679 20.68 259.613 20.9833 259.613 21.33C259.613 21.6767 259.679 21.9867 259.813 22.26C259.953 22.5267 260.146 22.7367 260.393 22.89C260.639 23.0367 260.919 23.11 261.233 23.11C261.553 23.11 261.833 23.0333 262.073 22.88C262.319 22.7267 262.509 22.5167 262.643 22.25C262.783 21.9833 262.853 21.6767 262.853 21.33C262.853 20.99 262.783 20.6867 262.643 20.42C262.509 20.1533 262.319 19.9433 262.073 19.79C261.833 19.6367 261.553 19.56 261.233 19.56ZM258.463 18.69H259.613V25.94H258.463V18.69ZM264.97 20.58H267.43V21.34H264.97V20.58ZM271.251 19.95C271.905 19.9967 272.431 20.1833 272.831 20.51C273.238 20.8367 273.441 21.2767 273.441 21.83C273.441 22.2633 273.328 22.65 273.101 22.99C272.881 23.3233 272.565 23.5833 272.151 23.77C271.745 23.9567 271.258 24.05 270.691 24.05C270.225 24.05 269.765 23.9833 269.311 23.85C268.858 23.71 268.471 23.5267 268.151 23.3L268.641 22.4C268.915 22.6267 269.221 22.8033 269.561 22.93C269.908 23.05 270.258 23.11 270.611 23.11C270.965 23.11 271.265 23.06 271.511 22.96C271.765 22.8533 271.958 22.7067 272.091 22.52C272.225 22.3267 272.291 22.1067 272.291 21.86C272.291 21.4667 272.141 21.17 271.841 20.97C271.541 20.77 271.125 20.67 270.591 20.67H269.571V19.97L271.981 17.6L272.141 18H268.501L268.491 17H273.091V17.7L270.471 20.28L270.321 19.88L271.251 19.95ZM274.04 22.26V21.42L276.42 17H277.56L275.06 21.69L274.79 21.26H279.59V22.26H274.04ZM277.45 19.56H278.55V24H277.45V19.56ZM282.097 22.32C282.097 22.6067 282.147 22.8033 282.247 22.91C282.347 23.01 282.487 23.06 282.667 23.06C282.787 23.06 282.91 23.04 283.037 23C283.17 22.96 283.313 22.9 283.467 22.82L283.757 23.65C283.55 23.7767 283.337 23.8767 283.117 23.95C282.897 24.0167 282.673 24.05 282.447 24.05C282.18 24.05 281.933 24 281.707 23.9C281.48 23.7933 281.297 23.6267 281.157 23.4C281.023 23.1733 280.957 22.88 280.957 22.52V17.43H282.097V22.32ZM280.207 18.88H283.667V19.7H280.207V18.88ZM287.179 19.95C287.832 19.9967 288.359 20.1833 288.759 20.51C289.166 20.8367 289.369 21.2767 289.369 21.83C289.369 22.2633 289.256 22.65 289.029 22.99C288.809 23.3233 288.492 23.5833 288.079 23.77C287.672 23.9567 287.186 24.05 286.619 24.05C286.152 24.05 285.692 23.9833 285.239 23.85C284.786 23.71 284.399 23.5267 284.079 23.3L284.569 22.4C284.842 22.6267 285.149 22.8033 285.489 22.93C285.836 23.05 286.186 23.11 286.539 23.11C286.892 23.11 287.192 23.06 287.439 22.96C287.692 22.8533 287.886 22.7067 288.019 22.52C288.152 22.3267 288.219 22.1067 288.219 21.86C288.219 21.4667 288.069 21.17 287.769 20.97C287.469 20.77 287.052 20.67 286.519 20.67H285.499V19.97L287.909 17.6L288.069 18H284.429L284.419 17H289.019V17.7L286.399 20.28L286.249 19.88L287.179 19.95ZM290.468 20.58H292.928V21.34H290.468V20.58ZM297.089 16.95C298.043 16.95 298.776 17.2567 299.289 17.87C299.803 18.4833 300.059 19.36 300.059 20.5C300.059 21.64 299.803 22.5167 299.289 23.13C298.776 23.7433 298.043 24.05 297.089 24.05C296.129 24.05 295.393 23.7433 294.879 23.13C294.366 22.5167 294.109 21.64 294.109 20.5C294.109 19.36 294.366 18.4833 294.879 17.87C295.393 17.2567 296.129 16.95 297.089 16.95ZM297.089 17.83C296.503 17.83 296.059 18.05 295.759 18.49C295.466 18.9233 295.319 19.5933 295.319 20.5C295.319 21.4 295.466 22.07 295.759 22.51C296.059 22.95 296.503 23.17 297.089 23.17C297.676 23.17 298.116 22.95 298.409 22.51C298.703 22.07 298.849 21.4 298.849 20.5C298.849 19.5933 298.703 18.9233 298.409 18.49C298.116 18.05 297.676 17.83 297.089 17.83ZM301.7 22.82C301.88 22.82 302.03 22.88 302.15 23C302.27 23.1133 302.33 23.2633 302.33 23.45C302.33 23.6367 302.27 23.79 302.15 23.91C302.03 24.03 301.88 24.09 301.7 24.09C301.52 24.09 301.37 24.03 301.25 23.91C301.13 23.79 301.07 23.6367 301.07 23.45C301.07 23.2633 301.13 23.1133 301.25 23C301.37 22.88 301.52 22.82 301.7 22.82ZM302.437 24.97C302.517 24.9967 302.597 25.0167 302.677 25.03C302.751 25.05 302.827 25.0633 302.907 25.07C303.387 25.0833 303.627 24.7567 303.627 24.09V18.69H304.777V24.25C304.777 24.8033 304.634 25.23 304.347 25.53C304.061 25.8367 303.661 25.9867 303.147 25.98C302.787 25.9667 302.467 25.9033 302.187 25.79L302.437 24.97ZM304.197 16.5C304.391 16.5 304.551 16.5633 304.677 16.69C304.804 16.8167 304.867 16.9767 304.867 17.17C304.867 17.3567 304.804 17.5167 304.677 17.65C304.551 17.7767 304.391 17.84 304.197 17.84C304.011 17.84 303.851 17.7767 303.717 17.65C303.591 17.5167 303.527 17.3567 303.527 17.17C303.527 16.9767 303.591 16.8167 303.717 16.69C303.851 16.5633 304.011 16.5 304.197 16.5ZM309.451 18.65C309.958 18.65 310.401 18.7633 310.781 18.99C311.161 19.2167 311.458 19.5333 311.671 19.94C311.885 20.3467 311.991 20.82 311.991 21.36C311.991 21.8867 311.885 22.3533 311.671 22.76C311.465 23.16 311.171 23.4733 310.791 23.7C310.418 23.9267 309.978 24.04 309.471 24.04C308.985 24.04 308.568 23.9333 308.221 23.72C307.881 23.5067 307.621 23.2 307.441 22.8C307.261 22.3933 307.171 21.9133 307.171 21.36C307.171 20.7867 307.261 20.3 307.441 19.9C307.621 19.4933 307.881 19.1833 308.221 18.97C308.568 18.7567 308.978 18.65 309.451 18.65ZM309.211 19.56C308.898 19.56 308.618 19.6367 308.371 19.79C308.125 19.9433 307.931 20.1533 307.791 20.42C307.658 20.68 307.591 20.9833 307.591 21.33C307.591 21.6767 307.658 21.9867 307.791 22.26C307.931 22.5267 308.125 22.7367 308.371 22.89C308.618 23.0367 308.898 23.11 309.211 23.11C309.531 23.11 309.811 23.0333 310.051 22.88C310.298 22.7267 310.488 22.5167 310.621 22.25C310.761 21.9833 310.831 21.6767 310.831 21.33C310.831 20.99 310.761 20.6867 310.621 20.42C310.488 20.1533 310.298 19.9433 310.051 19.79C309.811 19.6367 309.531 19.56 309.211 19.56ZM306.441 18.69H307.591V25.94H306.441V18.69ZM317.988 23.47C317.988 23.9833 317.875 24.4267 317.648 24.8C317.421 25.1733 317.101 25.46 316.688 25.66C316.275 25.8667 315.788 25.97 315.228 25.97C314.815 25.97 314.425 25.9067 314.058 25.78C313.691 25.66 313.345 25.49 313.018 25.27L313.508 24.48C313.761 24.6667 314.021 24.81 314.288 24.91C314.555 25.0167 314.851 25.07 315.178 25.07C315.518 25.07 315.811 25.0033 316.058 24.87C316.311 24.7433 316.505 24.5633 316.638 24.33C316.778 24.0967 316.848 23.82 316.848 23.5V18.69H317.988V23.47ZM315.048 18.65C315.515 18.6433 315.911 18.7433 316.238 18.95C316.571 19.15 316.825 19.44 316.998 19.82C317.171 20.2 317.255 20.6567 317.248 21.19C317.255 21.7233 317.171 22.1833 316.998 22.57C316.831 22.95 316.585 23.2433 316.258 23.45C315.938 23.65 315.548 23.75 315.088 23.75C314.608 23.75 314.188 23.6433 313.828 23.43C313.468 23.21 313.188 22.9067 312.988 22.52C312.788 22.1333 312.688 21.6867 312.688 21.18C312.688 20.68 312.785 20.2433 312.978 19.87C313.178 19.49 313.455 19.1933 313.808 18.98C314.168 18.76 314.581 18.65 315.048 18.65ZM315.318 19.53C315.018 19.53 314.751 19.6033 314.518 19.75C314.285 19.89 314.101 20.0867 313.968 20.34C313.841 20.5933 313.775 20.8833 313.768 21.21C313.775 21.5367 313.841 21.8267 313.968 22.08C314.101 22.3333 314.281 22.5333 314.508 22.68C314.741 22.82 315.011 22.89 315.318 22.89C315.618 22.89 315.881 22.82 316.108 22.68C316.341 22.5333 316.521 22.3333 316.648 22.08C316.781 21.8267 316.848 21.5367 316.848 21.21C316.848 20.8767 316.781 20.5867 316.648 20.34C316.521 20.0867 316.341 19.89 316.108 19.75C315.881 19.6033 315.618 19.53 315.318 19.53Z" fill="#092343"/>
<path d="M0.979248 56C0.979248 51.5817 4.56097 48 8.97925 48H321.021C325.439 48 329.021 51.5817 329.021 56V80C329.021 84.4183 325.439 88 321.021 88H8.97926C4.56098 88 0.979248 84.4183 0.979248 80V56Z" fill="white"/>
<path d="M24.9792 64.4867C24.9659 64.4867 24.9459 64.4867 24.9259 64.4867C21.3992 64.1334 17.8792 64 14.3925 64.3534L13.0325 64.4867C12.7525 64.5134 12.5059 64.3134 12.4792 64.0334C12.4525 63.7534 12.6525 63.5134 12.9259 63.4867L14.2859 63.3534C17.8325 62.9934 21.4259 63.1334 25.0259 63.4867C25.2992 63.5134 25.4992 63.76 25.4725 64.0334C25.4525 64.2934 25.2325 64.4867 24.9792 64.4867Z" fill="#E7181B"/>
<path d="M16.646 63.8134C16.6193 63.8134 16.5927 63.8134 16.5593 63.8067C16.2927 63.76 16.106 63.5 16.1527 63.2334L16.2993 62.36C16.406 61.72 16.5527 60.8334 18.106 60.8334H19.8527C21.4127 60.8334 21.5593 61.7534 21.6593 62.3667L21.806 63.2334C21.8527 63.5067 21.666 63.7667 21.3993 63.8067C21.126 63.8534 20.866 63.6667 20.826 63.4L20.6793 62.5334C20.586 61.9534 20.566 61.84 19.8593 61.84H18.1127C17.406 61.84 17.3927 61.9334 17.2927 62.5267L17.1393 63.3934C17.0993 63.64 16.886 63.8134 16.646 63.8134Z" fill="#E7181B"/>
<path d="M21.1193 75.1667H16.8393C14.5127 75.1667 14.4193 73.8801 14.346 72.8401L13.9127 66.1267C13.8927 65.8534 14.106 65.6134 14.3793 65.5934C14.6593 65.5801 14.8927 65.7867 14.9127 66.0601L15.346 72.7734C15.4193 73.7867 15.446 74.1667 16.8393 74.1667H21.1193C22.5193 74.1667 22.546 73.7867 22.6127 72.7734L23.046 66.0601C23.066 65.7867 23.306 65.5801 23.5793 65.5934C23.8527 65.6134 24.066 65.8467 24.046 66.1267L23.6127 72.8401C23.5393 73.8801 23.446 75.1667 21.1193 75.1667Z" fill="#E7181B"/>
<path d="M20.086 71.5H17.866C17.5926 71.5 17.366 71.2733 17.366 71C17.366 70.7267 17.5926 70.5 17.866 70.5H20.086C20.3593 70.5 20.586 70.7267 20.586 71C20.586 71.2733 20.3593 71.5 20.086 71.5Z" fill="#E7181B"/>
<path d="M20.6458 68.8334H17.3125C17.0392 68.8334 16.8125 68.6067 16.8125 68.3334C16.8125 68.06 17.0392 67.8334 17.3125 67.8334H20.6458C20.9192 67.8334 21.1458 68.06 21.1458 68.3334C21.1458 68.6067 20.9192 68.8334 20.6458 68.8334Z" fill="#E7181B"/>
<path d="M50.9792 70.8866C49.3859 70.8866 48.0925 69.5933 48.0925 67.9999C48.0925 66.4066 49.3859 65.1133 50.9792 65.1133C52.5725 65.1133 53.8659 66.4066 53.8659 67.9999C53.8659 69.5933 52.5725 70.8866 50.9792 70.8866ZM50.9792 66.1133C49.9392 66.1133 49.0925 66.9599 49.0925 67.9999C49.0925 69.0399 49.9392 69.8866 50.9792 69.8866C52.0192 69.8866 52.8659 69.0399 52.8659 67.9999C52.8659 66.9599 52.0192 66.1133 50.9792 66.1133Z" fill="#163F70"/>
<path d="M50.9792 74.0134C48.4726 74.0134 46.1059 72.5467 44.4792 70C43.7726 68.9 43.7726 67.1067 44.4792 66C46.1126 63.4534 48.4792 61.9867 50.9792 61.9867C53.4792 61.9867 55.8459 63.4534 57.4726 66C58.1792 67.1 58.1792 68.8934 57.4726 70C55.8459 72.5467 53.4792 74.0134 50.9792 74.0134ZM50.9792 62.9867C48.8259 62.9867 46.7659 64.28 45.3259 66.54C44.8259 67.32 44.8259 68.68 45.3259 69.46C46.7659 71.72 48.8259 73.0134 50.9792 73.0134C53.1326 73.0134 55.1926 71.72 56.6326 69.46C57.1326 68.68 57.1326 67.32 56.6326 66.54C55.1926 64.28 53.1326 62.9867 50.9792 62.9867Z" fill="#163F70"/>
<path d="M168.487 64.95C168.967 64.95 169.38 65.0233 169.727 65.17C170.08 65.3167 170.35 65.5267 170.537 65.8C170.724 66.0667 170.817 66.3867 170.817 66.76C170.817 67.1 170.724 67.4 170.537 67.66C170.357 67.92 170.11 68.12 169.797 68.26C170.217 68.4067 170.55 68.6333 170.797 68.94C171.044 69.2467 171.167 69.6133 171.167 70.04C171.167 70.4533 171.057 70.81 170.837 71.11C170.624 71.41 170.317 71.6433 169.917 71.81C169.517 71.97 169.044 72.05 168.497 72.05C167.95 72.05 167.477 71.97 167.077 71.81C166.677 71.65 166.367 71.42 166.147 71.12C165.934 70.82 165.827 70.4667 165.827 70.06C165.827 69.6267 165.954 69.2567 166.207 68.95C166.467 68.6367 166.814 68.4067 167.247 68.26C166.914 68.1067 166.65 67.9 166.457 67.64C166.264 67.3733 166.167 67.0667 166.167 66.72C166.167 66.3533 166.26 66.04 166.447 65.78C166.64 65.5133 166.91 65.31 167.257 65.17C167.604 65.0233 168.014 64.95 168.487 64.95ZM168.487 68.75C168 68.75 167.62 68.8567 167.347 69.07C167.074 69.2767 166.937 69.5667 166.937 69.94C166.937 70.3267 167.074 70.63 167.347 70.85C167.62 71.0633 168.004 71.17 168.497 71.17C168.99 71.17 169.374 71.0633 169.647 70.85C169.92 70.6367 170.057 70.3367 170.057 69.95C170.057 69.5767 169.917 69.2833 169.637 69.07C169.364 68.8567 168.98 68.75 168.487 68.75ZM168.497 65.76C168.077 65.76 167.75 65.8533 167.517 66.04C167.284 66.2267 167.167 66.4867 167.167 66.82C167.167 67.1533 167.284 67.4133 167.517 67.6C167.75 67.7867 168.077 67.88 168.497 67.88C168.917 67.88 169.24 67.7867 169.467 67.6C169.7 67.4133 169.817 67.1533 169.817 66.82C169.817 66.4867 169.7 66.2267 169.467 66.04C169.24 65.8533 168.917 65.76 168.497 65.76ZM172.785 70.68C172.998 70.82 173.242 70.93 173.515 71.01C173.788 71.0833 174.058 71.12 174.325 71.12C174.778 71.12 175.148 71.01 175.435 70.79C175.728 70.57 175.942 70.2633 176.075 69.87C176.215 69.47 176.278 69.01 176.265 68.49C176.078 68.83 175.825 69.0867 175.505 69.26C175.185 69.4333 174.805 69.52 174.365 69.52C173.905 69.52 173.505 69.43 173.165 69.25C172.832 69.0633 172.575 68.8033 172.395 68.47C172.215 68.1367 172.125 67.7433 172.125 67.29C172.125 66.81 172.225 66.3967 172.425 66.05C172.632 65.6967 172.918 65.4267 173.285 65.24C173.652 65.0467 174.082 64.95 174.575 64.95C175.162 64.95 175.665 65.0867 176.085 65.36C176.512 65.6267 176.838 66.0133 177.065 66.52C177.298 67.0267 177.415 67.6367 177.415 68.35C177.415 69.0967 177.292 69.7467 177.045 70.3C176.798 70.8533 176.448 71.2833 175.995 71.59C175.548 71.8967 175.018 72.05 174.405 72.05C174.058 72.05 173.695 72.0033 173.315 71.91C172.942 71.81 172.612 71.68 172.325 71.52L172.785 70.68ZM174.635 65.91C174.355 65.91 174.108 65.9667 173.895 66.08C173.688 66.1867 173.525 66.3433 173.405 66.55C173.285 66.7567 173.225 67.0067 173.225 67.3C173.225 67.7067 173.345 68.0333 173.585 68.28C173.832 68.52 174.165 68.64 174.585 68.64C174.905 68.64 175.175 68.5767 175.395 68.45C175.622 68.3167 175.792 68.1467 175.905 67.94C176.025 67.7267 176.082 67.4967 176.075 67.25C176.075 67.0967 176.048 66.94 175.995 66.78C175.942 66.62 175.855 66.4767 175.735 66.35C175.622 66.2167 175.472 66.11 175.285 66.03C175.105 65.95 174.888 65.91 174.635 65.91ZM179.103 70.68C179.317 70.82 179.56 70.93 179.833 71.01C180.107 71.0833 180.377 71.12 180.643 71.12C181.097 71.12 181.467 71.01 181.753 70.79C182.047 70.57 182.26 70.2633 182.393 69.87C182.533 69.47 182.597 69.01 182.583 68.49C182.397 68.83 182.143 69.0867 181.823 69.26C181.503 69.4333 181.123 69.52 180.683 69.52C180.223 69.52 179.823 69.43 179.483 69.25C179.15 69.0633 178.893 68.8033 178.713 68.47C178.533 68.1367 178.443 67.7433 178.443 67.29C178.443 66.81 178.543 66.3967 178.743 66.05C178.95 65.6967 179.237 65.4267 179.603 65.24C179.97 65.0467 180.4 64.95 180.893 64.95C181.48 64.95 181.983 65.0867 182.403 65.36C182.83 65.6267 183.157 66.0133 183.383 66.52C183.617 67.0267 183.733 67.6367 183.733 68.35C183.733 69.0967 183.61 69.7467 183.363 70.3C183.117 70.8533 182.767 71.2833 182.313 71.59C181.867 71.8967 181.337 72.05 180.723 72.05C180.377 72.05 180.013 72.0033 179.633 71.91C179.26 71.81 178.93 71.68 178.643 71.52L179.103 70.68ZM180.953 65.91C180.673 65.91 180.427 65.9667 180.213 66.08C180.007 66.1867 179.843 66.3433 179.723 66.55C179.603 66.7567 179.543 67.0067 179.543 67.3C179.543 67.7067 179.663 68.0333 179.903 68.28C180.15 68.52 180.483 68.64 180.903 68.64C181.223 68.64 181.493 68.5767 181.713 68.45C181.94 68.3167 182.11 68.1467 182.223 67.94C182.343 67.7267 182.4 67.4967 182.393 67.25C182.393 67.0967 182.367 66.94 182.313 66.78C182.26 66.62 182.173 66.4767 182.053 66.35C181.94 66.2167 181.79 66.11 181.603 66.03C181.423 65.95 181.207 65.91 180.953 65.91ZM187.482 67.95C188.135 67.9967 188.662 68.1833 189.062 68.51C189.468 68.8367 189.672 69.2767 189.672 69.83C189.672 70.2633 189.558 70.65 189.332 70.99C189.112 71.3233 188.795 71.5833 188.382 71.77C187.975 71.9567 187.488 72.05 186.922 72.05C186.455 72.05 185.995 71.9833 185.542 71.85C185.088 71.71 184.702 71.5267 184.382 71.3L184.872 70.4C185.145 70.6267 185.452 70.8033 185.792 70.93C186.138 71.05 186.488 71.11 186.842 71.11C187.195 71.11 187.495 71.06 187.742 70.96C187.995 70.8533 188.188 70.7067 188.322 70.52C188.455 70.3267 188.522 70.1067 188.522 69.86C188.522 69.4667 188.372 69.17 188.072 68.97C187.772 68.77 187.355 68.67 186.822 68.67H185.802V67.97L188.212 65.6L188.372 66H184.732L184.722 65H189.322V65.7L186.702 68.28L186.552 67.88L187.482 67.95ZM193.34 64.95C193.82 64.95 194.234 65.0233 194.58 65.17C194.934 65.3167 195.204 65.5267 195.39 65.8C195.577 66.0667 195.67 66.3867 195.67 66.76C195.67 67.1 195.577 67.4 195.39 67.66C195.21 67.92 194.964 68.12 194.65 68.26C195.07 68.4067 195.404 68.6333 195.65 68.94C195.897 69.2467 196.02 69.6133 196.02 70.04C196.02 70.4533 195.91 70.81 195.69 71.11C195.477 71.41 195.17 71.6433 194.77 71.81C194.37 71.97 193.897 72.05 193.35 72.05C192.804 72.05 192.33 71.97 191.93 71.81C191.53 71.65 191.22 71.42 191 71.12C190.787 70.82 190.68 70.4667 190.68 70.06C190.68 69.6267 190.807 69.2567 191.06 68.95C191.32 68.6367 191.667 68.4067 192.1 68.26C191.767 68.1067 191.504 67.9 191.31 67.64C191.117 67.3733 191.02 67.0667 191.02 66.72C191.02 66.3533 191.114 66.04 191.3 65.78C191.494 65.5133 191.764 65.31 192.11 65.17C192.457 65.0233 192.867 64.95 193.34 64.95ZM193.34 68.75C192.854 68.75 192.474 68.8567 192.2 69.07C191.927 69.2767 191.79 69.5667 191.79 69.94C191.79 70.3267 191.927 70.63 192.2 70.85C192.474 71.0633 192.857 71.17 193.35 71.17C193.844 71.17 194.227 71.0633 194.5 70.85C194.774 70.6367 194.91 70.3367 194.91 69.95C194.91 69.5767 194.77 69.2833 194.49 69.07C194.217 68.8567 193.834 68.75 193.34 68.75ZM193.35 65.76C192.93 65.76 192.604 65.8533 192.37 66.04C192.137 66.2267 192.02 66.4867 192.02 66.82C192.02 67.1533 192.137 67.4133 192.37 67.6C192.604 67.7867 192.93 67.88 193.35 67.88C193.77 67.88 194.094 67.7867 194.32 67.6C194.554 67.4133 194.67 67.1533 194.67 66.82C194.67 66.4867 194.554 66.2267 194.32 66.04C194.094 65.8533 193.77 65.76 193.35 65.76ZM198.689 70.32C198.689 70.6067 198.739 70.8033 198.839 70.91C198.939 71.01 199.079 71.06 199.259 71.06C199.379 71.06 199.502 71.04 199.629 71C199.762 70.96 199.905 70.9 200.059 70.82L200.349 71.65C200.142 71.7767 199.929 71.8767 199.709 71.95C199.489 72.0167 199.265 72.05 199.039 72.05C198.772 72.05 198.525 72 198.299 71.9C198.072 71.7933 197.889 71.6267 197.749 71.4C197.615 71.1733 197.549 70.88 197.549 70.52V65.43H198.689V70.32ZM196.799 66.88H200.259V67.7H196.799V66.88ZM201.711 70.68C201.924 70.82 202.167 70.93 202.441 71.01C202.714 71.0833 202.984 71.12 203.251 71.12C203.704 71.12 204.074 71.01 204.361 70.79C204.654 70.57 204.867 70.2633 205.001 69.87C205.141 69.47 205.204 69.01 205.191 68.49C205.004 68.83 204.751 69.0867 204.431 69.26C204.111 69.4333 203.731 69.52 203.291 69.52C202.831 69.52 202.431 69.43 202.091 69.25C201.757 69.0633 201.501 68.8033 201.321 68.47C201.141 68.1367 201.051 67.7433 201.051 67.29C201.051 66.81 201.151 66.3967 201.351 66.05C201.557 65.6967 201.844 65.4267 202.211 65.24C202.577 65.0467 203.007 64.95 203.501 64.95C204.087 64.95 204.591 65.0867 205.011 65.36C205.437 65.6267 205.764 66.0133 205.991 66.52C206.224 67.0267 206.341 67.6367 206.341 68.35C206.341 69.0967 206.217 69.7467 205.971 70.3C205.724 70.8533 205.374 71.2833 204.921 71.59C204.474 71.8967 203.944 72.05 203.331 72.05C202.984 72.05 202.621 72.0033 202.241 71.91C201.867 71.81 201.537 71.68 201.251 71.52L201.711 70.68ZM203.561 65.91C203.281 65.91 203.034 65.9667 202.821 66.08C202.614 66.1867 202.451 66.3433 202.331 66.55C202.211 66.7567 202.151 67.0067 202.151 67.3C202.151 67.7067 202.271 68.0333 202.511 68.28C202.757 68.52 203.091 68.64 203.511 68.64C203.831 68.64 204.101 68.5767 204.321 68.45C204.547 68.3167 204.717 68.1467 204.831 67.94C204.951 67.7267 205.007 67.4967 205.001 67.25C205.001 67.0967 204.974 66.94 204.921 66.78C204.867 66.62 204.781 66.4767 204.661 66.35C204.547 66.2167 204.397 66.11 204.211 66.03C204.031 65.95 203.814 65.91 203.561 65.91ZM206.529 72.97C206.609 72.9967 206.689 73.0167 206.769 73.03C206.842 73.05 206.919 73.0633 206.999 73.07C207.479 73.0833 207.719 72.7567 207.719 72.09V66.69H208.869V72.25C208.869 72.8033 208.726 73.23 208.439 73.53C208.152 73.8367 207.752 73.9867 207.239 73.98C206.879 73.9667 206.559 73.9033 206.279 73.79L206.529 72.97ZM208.289 64.5C208.482 64.5 208.642 64.5633 208.769 64.69C208.896 64.8167 208.959 64.9767 208.959 65.17C208.959 65.3567 208.896 65.5167 208.769 65.65C208.642 65.7767 208.482 65.84 208.289 65.84C208.102 65.84 207.942 65.7767 207.809 65.65C207.682 65.5167 207.619 65.3567 207.619 65.17C207.619 64.9767 207.682 64.8167 207.809 64.69C207.942 64.5633 208.102 64.5 208.289 64.5ZM209.743 70.26V69.42L212.123 65H213.263L210.763 69.69L210.493 69.26H215.293V70.26H209.743ZM213.153 67.56H214.253V72H213.153V67.56ZM219.15 64.95C220.103 64.95 220.837 65.2567 221.35 65.87C221.863 66.4833 222.12 67.36 222.12 68.5C222.12 69.64 221.863 70.5167 221.35 71.13C220.837 71.7433 220.103 72.05 219.15 72.05C218.19 72.05 217.453 71.7433 216.94 71.13C216.427 70.5167 216.17 69.64 216.17 68.5C216.17 67.36 216.427 66.4833 216.94 65.87C217.453 65.2567 218.19 64.95 219.15 64.95ZM219.15 65.83C218.563 65.83 218.12 66.05 217.82 66.49C217.527 66.9233 217.38 67.5933 217.38 68.5C217.38 69.4 217.527 70.07 217.82 70.51C218.12 70.95 218.563 71.17 219.15 71.17C219.737 71.17 220.177 70.95 220.47 70.51C220.763 70.07 220.91 69.4 220.91 68.5C220.91 67.5933 220.763 66.9233 220.47 66.49C220.177 66.05 219.737 65.83 219.15 65.83ZM225.88 67.95C226.533 67.9967 227.06 68.1833 227.46 68.51C227.867 68.8367 228.07 69.2767 228.07 69.83C228.07 70.2633 227.957 70.65 227.73 70.99C227.51 71.3233 227.193 71.5833 226.78 71.77C226.373 71.9567 225.887 72.05 225.32 72.05C224.853 72.05 224.393 71.9833 223.94 71.85C223.487 71.71 223.1 71.5267 222.78 71.3L223.27 70.4C223.543 70.6267 223.85 70.8033 224.19 70.93C224.537 71.05 224.887 71.11 225.24 71.11C225.593 71.11 225.893 71.06 226.14 70.96C226.393 70.8533 226.587 70.7067 226.72 70.52C226.853 70.3267 226.92 70.1067 226.92 69.86C226.92 69.4667 226.77 69.17 226.47 68.97C226.17 68.77 225.753 68.67 225.22 68.67H224.2V67.97L226.61 65.6L226.77 66H223.13L223.12 65H227.72V65.7L225.1 68.28L224.95 67.88L225.88 67.95ZM229.709 70.68C229.922 70.82 230.166 70.93 230.439 71.01C230.712 71.0833 230.982 71.12 231.249 71.12C231.702 71.12 232.072 71.01 232.359 70.79C232.652 70.57 232.866 70.2633 232.999 69.87C233.139 69.47 233.202 69.01 233.189 68.49C233.002 68.83 232.749 69.0867 232.429 69.26C232.109 69.4333 231.729 69.52 231.289 69.52C230.829 69.52 230.429 69.43 230.089 69.25C229.756 69.0633 229.499 68.8033 229.319 68.47C229.139 68.1367 229.049 67.7433 229.049 67.29C229.049 66.81 229.149 66.3967 229.349 66.05C229.556 65.6967 229.842 65.4267 230.209 65.24C230.576 65.0467 231.006 64.95 231.499 64.95C232.086 64.95 232.589 65.0867 233.009 65.36C233.436 65.6267 233.762 66.0133 233.989 66.52C234.222 67.0267 234.339 67.6367 234.339 68.35C234.339 69.0967 234.216 69.7467 233.969 70.3C233.722 70.8533 233.372 71.2833 232.919 71.59C232.472 71.8967 231.942 72.05 231.329 72.05C230.982 72.05 230.619 72.0033 230.239 71.91C229.866 71.81 229.536 71.68 229.249 71.52L229.709 70.68ZM231.559 65.91C231.279 65.91 231.032 65.9667 230.819 66.08C230.612 66.1867 230.449 66.3433 230.329 66.55C230.209 66.7567 230.149 67.0067 230.149 67.3C230.149 67.7067 230.269 68.0333 230.509 68.28C230.756 68.52 231.089 68.64 231.509 68.64C231.829 68.64 232.099 68.5767 232.319 68.45C232.546 68.3167 232.716 68.1467 232.829 67.94C232.949 67.7267 233.006 67.4967 232.999 67.25C232.999 67.0967 232.972 66.94 232.919 66.78C232.866 66.62 232.779 66.4767 232.659 66.35C232.546 66.2167 232.396 66.11 232.209 66.03C232.029 65.95 231.812 65.91 231.559 65.91ZM238.087 67.95C238.741 67.9967 239.267 68.1833 239.667 68.51C240.074 68.8367 240.277 69.2767 240.277 69.83C240.277 70.2633 240.164 70.65 239.937 70.99C239.717 71.3233 239.401 71.5833 238.987 71.77C238.581 71.9567 238.094 72.05 237.527 72.05C237.061 72.05 236.601 71.9833 236.147 71.85C235.694 71.71 235.307 71.5267 234.987 71.3L235.477 70.4C235.751 70.6267 236.057 70.8033 236.397 70.93C236.744 71.05 237.094 71.11 237.447 71.11C237.801 71.11 238.101 71.06 238.347 70.96C238.601 70.8533 238.794 70.7067 238.927 70.52C239.061 70.3267 239.127 70.1067 239.127 69.86C239.127 69.4667 238.977 69.17 238.677 68.97C238.377 68.77 237.961 68.67 237.427 68.67H236.407V67.97L238.817 65.6L238.977 66H235.337L235.327 65H239.927V65.7L237.307 68.28L237.157 67.88L238.087 67.95ZM241.916 70.68C242.129 70.82 242.373 70.93 242.646 71.01C242.919 71.0833 243.189 71.12 243.456 71.12C243.909 71.12 244.279 71.01 244.566 70.79C244.859 70.57 245.073 70.2633 245.206 69.87C245.346 69.47 245.409 69.01 245.396 68.49C245.209 68.83 244.956 69.0867 244.636 69.26C244.316 69.4333 243.936 69.52 243.496 69.52C243.036 69.52 242.636 69.43 242.296 69.25C241.963 69.0633 241.706 68.8033 241.526 68.47C241.346 68.1367 241.256 67.7433 241.256 67.29C241.256 66.81 241.356 66.3967 241.556 66.05C241.763 65.6967 242.049 65.4267 242.416 65.24C242.783 65.0467 243.213 64.95 243.706 64.95C244.293 64.95 244.796 65.0867 245.216 65.36C245.643 65.6267 245.969 66.0133 246.196 66.52C246.429 67.0267 246.546 67.6367 246.546 68.35C246.546 69.0967 246.423 69.7467 246.176 70.3C245.929 70.8533 245.579 71.2833 245.126 71.59C244.679 71.8967 244.149 72.05 243.536 72.05C243.189 72.05 242.826 72.0033 242.446 71.91C242.073 71.81 241.743 71.68 241.456 71.52L241.916 70.68ZM243.766 65.91C243.486 65.91 243.239 65.9667 243.026 66.08C242.819 66.1867 242.656 66.3433 242.536 66.55C242.416 66.7567 242.356 67.0067 242.356 67.3C242.356 67.7067 242.476 68.0333 242.716 68.28C242.963 68.52 243.296 68.64 243.716 68.64C244.036 68.64 244.306 68.5767 244.526 68.45C244.753 68.3167 244.923 68.1467 245.036 67.94C245.156 67.7267 245.213 67.4967 245.206 67.25C245.206 67.0967 245.179 66.94 245.126 66.78C245.073 66.62 244.986 66.4767 244.866 66.35C244.753 66.2167 244.603 66.11 244.416 66.03C244.236 65.95 244.019 65.91 243.766 65.91ZM247.694 68.58H250.154V69.34H247.694V68.58ZM254.676 66.65C255.183 66.65 255.626 66.7633 256.006 66.99C256.386 67.2167 256.683 67.5333 256.896 67.94C257.109 68.3467 257.216 68.82 257.216 69.36C257.216 69.8867 257.109 70.3533 256.896 70.76C256.689 71.16 256.396 71.4733 256.016 71.7C255.643 71.9267 255.203 72.04 254.696 72.04C254.209 72.04 253.793 71.9333 253.446 71.72C253.106 71.5067 252.846 71.2 252.666 70.8C252.486 70.3933 252.396 69.9133 252.396 69.36C252.396 68.7867 252.486 68.3 252.666 67.9C252.846 67.4933 253.106 67.1833 253.446 66.97C253.793 66.7567 254.203 66.65 254.676 66.65ZM254.436 67.56C254.123 67.56 253.843 67.6367 253.596 67.79C253.349 67.9433 253.156 68.1533 253.016 68.42C252.883 68.68 252.816 68.9833 252.816 69.33C252.816 69.6767 252.883 69.9867 253.016 70.26C253.156 70.5267 253.349 70.7367 253.596 70.89C253.843 71.0367 254.123 71.11 254.436 71.11C254.756 71.11 255.036 71.0333 255.276 70.88C255.523 70.7267 255.713 70.5167 255.846 70.25C255.986 69.9833 256.056 69.6767 256.056 69.33C256.056 68.99 255.986 68.6867 255.846 68.42C255.713 68.1533 255.523 67.9433 255.276 67.79C255.036 67.6367 254.756 67.56 254.436 67.56ZM251.666 64.58H252.816V72H251.666V64.58ZM261.473 66.65C261.979 66.65 262.423 66.7633 262.803 66.99C263.183 67.2167 263.479 67.5333 263.693 67.94C263.906 68.3467 264.013 68.82 264.013 69.36C264.013 69.8867 263.906 70.3533 263.693 70.76C263.486 71.16 263.193 71.4733 262.813 71.7C262.439 71.9267 261.999 72.04 261.493 72.04C261.006 72.04 260.589 71.9333 260.243 71.72C259.903 71.5067 259.643 71.2 259.463 70.8C259.283 70.3933 259.193 69.9133 259.193 69.36C259.193 68.7867 259.283 68.3 259.463 67.9C259.643 67.4933 259.903 67.1833 260.243 66.97C260.589 66.7567 260.999 66.65 261.473 66.65ZM261.233 67.56C260.919 67.56 260.639 67.6367 260.393 67.79C260.146 67.9433 259.953 68.1533 259.813 68.42C259.679 68.68 259.613 68.9833 259.613 69.33C259.613 69.6767 259.679 69.9867 259.813 70.26C259.953 70.5267 260.146 70.7367 260.393 70.89C260.639 71.0367 260.919 71.11 261.233 71.11C261.553 71.11 261.833 71.0333 262.073 70.88C262.319 70.7267 262.509 70.5167 262.643 70.25C262.783 69.9833 262.853 69.6767 262.853 69.33C262.853 68.99 262.783 68.6867 262.643 68.42C262.509 68.1533 262.319 67.9433 262.073 67.79C261.833 67.6367 261.553 67.56 261.233 67.56ZM258.463 66.69H259.613V73.94H258.463V66.69ZM264.97 68.58H267.43V69.34H264.97V68.58ZM271.251 67.95C271.905 67.9967 272.431 68.1833 272.831 68.51C273.238 68.8367 273.441 69.2767 273.441 69.83C273.441 70.2633 273.328 70.65 273.101 70.99C272.881 71.3233 272.565 71.5833 272.151 71.77C271.745 71.9567 271.258 72.05 270.691 72.05C270.225 72.05 269.765 71.9833 269.311 71.85C268.858 71.71 268.471 71.5267 268.151 71.3L268.641 70.4C268.915 70.6267 269.221 70.8033 269.561 70.93C269.908 71.05 270.258 71.11 270.611 71.11C270.965 71.11 271.265 71.06 271.511 70.96C271.765 70.8533 271.958 70.7067 272.091 70.52C272.225 70.3267 272.291 70.1067 272.291 69.86C272.291 69.4667 272.141 69.17 271.841 68.97C271.541 68.77 271.125 68.67 270.591 68.67H269.571V67.97L271.981 65.6L272.141 66H268.501L268.491 65H273.091V65.7L270.471 68.28L270.321 67.88L271.251 67.95ZM274.04 70.26V69.42L276.42 65H277.56L275.06 69.69L274.79 69.26H279.59V70.26H274.04ZM277.45 67.56H278.55V72H277.45V67.56ZM282.097 70.32C282.097 70.6067 282.147 70.8033 282.247 70.91C282.347 71.01 282.487 71.06 282.667 71.06C282.787 71.06 282.91 71.04 283.037 71C283.17 70.96 283.313 70.9 283.467 70.82L283.757 71.65C283.55 71.7767 283.337 71.8767 283.117 71.95C282.897 72.0167 282.673 72.05 282.447 72.05C282.18 72.05 281.933 72 281.707 71.9C281.48 71.7933 281.297 71.6267 281.157 71.4C281.023 71.1733 280.957 70.88 280.957 70.52V65.43H282.097V70.32ZM280.207 66.88H283.667V67.7H280.207V66.88ZM287.179 67.95C287.832 67.9967 288.359 68.1833 288.759 68.51C289.166 68.8367 289.369 69.2767 289.369 69.83C289.369 70.2633 289.256 70.65 289.029 70.99C288.809 71.3233 288.492 71.5833 288.079 71.77C287.672 71.9567 287.186 72.05 286.619 72.05C286.152 72.05 285.692 71.9833 285.239 71.85C284.786 71.71 284.399 71.5267 284.079 71.3L284.569 70.4C284.842 70.6267 285.149 70.8033 285.489 70.93C285.836 71.05 286.186 71.11 286.539 71.11C286.892 71.11 287.192 71.06 287.439 70.96C287.692 70.8533 287.886 70.7067 288.019 70.52C288.152 70.3267 288.219 70.1067 288.219 69.86C288.219 69.4667 288.069 69.17 287.769 68.97C287.469 68.77 287.052 68.67 286.519 68.67H285.499V67.97L287.909 65.6L288.069 66H284.429L284.419 65H289.019V65.7L286.399 68.28L286.249 67.88L287.179 67.95ZM290.468 68.58H292.928V69.34H290.468V68.58ZM297.089 64.95C298.043 64.95 298.776 65.2567 299.289 65.87C299.803 66.4833 300.059 67.36 300.059 68.5C300.059 69.64 299.803 70.5167 299.289 71.13C298.776 71.7433 298.043 72.05 297.089 72.05C296.129 72.05 295.393 71.7433 294.879 71.13C294.366 70.5167 294.109 69.64 294.109 68.5C294.109 67.36 294.366 66.4833 294.879 65.87C295.393 65.2567 296.129 64.95 297.089 64.95ZM297.089 65.83C296.503 65.83 296.059 66.05 295.759 66.49C295.466 66.9233 295.319 67.5933 295.319 68.5C295.319 69.4 295.466 70.07 295.759 70.51C296.059 70.95 296.503 71.17 297.089 71.17C297.676 71.17 298.116 70.95 298.409 70.51C298.703 70.07 298.849 69.4 298.849 68.5C298.849 67.5933 298.703 66.9233 298.409 66.49C298.116 66.05 297.676 65.83 297.089 65.83ZM301.7 70.82C301.88 70.82 302.03 70.88 302.15 71C302.27 71.1133 302.33 71.2633 302.33 71.45C302.33 71.6367 302.27 71.79 302.15 71.91C302.03 72.03 301.88 72.09 301.7 72.09C301.52 72.09 301.37 72.03 301.25 71.91C301.13 71.79 301.07 71.6367 301.07 71.45C301.07 71.2633 301.13 71.1133 301.25 71C301.37 70.88 301.52 70.82 301.7 70.82ZM302.437 72.97C302.517 72.9967 302.597 73.0167 302.677 73.03C302.751 73.05 302.827 73.0633 302.907 73.07C303.387 73.0833 303.627 72.7567 303.627 72.09V66.69H304.777V72.25C304.777 72.8033 304.634 73.23 304.347 73.53C304.061 73.8367 303.661 73.9867 303.147 73.98C302.787 73.9667 302.467 73.9033 302.187 73.79L302.437 72.97ZM304.197 64.5C304.391 64.5 304.551 64.5633 304.677 64.69C304.804 64.8167 304.867 64.9767 304.867 65.17C304.867 65.3567 304.804 65.5167 304.677 65.65C304.551 65.7767 304.391 65.84 304.197 65.84C304.011 65.84 303.851 65.7767 303.717 65.65C303.591 65.5167 303.527 65.3567 303.527 65.17C303.527 64.9767 303.591 64.8167 303.717 64.69C303.851 64.5633 304.011 64.5 304.197 64.5ZM309.451 66.65C309.958 66.65 310.401 66.7633 310.781 66.99C311.161 67.2167 311.458 67.5333 311.671 67.94C311.885 68.3467 311.991 68.82 311.991 69.36C311.991 69.8867 311.885 70.3533 311.671 70.76C311.465 71.16 311.171 71.4733 310.791 71.7C310.418 71.9267 309.978 72.04 309.471 72.04C308.985 72.04 308.568 71.9333 308.221 71.72C307.881 71.5067 307.621 71.2 307.441 70.8C307.261 70.3933 307.171 69.9133 307.171 69.36C307.171 68.7867 307.261 68.3 307.441 67.9C307.621 67.4933 307.881 67.1833 308.221 66.97C308.568 66.7567 308.978 66.65 309.451 66.65ZM309.211 67.56C308.898 67.56 308.618 67.6367 308.371 67.79C308.125 67.9433 307.931 68.1533 307.791 68.42C307.658 68.68 307.591 68.9833 307.591 69.33C307.591 69.6767 307.658 69.9867 307.791 70.26C307.931 70.5267 308.125 70.7367 308.371 70.89C308.618 71.0367 308.898 71.11 309.211 71.11C309.531 71.11 309.811 71.0333 310.051 70.88C310.298 70.7267 310.488 70.5167 310.621 70.25C310.761 69.9833 310.831 69.6767 310.831 69.33C310.831 68.99 310.761 68.6867 310.621 68.42C310.488 68.1533 310.298 67.9433 310.051 67.79C309.811 67.6367 309.531 67.56 309.211 67.56ZM306.441 66.69H307.591V73.94H306.441V66.69ZM317.988 71.47C317.988 71.9833 317.875 72.4267 317.648 72.8C317.421 73.1733 317.101 73.46 316.688 73.66C316.275 73.8667 315.788 73.97 315.228 73.97C314.815 73.97 314.425 73.9067 314.058 73.78C313.691 73.66 313.345 73.49 313.018 73.27L313.508 72.48C313.761 72.6667 314.021 72.81 314.288 72.91C314.555 73.0167 314.851 73.07 315.178 73.07C315.518 73.07 315.811 73.0033 316.058 72.87C316.311 72.7433 316.505 72.5633 316.638 72.33C316.778 72.0967 316.848 71.82 316.848 71.5V66.69H317.988V71.47ZM315.048 66.65C315.515 66.6433 315.911 66.7433 316.238 66.95C316.571 67.15 316.825 67.44 316.998 67.82C317.171 68.2 317.255 68.6567 317.248 69.19C317.255 69.7233 317.171 70.1833 316.998 70.57C316.831 70.95 316.585 71.2433 316.258 71.45C315.938 71.65 315.548 71.75 315.088 71.75C314.608 71.75 314.188 71.6433 313.828 71.43C313.468 71.21 313.188 70.9067 312.988 70.52C312.788 70.1333 312.688 69.6867 312.688 69.18C312.688 68.68 312.785 68.2433 312.978 67.87C313.178 67.49 313.455 67.1933 313.808 66.98C314.168 66.76 314.581 66.65 315.048 66.65ZM315.318 67.53C315.018 67.53 314.751 67.6033 314.518 67.75C314.285 67.89 314.101 68.0867 313.968 68.34C313.841 68.5933 313.775 68.8833 313.768 69.21C313.775 69.5367 313.841 69.8267 313.968 70.08C314.101 70.3333 314.281 70.5333 314.508 70.68C314.741 70.82 315.011 70.89 315.318 70.89C315.618 70.89 315.881 70.82 316.108 70.68C316.341 70.5333 316.521 70.3333 316.648 70.08C316.781 69.8267 316.848 69.5367 316.848 69.21C316.848 68.8767 316.781 68.5867 316.648 68.34C316.521 68.0867 316.341 67.89 316.108 67.75C315.881 67.6033 315.618 67.53 315.318 67.53Z" fill="#092343"/>
<path d="M0.979248 104C0.979248 99.5817 4.56097 96 8.97925 96H321.021C325.439 96 329.021 99.5817 329.021 104V128C329.021 132.418 325.439 136 321.021 136H8.97926C4.56098 136 0.979248 132.418 0.979248 128V104Z" fill="white"/>
<path d="M24.9792 112.487C24.9659 112.487 24.9459 112.487 24.9259 112.487C21.3992 112.133 17.8792 112 14.3925 112.353L13.0325 112.487C12.7525 112.513 12.5059 112.313 12.4792 112.033C12.4525 111.753 12.6525 111.513 12.9259 111.487L14.2859 111.353C17.8325 110.993 21.4259 111.133 25.0259 111.487C25.2992 111.513 25.4992 111.76 25.4725 112.033C25.4525 112.293 25.2325 112.487 24.9792 112.487Z" fill="#E7181B"/>
<path d="M16.646 111.813C16.6193 111.813 16.5927 111.813 16.5593 111.807C16.2927 111.76 16.106 111.5 16.1527 111.233L16.2993 110.36C16.406 109.72 16.5527 108.833 18.106 108.833H19.8527C21.4127 108.833 21.5593 109.753 21.6593 110.367L21.806 111.233C21.8527 111.507 21.666 111.767 21.3993 111.807C21.126 111.853 20.866 111.667 20.826 111.4L20.6793 110.533C20.586 109.953 20.566 109.84 19.8593 109.84H18.1127C17.406 109.84 17.3927 109.933 17.2927 110.527L17.1393 111.393C17.0993 111.64 16.886 111.813 16.646 111.813Z" fill="#E7181B"/>
<path d="M21.1193 123.167H16.8393C14.5127 123.167 14.4193 121.88 14.346 120.84L13.9127 114.127C13.8927 113.853 14.106 113.613 14.3793 113.593C14.6593 113.58 14.8927 113.787 14.9127 114.06L15.346 120.773C15.4193 121.787 15.446 122.167 16.8393 122.167H21.1193C22.5193 122.167 22.546 121.787 22.6127 120.773L23.046 114.06C23.066 113.787 23.306 113.58 23.5793 113.593C23.8527 113.613 24.066 113.847 24.046 114.127L23.6127 120.84C23.5393 121.88 23.446 123.167 21.1193 123.167Z" fill="#E7181B"/>
<path d="M20.086 119.5H17.866C17.5926 119.5 17.366 119.273 17.366 119C17.366 118.727 17.5926 118.5 17.866 118.5H20.086C20.3593 118.5 20.586 118.727 20.586 119C20.586 119.273 20.3593 119.5 20.086 119.5Z" fill="#E7181B"/>
<path d="M20.6458 116.833H17.3125C17.0392 116.833 16.8125 116.607 16.8125 116.333C16.8125 116.06 17.0392 115.833 17.3125 115.833H20.6458C20.9192 115.833 21.1458 116.06 21.1458 116.333C21.1458 116.607 20.9192 116.833 20.6458 116.833Z" fill="#E7181B"/>
<path d="M50.9792 118.887C49.3859 118.887 48.0925 117.593 48.0925 116C48.0925 114.407 49.3859 113.113 50.9792 113.113C52.5725 113.113 53.8659 114.407 53.8659 116C53.8659 117.593 52.5725 118.887 50.9792 118.887ZM50.9792 114.113C49.9392 114.113 49.0925 114.96 49.0925 116C49.0925 117.04 49.9392 117.887 50.9792 117.887C52.0192 117.887 52.8659 117.04 52.8659 116C52.8659 114.96 52.0192 114.113 50.9792 114.113Z" fill="#163F70"/>
<path d="M50.9792 122.013C48.4726 122.013 46.1059 120.547 44.4792 118C43.7726 116.9 43.7726 115.107 44.4792 114C46.1126 111.453 48.4792 109.987 50.9792 109.987C53.4792 109.987 55.8459 111.453 57.4726 114C58.1792 115.1 58.1792 116.893 57.4726 118C55.8459 120.547 53.4792 122.013 50.9792 122.013ZM50.9792 110.987C48.8259 110.987 46.7659 112.28 45.3259 114.54C44.8259 115.32 44.8259 116.68 45.3259 117.46C46.7659 119.72 48.8259 121.013 50.9792 121.013C53.1326 121.013 55.1926 119.72 56.6326 117.46C57.1326 116.68 57.1326 115.32 56.6326 114.54C55.1926 112.28 53.1326 110.987 50.9792 110.987Z" fill="#163F70"/>
<path d="M168.487 112.95C168.967 112.95 169.38 113.023 169.727 113.17C170.08 113.317 170.35 113.527 170.537 113.8C170.724 114.067 170.817 114.387 170.817 114.76C170.817 115.1 170.724 115.4 170.537 115.66C170.357 115.92 170.11 116.12 169.797 116.26C170.217 116.407 170.55 116.633 170.797 116.94C171.044 117.247 171.167 117.613 171.167 118.04C171.167 118.453 171.057 118.81 170.837 119.11C170.624 119.41 170.317 119.643 169.917 119.81C169.517 119.97 169.044 120.05 168.497 120.05C167.95 120.05 167.477 119.97 167.077 119.81C166.677 119.65 166.367 119.42 166.147 119.12C165.934 118.82 165.827 118.467 165.827 118.06C165.827 117.627 165.954 117.257 166.207 116.95C166.467 116.637 166.814 116.407 167.247 116.26C166.914 116.107 166.65 115.9 166.457 115.64C166.264 115.373 166.167 115.067 166.167 114.72C166.167 114.353 166.26 114.04 166.447 113.78C166.64 113.513 166.91 113.31 167.257 113.17C167.604 113.023 168.014 112.95 168.487 112.95ZM168.487 116.75C168 116.75 167.62 116.857 167.347 117.07C167.074 117.277 166.937 117.567 166.937 117.94C166.937 118.327 167.074 118.63 167.347 118.85C167.62 119.063 168.004 119.17 168.497 119.17C168.99 119.17 169.374 119.063 169.647 118.85C169.92 118.637 170.057 118.337 170.057 117.95C170.057 117.577 169.917 117.283 169.637 117.07C169.364 116.857 168.98 116.75 168.487 116.75ZM168.497 113.76C168.077 113.76 167.75 113.853 167.517 114.04C167.284 114.227 167.167 114.487 167.167 114.82C167.167 115.153 167.284 115.413 167.517 115.6C167.75 115.787 168.077 115.88 168.497 115.88C168.917 115.88 169.24 115.787 169.467 115.6C169.7 115.413 169.817 115.153 169.817 114.82C169.817 114.487 169.7 114.227 169.467 114.04C169.24 113.853 168.917 113.76 168.497 113.76ZM172.785 118.68C172.998 118.82 173.242 118.93 173.515 119.01C173.788 119.083 174.058 119.12 174.325 119.12C174.778 119.12 175.148 119.01 175.435 118.79C175.728 118.57 175.942 118.263 176.075 117.87C176.215 117.47 176.278 117.01 176.265 116.49C176.078 116.83 175.825 117.087 175.505 117.26C175.185 117.433 174.805 117.52 174.365 117.52C173.905 117.52 173.505 117.43 173.165 117.25C172.832 117.063 172.575 116.803 172.395 116.47C172.215 116.137 172.125 115.743 172.125 115.29C172.125 114.81 172.225 114.397 172.425 114.05C172.632 113.697 172.918 113.427 173.285 113.24C173.652 113.047 174.082 112.95 174.575 112.95C175.162 112.95 175.665 113.087 176.085 113.36C176.512 113.627 176.838 114.013 177.065 114.52C177.298 115.027 177.415 115.637 177.415 116.35C177.415 117.097 177.292 117.747 177.045 118.3C176.798 118.853 176.448 119.283 175.995 119.59C175.548 119.897 175.018 120.05 174.405 120.05C174.058 120.05 173.695 120.003 173.315 119.91C172.942 119.81 172.612 119.68 172.325 119.52L172.785 118.68ZM174.635 113.91C174.355 113.91 174.108 113.967 173.895 114.08C173.688 114.187 173.525 114.343 173.405 114.55C173.285 114.757 173.225 115.007 173.225 115.3C173.225 115.707 173.345 116.033 173.585 116.28C173.832 116.52 174.165 116.64 174.585 116.64C174.905 116.64 175.175 116.577 175.395 116.45C175.622 116.317 175.792 116.147 175.905 115.94C176.025 115.727 176.082 115.497 176.075 115.25C176.075 115.097 176.048 114.94 175.995 114.78C175.942 114.62 175.855 114.477 175.735 114.35C175.622 114.217 175.472 114.11 175.285 114.03C175.105 113.95 174.888 113.91 174.635 113.91ZM179.103 118.68C179.317 118.82 179.56 118.93 179.833 119.01C180.107 119.083 180.377 119.12 180.643 119.12C181.097 119.12 181.467 119.01 181.753 118.79C182.047 118.57 182.26 118.263 182.393 117.87C182.533 117.47 182.597 117.01 182.583 116.49C182.397 116.83 182.143 117.087 181.823 117.26C181.503 117.433 181.123 117.52 180.683 117.52C180.223 117.52 179.823 117.43 179.483 117.25C179.15 117.063 178.893 116.803 178.713 116.47C178.533 116.137 178.443 115.743 178.443 115.29C178.443 114.81 178.543 114.397 178.743 114.05C178.95 113.697 179.237 113.427 179.603 113.24C179.97 113.047 180.4 112.95 180.893 112.95C181.48 112.95 181.983 113.087 182.403 113.36C182.83 113.627 183.157 114.013 183.383 114.52C183.617 115.027 183.733 115.637 183.733 116.35C183.733 117.097 183.61 117.747 183.363 118.3C183.117 118.853 182.767 119.283 182.313 119.59C181.867 119.897 181.337 120.05 180.723 120.05C180.377 120.05 180.013 120.003 179.633 119.91C179.26 119.81 178.93 119.68 178.643 119.52L179.103 118.68ZM180.953 113.91C180.673 113.91 180.427 113.967 180.213 114.08C180.007 114.187 179.843 114.343 179.723 114.55C179.603 114.757 179.543 115.007 179.543 115.3C179.543 115.707 179.663 116.033 179.903 116.28C180.15 116.52 180.483 116.64 180.903 116.64C181.223 116.64 181.493 116.577 181.713 116.45C181.94 116.317 182.11 116.147 182.223 115.94C182.343 115.727 182.4 115.497 182.393 115.25C182.393 115.097 182.367 114.94 182.313 114.78C182.26 114.62 182.173 114.477 182.053 114.35C181.94 114.217 181.79 114.11 181.603 114.03C181.423 113.95 181.207 113.91 180.953 113.91ZM187.482 115.95C188.135 115.997 188.662 116.183 189.062 116.51C189.468 116.837 189.672 117.277 189.672 117.83C189.672 118.263 189.558 118.65 189.332 118.99C189.112 119.323 188.795 119.583 188.382 119.77C187.975 119.957 187.488 120.05 186.922 120.05C186.455 120.05 185.995 119.983 185.542 119.85C185.088 119.71 184.702 119.527 184.382 119.3L184.872 118.4C185.145 118.627 185.452 118.803 185.792 118.93C186.138 119.05 186.488 119.11 186.842 119.11C187.195 119.11 187.495 119.06 187.742 118.96C187.995 118.853 188.188 118.707 188.322 118.52C188.455 118.327 188.522 118.107 188.522 117.86C188.522 117.467 188.372 117.17 188.072 116.97C187.772 116.77 187.355 116.67 186.822 116.67H185.802V115.97L188.212 113.6L188.372 114H184.732L184.722 113H189.322V113.7L186.702 116.28L186.552 115.88L187.482 115.95ZM193.34 112.95C193.82 112.95 194.234 113.023 194.58 113.17C194.934 113.317 195.204 113.527 195.39 113.8C195.577 114.067 195.67 114.387 195.67 114.76C195.67 115.1 195.577 115.4 195.39 115.66C195.21 115.92 194.964 116.12 194.65 116.26C195.07 116.407 195.404 116.633 195.65 116.94C195.897 117.247 196.02 117.613 196.02 118.04C196.02 118.453 195.91 118.81 195.69 119.11C195.477 119.41 195.17 119.643 194.77 119.81C194.37 119.97 193.897 120.05 193.35 120.05C192.804 120.05 192.33 119.97 191.93 119.81C191.53 119.65 191.22 119.42 191 119.12C190.787 118.82 190.68 118.467 190.68 118.06C190.68 117.627 190.807 117.257 191.06 116.95C191.32 116.637 191.667 116.407 192.1 116.26C191.767 116.107 191.504 115.9 191.31 115.64C191.117 115.373 191.02 115.067 191.02 114.72C191.02 114.353 191.114 114.04 191.3 113.78C191.494 113.513 191.764 113.31 192.11 113.17C192.457 113.023 192.867 112.95 193.34 112.95ZM193.34 116.75C192.854 116.75 192.474 116.857 192.2 117.07C191.927 117.277 191.79 117.567 191.79 117.94C191.79 118.327 191.927 118.63 192.2 118.85C192.474 119.063 192.857 119.17 193.35 119.17C193.844 119.17 194.227 119.063 194.5 118.85C194.774 118.637 194.91 118.337 194.91 117.95C194.91 117.577 194.77 117.283 194.49 117.07C194.217 116.857 193.834 116.75 193.34 116.75ZM193.35 113.76C192.93 113.76 192.604 113.853 192.37 114.04C192.137 114.227 192.02 114.487 192.02 114.82C192.02 115.153 192.137 115.413 192.37 115.6C192.604 115.787 192.93 115.88 193.35 115.88C193.77 115.88 194.094 115.787 194.32 115.6C194.554 115.413 194.67 115.153 194.67 114.82C194.67 114.487 194.554 114.227 194.32 114.04C194.094 113.853 193.77 113.76 193.35 113.76ZM198.689 118.32C198.689 118.607 198.739 118.803 198.839 118.91C198.939 119.01 199.079 119.06 199.259 119.06C199.379 119.06 199.502 119.04 199.629 119C199.762 118.96 199.905 118.9 200.059 118.82L200.349 119.65C200.142 119.777 199.929 119.877 199.709 119.95C199.489 120.017 199.265 120.05 199.039 120.05C198.772 120.05 198.525 120 198.299 119.9C198.072 119.793 197.889 119.627 197.749 119.4C197.615 119.173 197.549 118.88 197.549 118.52V113.43H198.689V118.32ZM196.799 114.88H200.259V115.7H196.799V114.88ZM201.711 118.68C201.924 118.82 202.167 118.93 202.441 119.01C202.714 119.083 202.984 119.12 203.251 119.12C203.704 119.12 204.074 119.01 204.361 118.79C204.654 118.57 204.867 118.263 205.001 117.87C205.141 117.47 205.204 117.01 205.191 116.49C205.004 116.83 204.751 117.087 204.431 117.26C204.111 117.433 203.731 117.52 203.291 117.52C202.831 117.52 202.431 117.43 202.091 117.25C201.757 117.063 201.501 116.803 201.321 116.47C201.141 116.137 201.051 115.743 201.051 115.29C201.051 114.81 201.151 114.397 201.351 114.05C201.557 113.697 201.844 113.427 202.211 113.24C202.577 113.047 203.007 112.95 203.501 112.95C204.087 112.95 204.591 113.087 205.011 113.36C205.437 113.627 205.764 114.013 205.991 114.52C206.224 115.027 206.341 115.637 206.341 116.35C206.341 117.097 206.217 117.747 205.971 118.3C205.724 118.853 205.374 119.283 204.921 119.59C204.474 119.897 203.944 120.05 203.331 120.05C202.984 120.05 202.621 120.003 202.241 119.91C201.867 119.81 201.537 119.68 201.251 119.52L201.711 118.68ZM203.561 113.91C203.281 113.91 203.034 113.967 202.821 114.08C202.614 114.187 202.451 114.343 202.331 114.55C202.211 114.757 202.151 115.007 202.151 115.3C202.151 115.707 202.271 116.033 202.511 116.28C202.757 116.52 203.091 116.64 203.511 116.64C203.831 116.64 204.101 116.577 204.321 116.45C204.547 116.317 204.717 116.147 204.831 115.94C204.951 115.727 205.007 115.497 205.001 115.25C205.001 115.097 204.974 114.94 204.921 114.78C204.867 114.62 204.781 114.477 204.661 114.35C204.547 114.217 204.397 114.11 204.211 114.03C204.031 113.95 203.814 113.91 203.561 113.91ZM206.529 120.97C206.609 120.997 206.689 121.017 206.769 121.03C206.842 121.05 206.919 121.063 206.999 121.07C207.479 121.083 207.719 120.757 207.719 120.09V114.69H208.869V120.25C208.869 120.803 208.726 121.23 208.439 121.53C208.152 121.837 207.752 121.987 207.239 121.98C206.879 121.967 206.559 121.903 206.279 121.79L206.529 120.97ZM208.289 112.5C208.482 112.5 208.642 112.563 208.769 112.69C208.896 112.817 208.959 112.977 208.959 113.17C208.959 113.357 208.896 113.517 208.769 113.65C208.642 113.777 208.482 113.84 208.289 113.84C208.102 113.84 207.942 113.777 207.809 113.65C207.682 113.517 207.619 113.357 207.619 113.17C207.619 112.977 207.682 112.817 207.809 112.69C207.942 112.563 208.102 112.5 208.289 112.5ZM209.743 118.26V117.42L212.123 113H213.263L210.763 117.69L210.493 117.26H215.293V118.26H209.743ZM213.153 115.56H214.253V120H213.153V115.56ZM219.15 112.95C220.103 112.95 220.837 113.257 221.35 113.87C221.863 114.483 222.12 115.36 222.12 116.5C222.12 117.64 221.863 118.517 221.35 119.13C220.837 119.743 220.103 120.05 219.15 120.05C218.19 120.05 217.453 119.743 216.94 119.13C216.427 118.517 216.17 117.64 216.17 116.5C216.17 115.36 216.427 114.483 216.94 113.87C217.453 113.257 218.19 112.95 219.15 112.95ZM219.15 113.83C218.563 113.83 218.12 114.05 217.82 114.49C217.527 114.923 217.38 115.593 217.38 116.5C217.38 117.4 217.527 118.07 217.82 118.51C218.12 118.95 218.563 119.17 219.15 119.17C219.737 119.17 220.177 118.95 220.47 118.51C220.763 118.07 220.91 117.4 220.91 116.5C220.91 115.593 220.763 114.923 220.47 114.49C220.177 114.05 219.737 113.83 219.15 113.83ZM225.88 115.95C226.533 115.997 227.06 116.183 227.46 116.51C227.867 116.837 228.07 117.277 228.07 117.83C228.07 118.263 227.957 118.65 227.73 118.99C227.51 119.323 227.193 119.583 226.78 119.77C226.373 119.957 225.887 120.05 225.32 120.05C224.853 120.05 224.393 119.983 223.94 119.85C223.487 119.71 223.1 119.527 222.78 119.3L223.27 118.4C223.543 118.627 223.85 118.803 224.19 118.93C224.537 119.05 224.887 119.11 225.24 119.11C225.593 119.11 225.893 119.06 226.14 118.96C226.393 118.853 226.587 118.707 226.72 118.52C226.853 118.327 226.92 118.107 226.92 117.86C226.92 117.467 226.77 117.17 226.47 116.97C226.17 116.77 225.753 116.67 225.22 116.67H224.2V115.97L226.61 113.6L226.77 114H223.13L223.12 113H227.72V113.7L225.1 116.28L224.95 115.88L225.88 115.95ZM229.709 118.68C229.922 118.82 230.166 118.93 230.439 119.01C230.712 119.083 230.982 119.12 231.249 119.12C231.702 119.12 232.072 119.01 232.359 118.79C232.652 118.57 232.866 118.263 232.999 117.87C233.139 117.47 233.202 117.01 233.189 116.49C233.002 116.83 232.749 117.087 232.429 117.26C232.109 117.433 231.729 117.52 231.289 117.52C230.829 117.52 230.429 117.43 230.089 117.25C229.756 117.063 229.499 116.803 229.319 116.47C229.139 116.137 229.049 115.743 229.049 115.29C229.049 114.81 229.149 114.397 229.349 114.05C229.556 113.697 229.842 113.427 230.209 113.24C230.576 113.047 231.006 112.95 231.499 112.95C232.086 112.95 232.589 113.087 233.009 113.36C233.436 113.627 233.762 114.013 233.989 114.52C234.222 115.027 234.339 115.637 234.339 116.35C234.339 117.097 234.216 117.747 233.969 118.3C233.722 118.853 233.372 119.283 232.919 119.59C232.472 119.897 231.942 120.05 231.329 120.05C230.982 120.05 230.619 120.003 230.239 119.91C229.866 119.81 229.536 119.68 229.249 119.52L229.709 118.68ZM231.559 113.91C231.279 113.91 231.032 113.967 230.819 114.08C230.612 114.187 230.449 114.343 230.329 114.55C230.209 114.757 230.149 115.007 230.149 115.3C230.149 115.707 230.269 116.033 230.509 116.28C230.756 116.52 231.089 116.64 231.509 116.64C231.829 116.64 232.099 116.577 232.319 116.45C232.546 116.317 232.716 116.147 232.829 115.94C232.949 115.727 233.006 115.497 232.999 115.25C232.999 115.097 232.972 114.94 232.919 114.78C232.866 114.62 232.779 114.477 232.659 114.35C232.546 114.217 232.396 114.11 232.209 114.03C232.029 113.95 231.812 113.91 231.559 113.91ZM238.087 115.95C238.741 115.997 239.267 116.183 239.667 116.51C240.074 116.837 240.277 117.277 240.277 117.83C240.277 118.263 240.164 118.65 239.937 118.99C239.717 119.323 239.401 119.583 238.987 119.77C238.581 119.957 238.094 120.05 237.527 120.05C237.061 120.05 236.601 119.983 236.147 119.85C235.694 119.71 235.307 119.527 234.987 119.3L235.477 118.4C235.751 118.627 236.057 118.803 236.397 118.93C236.744 119.05 237.094 119.11 237.447 119.11C237.801 119.11 238.101 119.06 238.347 118.96C238.601 118.853 238.794 118.707 238.927 118.52C239.061 118.327 239.127 118.107 239.127 117.86C239.127 117.467 238.977 117.17 238.677 116.97C238.377 116.77 237.961 116.67 237.427 116.67H236.407V115.97L238.817 113.6L238.977 114H235.337L235.327 113H239.927V113.7L237.307 116.28L237.157 115.88L238.087 115.95ZM241.916 118.68C242.129 118.82 242.373 118.93 242.646 119.01C242.919 119.083 243.189 119.12 243.456 119.12C243.909 119.12 244.279 119.01 244.566 118.79C244.859 118.57 245.073 118.263 245.206 117.87C245.346 117.47 245.409 117.01 245.396 116.49C245.209 116.83 244.956 117.087 244.636 117.26C244.316 117.433 243.936 117.52 243.496 117.52C243.036 117.52 242.636 117.43 242.296 117.25C241.963 117.063 241.706 116.803 241.526 116.47C241.346 116.137 241.256 115.743 241.256 115.29C241.256 114.81 241.356 114.397 241.556 114.05C241.763 113.697 242.049 113.427 242.416 113.24C242.783 113.047 243.213 112.95 243.706 112.95C244.293 112.95 244.796 113.087 245.216 113.36C245.643 113.627 245.969 114.013 246.196 114.52C246.429 115.027 246.546 115.637 246.546 116.35C246.546 117.097 246.423 117.747 246.176 118.3C245.929 118.853 245.579 119.283 245.126 119.59C244.679 119.897 244.149 120.05 243.536 120.05C243.189 120.05 242.826 120.003 242.446 119.91C242.073 119.81 241.743 119.68 241.456 119.52L241.916 118.68ZM243.766 113.91C243.486 113.91 243.239 113.967 243.026 114.08C242.819 114.187 242.656 114.343 242.536 114.55C242.416 114.757 242.356 115.007 242.356 115.3C242.356 115.707 242.476 116.033 242.716 116.28C242.963 116.52 243.296 116.64 243.716 116.64C244.036 116.64 244.306 116.577 244.526 116.45C244.753 116.317 244.923 116.147 245.036 115.94C245.156 115.727 245.213 115.497 245.206 115.25C245.206 115.097 245.179 114.94 245.126 114.78C245.073 114.62 244.986 114.477 244.866 114.35C244.753 114.217 244.603 114.11 244.416 114.03C244.236 113.95 244.019 113.91 243.766 113.91ZM247.694 116.58H250.154V117.34H247.694V116.58ZM254.676 114.65C255.183 114.65 255.626 114.763 256.006 114.99C256.386 115.217 256.683 115.533 256.896 115.94C257.109 116.347 257.216 116.82 257.216 117.36C257.216 117.887 257.109 118.353 256.896 118.76C256.689 119.16 256.396 119.473 256.016 119.7C255.643 119.927 255.203 120.04 254.696 120.04C254.209 120.04 253.793 119.933 253.446 119.72C253.106 119.507 252.846 119.2 252.666 118.8C252.486 118.393 252.396 117.913 252.396 117.36C252.396 116.787 252.486 116.3 252.666 115.9C252.846 115.493 253.106 115.183 253.446 114.97C253.793 114.757 254.203 114.65 254.676 114.65ZM254.436 115.56C254.123 115.56 253.843 115.637 253.596 115.79C253.349 115.943 253.156 116.153 253.016 116.42C252.883 116.68 252.816 116.983 252.816 117.33C252.816 117.677 252.883 117.987 253.016 118.26C253.156 118.527 253.349 118.737 253.596 118.89C253.843 119.037 254.123 119.11 254.436 119.11C254.756 119.11 255.036 119.033 255.276 118.88C255.523 118.727 255.713 118.517 255.846 118.25C255.986 117.983 256.056 117.677 256.056 117.33C256.056 116.99 255.986 116.687 255.846 116.42C255.713 116.153 255.523 115.943 255.276 115.79C255.036 115.637 254.756 115.56 254.436 115.56ZM251.666 112.58H252.816V120H251.666V112.58ZM261.473 114.65C261.979 114.65 262.423 114.763 262.803 114.99C263.183 115.217 263.479 115.533 263.693 115.94C263.906 116.347 264.013 116.82 264.013 117.36C264.013 117.887 263.906 118.353 263.693 118.76C263.486 119.16 263.193 119.473 262.813 119.7C262.439 119.927 261.999 120.04 261.493 120.04C261.006 120.04 260.589 119.933 260.243 119.72C259.903 119.507 259.643 119.2 259.463 118.8C259.283 118.393 259.193 117.913 259.193 117.36C259.193 116.787 259.283 116.3 259.463 115.9C259.643 115.493 259.903 115.183 260.243 114.97C260.589 114.757 260.999 114.65 261.473 114.65ZM261.233 115.56C260.919 115.56 260.639 115.637 260.393 115.79C260.146 115.943 259.953 116.153 259.813 116.42C259.679 116.68 259.613 116.983 259.613 117.33C259.613 117.677 259.679 117.987 259.813 118.26C259.953 118.527 260.146 118.737 260.393 118.89C260.639 119.037 260.919 119.11 261.233 119.11C261.553 119.11 261.833 119.033 262.073 118.88C262.319 118.727 262.509 118.517 262.643 118.25C262.783 117.983 262.853 117.677 262.853 117.33C262.853 116.99 262.783 116.687 262.643 116.42C262.509 116.153 262.319 115.943 262.073 115.79C261.833 115.637 261.553 115.56 261.233 115.56ZM258.463 114.69H259.613V121.94H258.463V114.69ZM264.97 116.58H267.43V117.34H264.97V116.58ZM271.251 115.95C271.905 115.997 272.431 116.183 272.831 116.51C273.238 116.837 273.441 117.277 273.441 117.83C273.441 118.263 273.328 118.65 273.101 118.99C272.881 119.323 272.565 119.583 272.151 119.77C271.745 119.957 271.258 120.05 270.691 120.05C270.225 120.05 269.765 119.983 269.311 119.85C268.858 119.71 268.471 119.527 268.151 119.3L268.641 118.4C268.915 118.627 269.221 118.803 269.561 118.93C269.908 119.05 270.258 119.11 270.611 119.11C270.965 119.11 271.265 119.06 271.511 118.96C271.765 118.853 271.958 118.707 272.091 118.52C272.225 118.327 272.291 118.107 272.291 117.86C272.291 117.467 272.141 117.17 271.841 116.97C271.541 116.77 271.125 116.67 270.591 116.67H269.571V115.97L271.981 113.6L272.141 114H268.501L268.491 113H273.091V113.7L270.471 116.28L270.321 115.88L271.251 115.95ZM274.04 118.26V117.42L276.42 113H277.56L275.06 117.69L274.79 117.26H279.59V118.26H274.04ZM277.45 115.56H278.55V120H277.45V115.56ZM282.097 118.32C282.097 118.607 282.147 118.803 282.247 118.91C282.347 119.01 282.487 119.06 282.667 119.06C282.787 119.06 282.91 119.04 283.037 119C283.17 118.96 283.313 118.9 283.467 118.82L283.757 119.65C283.55 119.777 283.337 119.877 283.117 119.95C282.897 120.017 282.673 120.05 282.447 120.05C282.18 120.05 281.933 120 281.707 119.9C281.48 119.793 281.297 119.627 281.157 119.4C281.023 119.173 280.957 118.88 280.957 118.52V113.43H282.097V118.32ZM280.207 114.88H283.667V115.7H280.207V114.88ZM287.179 115.95C287.832 115.997 288.359 116.183 288.759 116.51C289.166 116.837 289.369 117.277 289.369 117.83C289.369 118.263 289.256 118.65 289.029 118.99C288.809 119.323 288.492 119.583 288.079 119.77C287.672 119.957 287.186 120.05 286.619 120.05C286.152 120.05 285.692 119.983 285.239 119.85C284.786 119.71 284.399 119.527 284.079 119.3L284.569 118.4C284.842 118.627 285.149 118.803 285.489 118.93C285.836 119.05 286.186 119.11 286.539 119.11C286.892 119.11 287.192 119.06 287.439 118.96C287.692 118.853 287.886 118.707 288.019 118.52C288.152 118.327 288.219 118.107 288.219 117.86C288.219 117.467 288.069 117.17 287.769 116.97C287.469 116.77 287.052 116.67 286.519 116.67H285.499V115.97L287.909 113.6L288.069 114H284.429L284.419 113H289.019V113.7L286.399 116.28L286.249 115.88L287.179 115.95ZM290.468 116.58H292.928V117.34H290.468V116.58ZM297.089 112.95C298.043 112.95 298.776 113.257 299.289 113.87C299.803 114.483 300.059 115.36 300.059 116.5C300.059 117.64 299.803 118.517 299.289 119.13C298.776 119.743 298.043 120.05 297.089 120.05C296.129 120.05 295.393 119.743 294.879 119.13C294.366 118.517 294.109 117.64 294.109 116.5C294.109 115.36 294.366 114.483 294.879 113.87C295.393 113.257 296.129 112.95 297.089 112.95ZM297.089 113.83C296.503 113.83 296.059 114.05 295.759 114.49C295.466 114.923 295.319 115.593 295.319 116.5C295.319 117.4 295.466 118.07 295.759 118.51C296.059 118.95 296.503 119.17 297.089 119.17C297.676 119.17 298.116 118.95 298.409 118.51C298.703 118.07 298.849 117.4 298.849 116.5C298.849 115.593 298.703 114.923 298.409 114.49C298.116 114.05 297.676 113.83 297.089 113.83ZM301.7 118.82C301.88 118.82 302.03 118.88 302.15 119C302.27 119.113 302.33 119.263 302.33 119.45C302.33 119.637 302.27 119.79 302.15 119.91C302.03 120.03 301.88 120.09 301.7 120.09C301.52 120.09 301.37 120.03 301.25 119.91C301.13 119.79 301.07 119.637 301.07 119.45C301.07 119.263 301.13 119.113 301.25 119C301.37 118.88 301.52 118.82 301.7 118.82ZM302.437 120.97C302.517 120.997 302.597 121.017 302.677 121.03C302.751 121.05 302.827 121.063 302.907 121.07C303.387 121.083 303.627 120.757 303.627 120.09V114.69H304.777V120.25C304.777 120.803 304.634 121.23 304.347 121.53C304.061 121.837 303.661 121.987 303.147 121.98C302.787 121.967 302.467 121.903 302.187 121.79L302.437 120.97ZM304.197 112.5C304.391 112.5 304.551 112.563 304.677 112.69C304.804 112.817 304.867 112.977 304.867 113.17C304.867 113.357 304.804 113.517 304.677 113.65C304.551 113.777 304.391 113.84 304.197 113.84C304.011 113.84 303.851 113.777 303.717 113.65C303.591 113.517 303.527 113.357 303.527 113.17C303.527 112.977 303.591 112.817 303.717 112.69C303.851 112.563 304.011 112.5 304.197 112.5ZM309.451 114.65C309.958 114.65 310.401 114.763 310.781 114.99C311.161 115.217 311.458 115.533 311.671 115.94C311.885 116.347 311.991 116.82 311.991 117.36C311.991 117.887 311.885 118.353 311.671 118.76C311.465 119.16 311.171 119.473 310.791 119.7C310.418 119.927 309.978 120.04 309.471 120.04C308.985 120.04 308.568 119.933 308.221 119.72C307.881 119.507 307.621 119.2 307.441 118.8C307.261 118.393 307.171 117.913 307.171 117.36C307.171 116.787 307.261 116.3 307.441 115.9C307.621 115.493 307.881 115.183 308.221 114.97C308.568 114.757 308.978 114.65 309.451 114.65ZM309.211 115.56C308.898 115.56 308.618 115.637 308.371 115.79C308.125 115.943 307.931 116.153 307.791 116.42C307.658 116.68 307.591 116.983 307.591 117.33C307.591 117.677 307.658 117.987 307.791 118.26C307.931 118.527 308.125 118.737 308.371 118.89C308.618 119.037 308.898 119.11 309.211 119.11C309.531 119.11 309.811 119.033 310.051 118.88C310.298 118.727 310.488 118.517 310.621 118.25C310.761 117.983 310.831 117.677 310.831 117.33C310.831 116.99 310.761 116.687 310.621 116.42C310.488 116.153 310.298 115.943 310.051 115.79C309.811 115.637 309.531 115.56 309.211 115.56ZM306.441 114.69H307.591V121.94H306.441V114.69ZM317.988 119.47C317.988 119.983 317.875 120.427 317.648 120.8C317.421 121.173 317.101 121.46 316.688 121.66C316.275 121.867 315.788 121.97 315.228 121.97C314.815 121.97 314.425 121.907 314.058 121.78C313.691 121.66 313.345 121.49 313.018 121.27L313.508 120.48C313.761 120.667 314.021 120.81 314.288 120.91C314.555 121.017 314.851 121.07 315.178 121.07C315.518 121.07 315.811 121.003 316.058 120.87C316.311 120.743 316.505 120.563 316.638 120.33C316.778 120.097 316.848 119.82 316.848 119.5V114.69H317.988V119.47ZM315.048 114.65C315.515 114.643 315.911 114.743 316.238 114.95C316.571 115.15 316.825 115.44 316.998 115.82C317.171 116.2 317.255 116.657 317.248 117.19C317.255 117.723 317.171 118.183 316.998 118.57C316.831 118.95 316.585 119.243 316.258 119.45C315.938 119.65 315.548 119.75 315.088 119.75C314.608 119.75 314.188 119.643 313.828 119.43C313.468 119.21 313.188 118.907 312.988 118.52C312.788 118.133 312.688 117.687 312.688 117.18C312.688 116.68 312.785 116.243 312.978 115.87C313.178 115.49 313.455 115.193 313.808 114.98C314.168 114.76 314.581 114.65 315.048 114.65ZM315.318 115.53C315.018 115.53 314.751 115.603 314.518 115.75C314.285 115.89 314.101 116.087 313.968 116.34C313.841 116.593 313.775 116.883 313.768 117.21C313.775 117.537 313.841 117.827 313.968 118.08C314.101 118.333 314.281 118.533 314.508 118.68C314.741 118.82 315.011 118.89 315.318 118.89C315.618 118.89 315.881 118.82 316.108 118.68C316.341 118.533 316.521 118.333 316.648 118.08C316.781 117.827 316.848 117.537 316.848 117.21C316.848 116.877 316.781 116.587 316.648 116.34C316.521 116.087 316.341 115.89 316.108 115.75C315.881 115.603 315.618 115.53 315.318 115.53Z" fill="#092343"/>
</svg>
