<svg width="124" height="74" viewBox="0 0 124 74" fill="none" xmlns="http://www.w3.org/2000/svg">
<rect x="0.5" y="0.5" width="123" height="73" rx="1.5" fill="white"/>
<rect x="0.5" y="0.5" width="123" height="73" rx="1.5" stroke="#D4D4D4" stroke-dasharray="6 6"/>
<path d="M65 37.75H59C53.57 37.75 51.25 35.43 51.25 30V24C51.25 18.57 53.57 16.25 59 16.25H65C70.43 16.25 72.75 18.57 72.75 24V30C72.75 35.43 70.43 37.75 65 37.75ZM59 17.75C54.39 17.75 52.75 19.39 52.75 24V30C52.75 34.61 54.39 36.25 59 36.25H65C69.61 36.25 71.25 34.61 71.25 30V24C71.25 19.39 69.61 17.75 65 17.75H59Z" fill="#092343"/>
<path d="M59 25.75C57.48 25.75 56.25 24.52 56.25 23C56.25 21.48 57.48 20.25 59 20.25C60.52 20.25 61.75 21.48 61.75 23C61.75 24.52 60.52 25.75 59 25.75ZM59 21.75C58.31 21.75 57.75 22.31 57.75 23C57.75 23.69 58.31 24.25 59 24.25C59.69 24.25 60.25 23.69 60.25 23C60.25 22.31 59.69 21.75 59 21.75Z" fill="#092343"/>
<path d="M52.6698 34.6999C52.4298 34.6999 52.1898 34.5799 52.0498 34.3699C51.8198 34.0299 51.9098 33.5599 52.2598 33.3299L57.1898 30.0199C58.2698 29.2899 59.7598 29.3799 60.7398 30.2099L61.0698 30.4999C61.5698 30.9299 62.4198 30.9299 62.9098 30.4999L67.0698 26.9299C68.1298 26.0199 69.7998 26.0199 70.8698 26.9299L72.4998 28.3299C72.8098 28.5999 72.8498 29.0699 72.5798 29.3899C72.3098 29.6999 71.8398 29.7399 71.5198 29.4699L69.8898 28.0699C69.3898 27.6399 68.5398 27.6399 68.0398 28.0699L63.8798 31.6399C62.8198 32.5499 61.1498 32.5499 60.0798 31.6399L59.7498 31.3499C59.2898 30.9599 58.5298 30.9199 58.0198 31.2699L53.0898 34.5799C52.9598 34.6599 52.8098 34.6999 52.6698 34.6999Z" fill="#092343"/>
<path d="M46.9247 62.472C46.1687 62.472 45.4827 62.332 44.8667 62.052C44.26 61.7813 43.7793 61.394 43.4247 60.89C43.0793 60.3953 42.9067 59.8307 42.9067 59.196C42.9067 59 42.9207 58.7433 42.9487 58.426C42.986 58.1087 43.028 57.754 43.0747 57.362C43.1307 56.97 43.1867 56.5733 43.2427 56.172C43.308 55.7707 43.3687 55.3833 43.4247 55.01L44.7267 55.206C44.624 55.85 44.5307 56.4427 44.4467 56.984C44.372 57.516 44.3113 57.9733 44.2647 58.356C44.2273 58.7293 44.2087 59.0093 44.2087 59.196C44.2087 59.6067 44.3207 59.9707 44.5447 60.288C44.7687 60.6053 45.086 60.8527 45.4967 61.03C45.9073 61.2167 46.3833 61.31 46.9247 61.31C47.466 61.31 47.9233 61.2213 48.2967 61.044C48.6793 60.876 48.9687 60.6427 49.1647 60.344C49.3607 60.0453 49.4587 59.6907 49.4587 59.28V51.986H50.7747V59.28C50.7747 59.9427 50.602 60.512 50.2567 60.988C49.9113 61.464 49.4493 61.828 48.8707 62.08C48.292 62.3413 47.6433 62.472 46.9247 62.472ZM50.7607 59L50.7747 57.838H57.9427L56.7807 58.874V55.668C56.7807 55.0987 56.7013 54.632 56.5427 54.268C56.384 53.8947 56.1507 53.6193 55.8427 53.442C55.544 53.2553 55.166 53.162 54.7087 53.162C54.298 53.162 53.9153 53.232 53.5607 53.372C53.2153 53.512 52.8887 53.6987 52.5807 53.932C52.282 54.156 52.002 54.4033 51.7407 54.674C51.4887 54.9447 51.2553 55.2153 51.0407 55.486C50.826 55.7567 50.6347 55.9993 50.4667 56.214L50.0887 55.122C50.3593 54.7953 50.6207 54.478 50.8727 54.17C51.1247 53.8527 51.3813 53.5633 51.6427 53.302C51.904 53.0407 52.1887 52.812 52.4967 52.616C52.8047 52.42 53.1407 52.266 53.5047 52.154C53.878 52.042 54.298 51.986 54.7647 51.986C55.418 51.986 55.9547 52.098 56.3747 52.322C56.804 52.546 57.1447 52.84 57.3967 53.204C57.6487 53.568 57.826 53.9693 57.9287 54.408C58.0313 54.8373 58.0827 55.2573 58.0827 55.668V59H50.7607ZM53.2807 50.74V49.382H54.5967V50.74H53.2807ZM61.7681 59V57.838H63.5601V59H61.7681ZM59.3601 62.206C59.2387 62.206 59.1127 62.1967 58.9821 62.178C58.8421 62.1687 58.7021 62.1593 58.5621 62.15L58.6741 60.988C58.8141 60.9973 58.9447 61.0067 59.0661 61.016C59.1781 61.0253 59.2714 61.03 59.3461 61.03C59.7661 61.03 60.1021 60.8713 60.3541 60.554C60.6154 60.2367 60.7461 59.7933 60.7461 59.224V51.986H62.0621V59.224C62.0621 59.812 61.9454 60.33 61.7121 60.778C61.4787 61.226 61.1614 61.576 60.7601 61.828C60.3587 62.08 59.8921 62.206 59.3601 62.206ZM63.5601 59V57.838C63.6814 57.838 63.7561 57.8893 63.7841 57.992C63.8214 58.0947 63.8401 58.2347 63.8401 58.412C63.8401 58.5893 63.8214 58.734 63.7841 58.846C63.7561 58.9487 63.6814 59 63.5601 59ZM63.5654 59V57.838H65.7494C66.2628 57.838 66.7528 57.7493 67.2194 57.572C67.6954 57.3947 68.1341 57.1613 68.5354 56.872C68.9368 56.5827 69.2821 56.2607 69.5714 55.906C69.8701 55.5513 70.1034 55.192 70.2714 54.828C70.4394 54.464 70.5234 54.1187 70.5234 53.792V52.938L71.1954 53.988C70.6634 53.708 70.1361 53.5027 69.6134 53.372C69.1001 53.232 68.6008 53.162 68.1154 53.162C67.6394 53.162 67.1401 53.232 66.6174 53.372C66.1041 53.5027 65.5861 53.708 65.0634 53.988L65.7354 52.938V53.792C65.7354 54.1187 65.8194 54.464 65.9874 54.828C66.1554 55.192 66.3841 55.5513 66.6734 55.906C66.9628 56.2607 67.3081 56.5827 67.7094 56.872C68.1108 57.1613 68.5448 57.3947 69.0114 57.572C69.4874 57.7493 69.9821 57.838 70.4954 57.838H72.5954V59H70.6634C69.9354 59 69.2541 58.8833 68.6194 58.65C67.9848 58.4167 67.4108 58.1087 66.8974 57.726C66.3841 57.334 65.9408 56.9093 65.5674 56.452C65.2034 55.9853 64.9234 55.5233 64.7274 55.066C64.5314 54.5993 64.4334 54.1747 64.4334 53.792V52.966C64.8348 52.7513 65.2454 52.574 65.6654 52.434C66.0854 52.2847 66.5054 52.1727 66.9254 52.098C67.3454 52.0233 67.7421 51.986 68.1154 51.986C68.5074 51.986 68.9088 52.0233 69.3194 52.098C69.7301 52.1727 70.1454 52.2847 70.5654 52.434C70.9948 52.574 71.4101 52.7513 71.8114 52.966V53.792C71.8114 54.1747 71.7134 54.5993 71.5174 55.066C71.3214 55.5233 71.0368 55.9853 70.6634 56.452C70.2994 56.9093 69.8608 57.334 69.3474 57.726C68.8341 58.1087 68.2601 58.4167 67.6254 58.65C66.9908 58.8833 66.3094 59 65.5814 59H63.5654ZM63.5654 59C63.4441 59 63.3694 58.9487 63.3414 58.846C63.3041 58.734 63.2854 58.5893 63.2854 58.412C63.2854 58.2347 63.3041 58.0947 63.3414 57.992C63.3694 57.8893 63.4441 57.838 63.5654 57.838V59ZM72.5954 59V57.838C72.7168 57.838 72.7914 57.8893 72.8194 57.992C72.8568 58.0947 72.8754 58.2347 72.8754 58.412C72.8754 58.5893 72.8568 58.734 72.8194 58.846C72.7914 58.9487 72.7168 59 72.5954 59ZM72.5889 59V57.838H80.1349L79.3089 58.454V55.556C79.3089 54.94 79.2389 54.4593 79.0989 54.114C78.9682 53.7687 78.7349 53.5213 78.3989 53.372C78.0629 53.2227 77.6055 53.148 77.0269 53.148C76.6349 53.148 76.2475 53.176 75.8649 53.232C75.4822 53.288 75.1835 53.3627 74.9689 53.456L75.7669 52.672C75.7109 52.8867 75.6549 53.162 75.5989 53.498C75.5429 53.834 75.4962 54.198 75.4589 54.59C75.4215 54.9727 75.4029 55.3553 75.4029 55.738C75.4029 56.1207 75.4215 56.4987 75.4589 56.872C75.4962 57.2453 75.5382 57.572 75.5849 57.852C75.6315 58.132 75.6689 58.3233 75.6969 58.426L74.4509 58.776C74.4135 58.6547 74.3669 58.4447 74.3109 58.146C74.2642 57.8473 74.2175 57.488 74.1709 57.068C74.1335 56.648 74.1149 56.2047 74.1149 55.738C74.1149 55.2807 74.1335 54.8373 74.1709 54.408C74.2175 53.9693 74.2689 53.5727 74.3249 53.218C74.3902 52.8633 74.4509 52.5787 74.5069 52.364C74.7215 52.28 75.0529 52.196 75.5009 52.112C75.9582 52.028 76.4669 51.986 77.0269 51.986C77.8202 51.986 78.4829 52.1027 79.0149 52.336C79.5562 52.5693 79.9575 52.9473 80.2189 53.47C80.4895 53.9833 80.6249 54.6787 80.6249 55.556V59H72.5889ZM72.5889 59C72.4675 59 72.3929 58.9487 72.3649 58.846C72.3275 58.734 72.3089 58.5893 72.3089 58.412C72.3089 58.2347 72.3275 58.0947 72.3649 57.992C72.3929 57.8893 72.4675 57.838 72.5889 57.838V59Z" fill="#092343"/>
</svg>
