<svg width="24" height="24" viewBox="0 0 24 24" fill="none" xmlns="http://www.w3.org/2000/svg">
<path d="M3.77801 11.9419C2.83001 10.2899 2.37201 8.93992 2.09601 7.57192C1.68801 5.54792 2.62201 3.57092 4.16901 2.30892C4.82301 1.77592 5.57301 1.95892 5.96001 2.65192L6.83301 4.21891C7.52501 5.46091 7.87101 6.08091 7.80301 6.73891C7.73401 7.39791 7.26701 7.93391 6.33401 9.00591L3.77801 11.9419ZM3.77801 11.9419C5.69701 15.2879 8.70801 18.3019 12.058 20.2219M12.058 20.2219C13.711 21.1699 15.06 21.6279 16.428 21.9039C18.452 22.3119 20.429 21.3779 21.69 19.8309C22.224 19.1769 22.041 18.4269 21.348 18.0399L19.781 17.1669C18.539 16.4749 17.919 16.1289 17.261 16.1969C16.602 16.2659 16.066 16.7329 14.994 17.6659L12.058 20.2219ZM14 6.83191C15.4254 7.43925 16.5607 8.57448 17.168 9.99992M14.654 1.99992C16.3982 2.50642 17.9861 3.44537 19.2703 4.72962C20.5546 6.01387 21.4935 7.60177 22 9.34591" stroke="#69798C" stroke-linecap="round" stroke-linejoin="round"/>
</svg>
