<svg width="24" height="24" viewBox="0 0 24 24" fill="none" xmlns="http://www.w3.org/2000/svg">
<path d="M21.9999 12L22.3899 11.688L22.6399 12L22.3899 12.312L21.9999 12ZM12.9999 12.5C12.8673 12.5 12.7401 12.4473 12.6463 12.3535C12.5526 12.2598 12.4999 12.1326 12.4999 12C12.4999 11.8674 12.5526 11.7402 12.6463 11.6464C12.7401 11.5527 12.8673 11.5 12.9999 11.5V12.5ZM18.3899 6.68799L22.3899 11.688L21.6099 12.312L17.6099 7.31199L18.3899 6.68799ZM22.3899 12.312L18.3899 17.312L17.6099 16.688L21.6099 11.688L22.3899 12.312ZM21.9999 12.5H12.9999V11.5H21.9999V12.5Z" fill="#F04438"/>
<path d="M14 8.13189V7.38889C14 5.76989 14 4.96089 13.526 4.40189C13.052 3.84289 12.254 3.70889 10.658 3.44189L8.986 3.16389C5.743 2.62389 4.122 2.35389 3.061 3.25189C2 4.15089 2 5.79489 2 9.08189V14.9169C2 18.2049 2 19.8489 3.06 20.7469C4.122 21.6469 5.743 21.3769 8.986 20.8359L10.658 20.5569C12.254 20.2909 13.052 20.1579 13.526 19.5989C14 19.0389 14 18.2289 14 16.6099V16.0649" stroke="#F04438"/>
</svg>
