<svg width="16" height="18" viewBox="0 0 16 18" fill="none" xmlns="http://www.w3.org/2000/svg">
<path d="M1 8.75995C1 7.40195 1 6.72295 1.274 6.12595C1.549 5.52895 2.064 5.08795 3.095 4.20395L4.095 3.34695C5.96 1.74995 6.89 0.949951 8 0.949951C9.11 0.949951 10.041 1.74895 11.905 3.34595L12.905 4.20295C13.935 5.08695 14.451 5.52795 14.725 6.12495C15 6.72195 15 7.40095 15 8.75895V13C15 14.886 15 15.828 14.414 16.414C13.828 17 12.886 17 11 17H5C3.114 17 2.172 17 1.586 16.414C1 15.828 1 14.886 1 13V8.75995Z" stroke="#69798C"/>
<path d="M10.5 17V12C10.5 11.7348 10.3946 11.4804 10.2071 11.2929C10.0196 11.1054 9.76522 11 9.5 11H6.5C6.23478 11 5.98043 11.1054 5.79289 11.2929C5.60536 11.4804 5.5 11.7348 5.5 12V17" stroke="#69798C" stroke-linecap="round" stroke-linejoin="round"/>
</svg>
