<svg width="84" height="18" viewBox="0 0 84 18" fill="none" xmlns="http://www.w3.org/2000/svg">
<path d="M29.7266 1.31455H0.787598C0.884413 2.12995 1.32448 2.86644 1.95818 3.41881C2.6887 4.05885 3.72726 4.44463 4.83624 4.44463H13.4352V17.3332H17.0702V4.44463H25.6691C26.8045 4.44463 27.8167 4.06762 28.5472 3.41881C29.1809 2.86644 29.6209 2.12995 29.7178 1.31455M77.5357 7.71499H62.8022V4.40956H77.5357C77.7557 4.40956 77.9758 4.43586 78.2046 4.52354C78.363 4.58491 78.5215 4.67259 78.6447 4.78657H78.6799L78.8031 4.87425C78.9615 5.0496 79.0847 5.22496 79.1816 5.42661C79.2432 5.60197 79.3048 5.8387 79.3048 6.04035C79.3048 6.27708 79.2432 6.47874 79.1816 6.6804C79.1463 6.74177 79.0847 6.82945 79.0583 6.88205L79.0935 6.94343L78.7767 7.20646C78.6183 7.35551 78.4334 7.49579 78.2046 7.55717C77.9846 7.64484 77.7645 7.70622 77.5357 7.70622M77.9142 14.2206H62.8022V10.9152H77.9142C78.1694 10.9152 78.3894 10.9415 78.6095 11.0292C78.8295 11.1169 79.0231 11.2308 79.1816 11.3799C79.34 11.5289 79.4984 11.7306 79.5952 11.9323C79.6568 12.1076 79.7184 12.3443 79.7184 12.546C79.7184 12.7827 79.6568 12.9844 79.5952 13.186C79.4984 13.3877 79.3752 13.5631 79.1816 13.7121C79.0231 13.8612 78.8295 13.9751 78.6095 14.0628C78.3894 14.1505 78.1694 14.2119 77.9142 14.2119M82.8517 10.8188C82.5965 10.2664 82.2796 9.74033 81.8396 9.30194L81.6195 9.10028L81.8132 8.83725C82.13 8.42517 82.3853 7.98679 82.5437 7.49579C82.7021 7.05741 82.7989 6.55765 82.7989 6.03159C82.7989 5.39154 82.6405 4.7778 82.3853 4.19036C82.13 3.60293 81.7252 3.05056 81.2499 2.61218L81.0915 2.46312C80.6514 2.08611 80.1145 1.76171 79.5424 1.56005C78.9087 1.32332 78.2486 1.18304 77.5533 1.18304H59.3344V17.4208H77.9318C78.6623 17.4208 79.3224 17.3069 79.9561 17.0701C80.5898 16.8071 81.1531 16.4564 81.6635 16.018V15.9917C82.1388 15.5533 82.5525 15.0273 82.7989 14.4135C83.0542 13.8612 83.2126 13.2123 83.2126 12.5723C83.2126 11.9323 83.0894 11.3711 82.8605 10.8451M37.595 2.30531L24.789 17.6225C24.9122 17.6839 25.1058 17.7365 25.2995 17.7716C25.6163 17.8329 26.03 17.8592 26.4348 17.8592C27.8255 17.8592 29.5065 17.5348 30.2634 16.6318L38.5456 6.66286L38.7656 6.39983C39.4345 5.54936 39.7425 5.14605 40.4114 5.14605C41.0803 5.14605 41.3268 5.47045 41.9253 6.19817L42.3037 6.69793L50.5858 16.6405C51.3164 17.5436 52.9886 17.868 54.3792 17.868C54.7929 17.868 55.1978 17.8417 55.5146 17.7803C55.7347 17.754 55.8931 17.6926 56.0163 17.6313L43.2543 2.30531C43.1311 2.15626 43.0343 2.04227 42.911 1.9546C42.7878 1.84062 42.6558 1.71787 42.5326 1.63019C42.2157 1.39346 41.8725 1.25318 41.5204 1.13043C41.1772 1.01645 40.7899 0.955078 40.4114 0.955078C40.033 0.955078 39.6545 1.01645 39.3025 1.13043C38.9592 1.24441 38.6072 1.39346 38.2903 1.63019C38.1671 1.71787 38.0351 1.83185 37.9118 1.9546C37.815 2.04227 37.6918 2.15626 37.595 2.30531Z" fill="#D53037"/>
</svg>
