<svg width="21" height="24" viewBox="0 0 21 24" fill="none" xmlns="http://www.w3.org/2000/svg">
<path d="M3.24671 11.4776C3.17181 12.91 3.258 14.4348 1.97847 15.3942C1.68429 15.6143 1.44558 15.9001 1.28133 16.2288C1.11709 16.5575 1.03185 16.9199 1.03241 17.2873C1.03241 18.3104 1.83482 19.1825 2.87937 19.1825H17.6551C18.6996 19.1825 19.502 18.3104 19.502 17.2873C19.502 16.5424 19.1511 15.8406 18.556 15.3942C17.2764 14.4348 17.3626 12.91 17.2877 11.4776C17.1954 9.67795 16.4155 7.98245 15.109 6.74129C13.8025 5.50013 12.0693 4.80809 10.2672 4.80809C8.46518 4.80809 6.73195 5.50013 5.42547 6.74129C4.119 7.98245 3.33905 9.67795 3.24671 11.4776Z" stroke="#092343" stroke-width="1.53913" stroke-linecap="round" stroke-linejoin="round"/>
<path d="M13.3455 19.1826C13.3455 19.999 13.0212 20.782 12.4439 21.3593C11.8666 21.9366 11.0836 22.2609 10.2672 22.2609C9.45081 22.2609 8.66784 21.9366 8.09055 21.3593C7.51327 20.782 7.18895 19.999 7.18895 19.1826M8.72808 2.89344C8.72808 3.74304 9.41762 4.81736 10.2672 4.81736C11.1168 4.81736 11.8064 3.74304 11.8064 2.89344C11.8064 2.04384 11.1168 1.73909 10.2672 1.73909C9.41762 1.73909 8.72808 2.04384 8.72808 2.89344Z" stroke="#092343" stroke-width="1.53913" stroke-linecap="round" stroke-linejoin="round"/>
</svg>
