<svg width="19" height="18" viewBox="0 0 19 18" fill="none" xmlns="http://www.w3.org/2000/svg">
<path d="M9.5 15C8.668 15 7.8885 14.8435 7.1615 14.5305C6.4345 14.2175 5.799 13.789 5.255 13.245C4.711 12.701 4.2825 12.0655 3.9695 11.3385C3.6565 10.6115 3.5 9.832 3.5 9C3.5 8.168 3.6565 7.3885 3.9695 6.6615C4.2825 5.9345 4.711 5.299 5.255 4.755C5.799 4.211 6.4345 3.7825 7.1615 3.4695C7.8885 3.1565 8.668 3 9.5 3V3.75C8.0375 3.75 6.797 4.2595 5.7785 5.2785C4.76 6.2975 4.2505 7.538 4.25 9C4.2495 10.462 4.759 11.7027 5.7785 12.7222C6.798 13.7417 8.0385 14.251 9.5 14.25V15ZM12.5 12.216L11.969 11.6812L14.2902 9.375H7.625V8.625H14.2753L11.969 6.3L12.5 5.78325L15.716 9L12.5 12.216Z" fill="#163F70"/>
</svg>
