<svg width="24" height="24" viewBox="0 0 24 24" fill="none" xmlns="http://www.w3.org/2000/svg">
<g clip-path="url(#clip0_60108_936)">
<path fill-rule="evenodd" clip-rule="evenodd" d="M16 12C16 14.21 14.21 16 12 16C9.79 16 8 14.21 8 12C8 9.79 9.79 8 12 8C14.21 8 16 9.79 16 12ZM15 12C15 13.66 13.66 15 12 15C10.34 15 9 13.66 9 12C9 10.34 10.34 9 12 9C13.66 9 15 10.34 15 12Z" fill="#69798C"/>
<path fill-rule="evenodd" clip-rule="evenodd" d="M9.00003 3C9.00003 1.34 10.34 0 12 0C13.66 0 15 1.34 15 3V3.16C15 3.56 15.32 3.82 15.661 3.82C15.821 3.82 15.991 3.76 16.121 3.63L16.241 3.51C16.821 2.92 17.591 2.63 18.361 2.63C18.954 2.63052 19.5335 2.80675 20.0264 3.13643C20.5192 3.46611 20.9033 3.93445 21.1302 4.48231C21.357 5.03016 21.4164 5.63295 21.3009 6.21454C21.1854 6.79614 20.9001 7.33045 20.481 7.75L20.361 7.87C19.951 8.29 20.241 9 20.831 9H20.991C22.651 9 23.991 10.34 23.991 12C23.991 13.66 22.651 15 20.991 15H20.831C20.241 15 19.94 15.71 20.361 16.13L20.481 16.25C21.0428 16.8125 21.3584 17.575 21.3584 18.37C21.3584 19.165 21.0428 19.9275 20.481 20.49C19.901 21.08 19.131 21.37 18.361 21.37C17.59 21.37 16.831 21.08 16.241 20.49L16.121 20.37C16.0282 20.2794 15.9108 20.2182 15.7835 20.194C15.6561 20.1697 15.5244 20.1835 15.4048 20.2336C15.2853 20.2838 15.1831 20.368 15.1111 20.4759C15.0391 20.5837 15.0005 20.7103 15 20.84V21C15 22.66 13.66 24 12 24C10.34 24 9.00003 22.66 9.00003 21V20.84C9.00003 20.44 8.68003 20.18 8.33903 20.18C8.17903 20.18 8.00903 20.24 7.87903 20.37L7.75903 20.49C7.17903 21.08 6.40903 21.37 5.63903 21.37C5.04607 21.3695 4.46657 21.1932 3.9737 20.8636C3.48084 20.5339 3.09673 20.0655 2.86989 19.5177C2.64304 18.9698 2.58363 18.3671 2.69917 17.7855C2.81471 17.2039 3.10001 16.6695 3.51903 16.25L3.63903 16.13C4.04903 15.71 3.75903 15 3.16903 15H3.00903C1.34903 15 0.0090332 13.66 0.0090332 12C0.0090332 10.34 1.34903 9 3.00903 9H3.16903C3.75903 9 4.06003 8.29 3.63903 7.87L3.51903 7.75C2.95723 7.1875 2.64167 6.425 2.64167 5.63C2.64167 4.835 2.95723 4.0725 3.51903 3.51C4.09903 2.92 4.86903 2.63 5.63903 2.63C6.41003 2.63 7.16903 2.92 7.75903 3.51L7.87903 3.63C7.97182 3.72057 8.08922 3.78179 8.2166 3.80605C8.34397 3.8303 8.47566 3.81649 8.59523 3.76636C8.71481 3.71623 8.81697 3.63198 8.88896 3.52415C8.96095 3.41631 8.99958 3.28966 9.00003 3.16V3ZM14 3C14 1.9 13.099 1 12 1C10.901 1 10 1.89 10 2.99V3.15C10 4.06 9.25903 4.81 8.34003 4.81C7.90003 4.81 7.47903 4.63 7.17003 4.32L7.05003 4.2C6.86562 4.01351 6.64604 3.86546 6.40401 3.76441C6.16198 3.66337 5.90231 3.61134 5.64003 3.61134C5.37776 3.61134 5.11809 3.66337 4.87606 3.76441C4.63403 3.86546 4.41445 4.01351 4.23003 4.2C4.04408 4.38575 3.89656 4.60632 3.79591 4.84912C3.69527 5.09192 3.64346 5.35217 3.64346 5.615C3.64346 5.87783 3.69527 6.13808 3.79591 6.38088C3.89656 6.62368 4.04408 6.84425 4.23003 7.03L4.35003 7.15C4.83003 7.63 4.97103 8.34 4.71003 8.96C4.46003 9.58 3.84903 9.98 3.18003 9.98H3.02003C1.92003 9.98 1.01003 10.9 1.01003 12C1.01003 13.1 1.92203 13.98 3.02003 13.98H3.18003C3.85103 13.98 4.45003 14.38 4.71003 15C4.97003 15.62 4.83003 16.33 4.35003 16.81L4.23003 16.93C4.04408 17.1157 3.89656 17.3363 3.79591 17.5791C3.69527 17.8219 3.64346 18.0822 3.64346 18.345C3.64346 18.6078 3.69527 18.8681 3.79591 19.1109C3.89656 19.3537 4.04408 19.5743 4.23003 19.76C4.41445 19.9465 4.63403 20.0945 4.87606 20.1956C5.11809 20.2966 5.37776 20.3487 5.64003 20.3487C5.90231 20.3487 6.16198 20.2966 6.40401 20.1956C6.64604 20.0945 6.86562 19.9465 7.05003 19.76L7.17003 19.64C7.49003 19.32 7.90103 19.15 8.34003 19.15C9.25103 19.15 10 19.89 10 20.81V20.97C10 22.07 10.901 23 12 23C13.099 23 14 22.07 14 20.97V20.81C14 20.34 14.18 19.91 14.52 19.6C14.8344 19.3044 15.2517 19.1432 15.6832 19.1506C16.1146 19.1581 16.5261 19.3337 16.83 19.64L16.95 19.76C17.1345 19.9465 17.354 20.0945 17.5961 20.1956C17.8381 20.2966 18.0978 20.3487 18.36 20.3487C18.6223 20.3487 18.882 20.2966 19.124 20.1956C19.366 20.0945 19.5856 19.9465 19.77 19.76C20.551 18.98 20.551 17.71 19.77 16.93L19.65 16.81C19.17 16.33 19.03 15.62 19.29 15C19.54 14.38 20.151 14 20.82 14H20.98C22.08 14 22.99 13.1 22.99 12C22.99 10.9 22.078 10 20.98 10H20.82C20.149 10 19.55 9.58 19.29 8.96C19.03 8.34 19.17 7.63 19.65 7.15L19.77 7.03C19.9565 6.84558 20.1046 6.626 20.2056 6.38397C20.3067 6.14194 20.3587 5.88227 20.3587 5.62C20.3587 5.35773 20.3067 5.09806 20.2056 4.85603C20.1046 4.614 19.9565 4.39442 19.77 4.21C19.5856 4.02351 19.366 3.87546 19.124 3.77441C18.882 3.67337 18.6223 3.62134 18.36 3.62134C18.0978 3.62134 17.8381 3.67337 17.5961 3.77441C17.354 3.87546 17.1345 4.02351 16.95 4.21L16.83 4.33C16.51 4.65 16.099 4.82 15.66 4.82C14.749 4.82 14 4.08 14 3.16V3Z" fill="#69798C"/>
</g>
<defs>
<clipPath id="clip0_60108_936">
<rect width="24" height="24" fill="white"/>
</clipPath>
</defs>
</svg>
