<svg width="18" height="19" viewBox="0 0 18 19" fill="none" xmlns="http://www.w3.org/2000/svg">
<path d="M15.75 5.52697C15.735 5.52697 15.7125 5.52697 15.69 5.52697C11.7225 5.12947 7.7625 4.97947 3.84 5.37697L2.31 5.52697C1.995 5.55697 1.7175 5.33197 1.6875 5.01697C1.6575 4.70197 1.8825 4.43197 2.19 4.40197L3.72 4.25197C7.71 3.84697 11.7525 4.00447 15.8025 4.40197C16.11 4.43197 16.335 4.70947 16.305 5.01697C16.2825 5.30947 16.035 5.52697 15.75 5.52697Z" fill="#F00101"/>
<path d="M6.37507 4.76949C6.34507 4.76949 6.31507 4.76949 6.27757 4.76199C5.97757 4.70949 5.76757 4.41699 5.82007 4.11699L5.98507 3.13449C6.10507 2.41449 6.27007 1.41699 8.01757 1.41699H9.98257C11.7376 1.41699 11.9026 2.45199 12.0151 3.14199L12.1801 4.11699C12.2326 4.42449 12.0226 4.71699 11.7226 4.76199C11.4151 4.81449 11.1226 4.60449 11.0776 4.30449L10.9126 3.32949C10.8076 2.67699 10.7851 2.54949 9.99007 2.54949H8.02507C7.23007 2.54949 7.21507 2.65449 7.10257 3.32199L6.93007 4.29699C6.88507 4.57449 6.64507 4.76949 6.37507 4.76949Z" fill="#F00101"/>
<path d="M11.4075 17.542H6.59255C3.97505 17.542 3.87005 16.0945 3.78755 14.9245L3.30005 7.37205C3.27755 7.06455 3.51755 6.79455 3.82505 6.77205C4.14005 6.75705 4.40255 6.98955 4.42505 7.29705L4.91255 14.8495C4.99505 15.9895 5.02505 16.417 6.59255 16.417H11.4075C12.9825 16.417 13.0125 15.9895 13.0875 14.8495L13.575 7.29705C13.5975 6.98955 13.8675 6.75705 14.175 6.77205C14.4825 6.79455 14.7225 7.05705 14.7 7.37205L14.2125 14.9245C14.13 16.0945 14.025 17.542 11.4075 17.542Z" fill="#F00101"/>
<path d="M10.2451 13.417H7.74756C7.44006 13.417 7.18506 13.162 7.18506 12.8545C7.18506 12.547 7.44006 12.292 7.74756 12.292H10.2451C10.5526 12.292 10.8076 12.547 10.8076 12.8545C10.8076 13.162 10.5526 13.417 10.2451 13.417Z" fill="#F00101"/>
<path d="M10.875 10.417H7.125C6.8175 10.417 6.5625 10.162 6.5625 9.85449C6.5625 9.54699 6.8175 9.29199 7.125 9.29199H10.875C11.1825 9.29199 11.4375 9.54699 11.4375 9.85449C11.4375 10.162 11.1825 10.417 10.875 10.417Z" fill="#F00101"/>
</svg>
